M48
; DRILL file {KiCad 8.0.1} date 2024-05-10T10:41:43+0200
; FORMAT={-:-/ absolute / metric / decimal}
; #@! TF.CreationDate,2024-05-10T10:41:43+02:00
; #@! TF.GenerationSoftware,Kicad,Pcbnew,8.0.1
; #@! TF.FileFunction,Plated,1,2,PTH
FMAT,2
METRIC
; #@! TA.AperFunction,Plated,PTH,ComponentDrill
T1C0.991
; #@! TA.AperFunction,Plated,PTH,ComponentDrill
T2C1.092
; #@! TA.AperFunction,Plated,PTH,ComponentDrill
T3C1.200
; #@! TA.AperFunction,Plated,PTH,ComponentDrill
T4C1.270
; #@! TA.AperFunction,Plated,PTH,ComponentDrill
T5C2.100
%
G90
G05
T1
X48.969Y-86.276
X51.921Y-69.535
X54.873Y-52.793
X56.473Y-87.6
X59.425Y-70.858
X62.377Y-54.116
X69.474Y-73.645
X72.426Y-56.903
X75.378Y-40.162
X76.978Y-74.968
X79.93Y-58.227
X82.882Y-41.485
X88.159Y-97.248
X88.416Y-69.877
X91.368Y-53.135
X94.32Y-36.394
X95.663Y-98.572
X95.92Y-71.2
X98.872Y-54.459
X101.824Y-37.717
X105.274Y-77.927
X105.885Y-100.374
X108.226Y-61.185
X111.178Y-44.443
X112.778Y-79.25
X113.39Y-101.697
X115.73Y-62.508
X118.682Y-45.767
X122.132Y-85.977
X123.612Y-103.5
X125.084Y-69.235
X128.036Y-52.493
X129.637Y-87.3
X131.116Y-104.823
X132.589Y-70.558
X135.541Y-53.816
X177.056Y-53.816
X180.008Y-70.558
X181.481Y-104.823
X182.96Y-87.3
X184.56Y-52.493
X187.513Y-69.235
X188.985Y-103.5
X190.465Y-85.977
X193.915Y-45.767
X196.867Y-62.508
X199.207Y-101.697
X199.819Y-79.25
X201.419Y-44.443
X204.371Y-61.185
X206.711Y-100.374
X207.323Y-77.927
X210.773Y-37.717
X213.725Y-54.459
X216.677Y-71.2
X216.934Y-98.572
X218.277Y-36.394
X221.229Y-53.135
X224.181Y-69.877
X224.438Y-97.248
X229.715Y-41.485
X232.667Y-58.227
X235.619Y-74.968
X237.219Y-40.162
X240.171Y-56.903
X243.123Y-73.645
X250.22Y-54.116
X253.172Y-70.858
X256.124Y-87.6
X257.724Y-52.793
X260.676Y-69.535
X263.628Y-86.276
T2
X147.408Y-94.022
X147.408Y-68.622
X147.408Y-50.842
X147.408Y-53.382
X147.408Y-55.922
X147.408Y-58.462
X147.408Y-61.002
X147.408Y-63.542
X147.408Y-71.162
X147.408Y-73.702
X147.408Y-76.242
X147.408Y-78.782
X147.408Y-81.322
X147.408Y-83.862
X147.408Y-86.402
X147.408Y-88.942
X147.408Y-96.562
X147.408Y-99.102
X147.408Y-66.082
X147.408Y-91.482
X151.218Y-103.237
X153.758Y-99.102
X153.758Y-103.237
X156.298Y-99.102
X156.298Y-103.237
X158.838Y-103.237
X158.838Y-99.102
X161.378Y-103.237
X165.188Y-58.462
X165.188Y-83.862
X165.188Y-50.842
X165.188Y-53.382
X165.188Y-61.002
X165.188Y-63.542
X165.188Y-66.082
X165.188Y-68.622
X165.188Y-71.162
X165.188Y-73.702
X165.188Y-76.242
X165.188Y-78.782
X165.188Y-86.402
X165.188Y-88.942
X165.188Y-91.482
X165.188Y-94.022
X165.188Y-96.562
X165.188Y-99.102
X165.188Y-81.322
X165.188Y-55.922
T3
X59.497Y-74.425
X74.09Y-43.489
X101.15Y-94.462
X109.891Y-47.77
X125.277Y-90.085
X135.612Y-57.383
X176.985Y-57.383
X187.32Y-90.085
X202.706Y-47.77
X211.447Y-94.462
X238.506Y-43.489
X253.1Y-74.425
T4
X54.614Y-76.204
X57.566Y-59.462
X59.173Y-79.14
X60.518Y-42.72
X62.125Y-62.398
X65.077Y-45.656
X75.119Y-63.572
X78.071Y-46.831
X79.678Y-66.509
X81.023Y-30.089
X82.63Y-49.767
X85.582Y-33.025
X93.804Y-87.176
X94.061Y-59.804
X97.013Y-43.063
X98.363Y-90.112
X98.62Y-62.741
X99.965Y-26.321
X101.572Y-45.999
X104.524Y-29.257
X110.919Y-67.854
X111.53Y-90.301
X113.871Y-51.112
X115.478Y-70.79
X116.09Y-93.238
X116.823Y-34.371
X118.43Y-54.049
X121.382Y-37.307
X127.777Y-75.904
X129.257Y-93.427
X130.729Y-59.162
X132.337Y-78.84
X133.681Y-42.42
X133.816Y-96.363
X135.289Y-62.098
X138.241Y-45.357
X178.916Y-42.42
X181.868Y-59.162
X183.34Y-93.427
X184.204Y-43.62
X184.82Y-75.904
X187.156Y-60.362
X188.629Y-94.627
X190.108Y-77.104
X195.774Y-34.371
X198.726Y-51.112
X201.063Y-35.57
X201.067Y-90.301
X201.678Y-67.854
X204.015Y-52.312
X206.355Y-91.501
X206.967Y-69.054
X212.632Y-26.321
X215.584Y-43.063
X217.921Y-27.521
X218.536Y-59.804
X218.793Y-87.176
X220.873Y-44.262
X223.825Y-61.004
X224.082Y-88.375
X231.574Y-30.089
X234.526Y-46.831
X236.863Y-31.289
X237.478Y-63.572
X239.815Y-48.03
X242.767Y-64.772
X252.079Y-42.72
X255.031Y-59.462
X257.368Y-43.92
X257.983Y-76.204
X260.32Y-60.662
X263.272Y-77.403
T5
X150.598Y-51.472
X150.598Y-98.472
X161.998Y-51.472
X161.998Y-98.472
M30
