%TF.GenerationSoftware,KiCad,Pcbnew,8.0.1*%
%TF.CreationDate,2024-05-10T10:41:52+02:00*%
%TF.ProjectId,main,6d61696e-2e6b-4696-9361-645f70636258,v1.0.0*%
%TF.SameCoordinates,Original*%
%TF.FileFunction,Legend,Bot*%
%TF.FilePolarity,Positive*%
%FSLAX46Y46*%
G04 Gerber Fmt 4.6, Leading zero omitted, Abs format (unit mm)*
G04 Created by KiCad (PCBNEW 8.0.1) date 2024-05-10 10:41:52*
%MOMM*%
%LPD*%
G01*
G04 APERTURE LIST*
%ADD10C,0.150000*%
%ADD11C,0.125000*%
%ADD12C,0.100000*%
%ADD13C,3.800000*%
%ADD14C,1.752600*%
G04 APERTURE END LIST*
D10*
X163669863Y-71524713D02*
X163669863Y-70724713D01*
X163669863Y-70724713D02*
X163365101Y-70724713D01*
X163365101Y-70724713D02*
X163288911Y-70762808D01*
X163288911Y-70762808D02*
X163250816Y-70800903D01*
X163250816Y-70800903D02*
X163212720Y-70877094D01*
X163212720Y-70877094D02*
X163212720Y-70991379D01*
X163212720Y-70991379D02*
X163250816Y-71067570D01*
X163250816Y-71067570D02*
X163288911Y-71105665D01*
X163288911Y-71105665D02*
X163365101Y-71143760D01*
X163365101Y-71143760D02*
X163669863Y-71143760D01*
X162907959Y-70800903D02*
X162869863Y-70762808D01*
X162869863Y-70762808D02*
X162793673Y-70724713D01*
X162793673Y-70724713D02*
X162603197Y-70724713D01*
X162603197Y-70724713D02*
X162527006Y-70762808D01*
X162527006Y-70762808D02*
X162488911Y-70800903D01*
X162488911Y-70800903D02*
X162450816Y-70877094D01*
X162450816Y-70877094D02*
X162450816Y-70953284D01*
X162450816Y-70953284D02*
X162488911Y-71067570D01*
X162488911Y-71067570D02*
X162946054Y-71524713D01*
X162946054Y-71524713D02*
X162450816Y-71524713D01*
X162184149Y-70724713D02*
X161650815Y-70724713D01*
X161650815Y-70724713D02*
X161993673Y-71524713D01*
X163669863Y-86764714D02*
X163669863Y-85964714D01*
X163669863Y-85964714D02*
X163365101Y-85964714D01*
X163365101Y-85964714D02*
X163288911Y-86002809D01*
X163288911Y-86002809D02*
X163250816Y-86040904D01*
X163250816Y-86040904D02*
X163212720Y-86117095D01*
X163212720Y-86117095D02*
X163212720Y-86231380D01*
X163212720Y-86231380D02*
X163250816Y-86307571D01*
X163250816Y-86307571D02*
X163288911Y-86345666D01*
X163288911Y-86345666D02*
X163365101Y-86383761D01*
X163365101Y-86383761D02*
X163669863Y-86383761D01*
X162907959Y-86040904D02*
X162869863Y-86002809D01*
X162869863Y-86002809D02*
X162793673Y-85964714D01*
X162793673Y-85964714D02*
X162603197Y-85964714D01*
X162603197Y-85964714D02*
X162527006Y-86002809D01*
X162527006Y-86002809D02*
X162488911Y-86040904D01*
X162488911Y-86040904D02*
X162450816Y-86117095D01*
X162450816Y-86117095D02*
X162450816Y-86193285D01*
X162450816Y-86193285D02*
X162488911Y-86307571D01*
X162488911Y-86307571D02*
X162946054Y-86764714D01*
X162946054Y-86764714D02*
X162450816Y-86764714D01*
X161955577Y-85964714D02*
X161879387Y-85964714D01*
X161879387Y-85964714D02*
X161803196Y-86002809D01*
X161803196Y-86002809D02*
X161765101Y-86040904D01*
X161765101Y-86040904D02*
X161727006Y-86117095D01*
X161727006Y-86117095D02*
X161688911Y-86269476D01*
X161688911Y-86269476D02*
X161688911Y-86459952D01*
X161688911Y-86459952D02*
X161727006Y-86612333D01*
X161727006Y-86612333D02*
X161765101Y-86688523D01*
X161765101Y-86688523D02*
X161803196Y-86726619D01*
X161803196Y-86726619D02*
X161879387Y-86764714D01*
X161879387Y-86764714D02*
X161955577Y-86764714D01*
X161955577Y-86764714D02*
X162031768Y-86726619D01*
X162031768Y-86726619D02*
X162069863Y-86688523D01*
X162069863Y-86688523D02*
X162107958Y-86612333D01*
X162107958Y-86612333D02*
X162146054Y-86459952D01*
X162146054Y-86459952D02*
X162146054Y-86269476D01*
X162146054Y-86269476D02*
X162107958Y-86117095D01*
X162107958Y-86117095D02*
X162069863Y-86040904D01*
X162069863Y-86040904D02*
X162031768Y-86002809D01*
X162031768Y-86002809D02*
X161955577Y-85964714D01*
X160469863Y-96224713D02*
X160469863Y-95424713D01*
X160469863Y-95424713D02*
X160165101Y-95424713D01*
X160165101Y-95424713D02*
X160088911Y-95462808D01*
X160088911Y-95462808D02*
X160050816Y-95500903D01*
X160050816Y-95500903D02*
X160012720Y-95577094D01*
X160012720Y-95577094D02*
X160012720Y-95691379D01*
X160012720Y-95691379D02*
X160050816Y-95767570D01*
X160050816Y-95767570D02*
X160088911Y-95805665D01*
X160088911Y-95805665D02*
X160165101Y-95843760D01*
X160165101Y-95843760D02*
X160469863Y-95843760D01*
X159250816Y-96224713D02*
X159707959Y-96224713D01*
X159479387Y-96224713D02*
X159479387Y-95424713D01*
X159479387Y-95424713D02*
X159555578Y-95538998D01*
X159555578Y-95538998D02*
X159631768Y-95615189D01*
X159631768Y-95615189D02*
X159707959Y-95653284D01*
X158565101Y-95424713D02*
X158717482Y-95424713D01*
X158717482Y-95424713D02*
X158793673Y-95462808D01*
X158793673Y-95462808D02*
X158831768Y-95500903D01*
X158831768Y-95500903D02*
X158907958Y-95615189D01*
X158907958Y-95615189D02*
X158946054Y-95767570D01*
X158946054Y-95767570D02*
X158946054Y-96072332D01*
X158946054Y-96072332D02*
X158907958Y-96148522D01*
X158907958Y-96148522D02*
X158869863Y-96186618D01*
X158869863Y-96186618D02*
X158793673Y-96224713D01*
X158793673Y-96224713D02*
X158641292Y-96224713D01*
X158641292Y-96224713D02*
X158565101Y-96186618D01*
X158565101Y-96186618D02*
X158527006Y-96148522D01*
X158527006Y-96148522D02*
X158488911Y-96072332D01*
X158488911Y-96072332D02*
X158488911Y-95881856D01*
X158488911Y-95881856D02*
X158527006Y-95805665D01*
X158527006Y-95805665D02*
X158565101Y-95767570D01*
X158565101Y-95767570D02*
X158641292Y-95729475D01*
X158641292Y-95729475D02*
X158793673Y-95729475D01*
X158793673Y-95729475D02*
X158869863Y-95767570D01*
X158869863Y-95767570D02*
X158907958Y-95805665D01*
X158907958Y-95805665D02*
X158946054Y-95881856D01*
X150869863Y-58824713D02*
X150869863Y-58024713D01*
X150869863Y-58024713D02*
X150565101Y-58024713D01*
X150565101Y-58024713D02*
X150488911Y-58062808D01*
X150488911Y-58062808D02*
X150450816Y-58100903D01*
X150450816Y-58100903D02*
X150412720Y-58177094D01*
X150412720Y-58177094D02*
X150412720Y-58291379D01*
X150412720Y-58291379D02*
X150450816Y-58367570D01*
X150450816Y-58367570D02*
X150488911Y-58405665D01*
X150488911Y-58405665D02*
X150565101Y-58443760D01*
X150565101Y-58443760D02*
X150869863Y-58443760D01*
X149917482Y-58024713D02*
X149841292Y-58024713D01*
X149841292Y-58024713D02*
X149765101Y-58062808D01*
X149765101Y-58062808D02*
X149727006Y-58100903D01*
X149727006Y-58100903D02*
X149688911Y-58177094D01*
X149688911Y-58177094D02*
X149650816Y-58329475D01*
X149650816Y-58329475D02*
X149650816Y-58519951D01*
X149650816Y-58519951D02*
X149688911Y-58672332D01*
X149688911Y-58672332D02*
X149727006Y-58748522D01*
X149727006Y-58748522D02*
X149765101Y-58786618D01*
X149765101Y-58786618D02*
X149841292Y-58824713D01*
X149841292Y-58824713D02*
X149917482Y-58824713D01*
X149917482Y-58824713D02*
X149993673Y-58786618D01*
X149993673Y-58786618D02*
X150031768Y-58748522D01*
X150031768Y-58748522D02*
X150069863Y-58672332D01*
X150069863Y-58672332D02*
X150107959Y-58519951D01*
X150107959Y-58519951D02*
X150107959Y-58329475D01*
X150107959Y-58329475D02*
X150069863Y-58177094D01*
X150069863Y-58177094D02*
X150031768Y-58100903D01*
X150031768Y-58100903D02*
X149993673Y-58062808D01*
X149993673Y-58062808D02*
X149917482Y-58024713D01*
X149346054Y-58100903D02*
X149307958Y-58062808D01*
X149307958Y-58062808D02*
X149231768Y-58024713D01*
X149231768Y-58024713D02*
X149041292Y-58024713D01*
X149041292Y-58024713D02*
X148965101Y-58062808D01*
X148965101Y-58062808D02*
X148927006Y-58100903D01*
X148927006Y-58100903D02*
X148888911Y-58177094D01*
X148888911Y-58177094D02*
X148888911Y-58253284D01*
X148888911Y-58253284D02*
X148927006Y-58367570D01*
X148927006Y-58367570D02*
X149384149Y-58824713D01*
X149384149Y-58824713D02*
X148888911Y-58824713D01*
X163288910Y-76604714D02*
X163555577Y-76223761D01*
X163746053Y-76604714D02*
X163746053Y-75804714D01*
X163746053Y-75804714D02*
X163441291Y-75804714D01*
X163441291Y-75804714D02*
X163365101Y-75842809D01*
X163365101Y-75842809D02*
X163327006Y-75880904D01*
X163327006Y-75880904D02*
X163288910Y-75957095D01*
X163288910Y-75957095D02*
X163288910Y-76071380D01*
X163288910Y-76071380D02*
X163327006Y-76147571D01*
X163327006Y-76147571D02*
X163365101Y-76185666D01*
X163365101Y-76185666D02*
X163441291Y-76223761D01*
X163441291Y-76223761D02*
X163746053Y-76223761D01*
X162946053Y-75804714D02*
X162946053Y-76452333D01*
X162946053Y-76452333D02*
X162907958Y-76528523D01*
X162907958Y-76528523D02*
X162869863Y-76566619D01*
X162869863Y-76566619D02*
X162793672Y-76604714D01*
X162793672Y-76604714D02*
X162641291Y-76604714D01*
X162641291Y-76604714D02*
X162565101Y-76566619D01*
X162565101Y-76566619D02*
X162527006Y-76528523D01*
X162527006Y-76528523D02*
X162488910Y-76452333D01*
X162488910Y-76452333D02*
X162488910Y-75804714D01*
X162107958Y-76604714D02*
X162107958Y-75804714D01*
X162107958Y-75804714D02*
X161650815Y-76604714D01*
X161650815Y-76604714D02*
X161650815Y-75804714D01*
X150869863Y-91844713D02*
X150869863Y-91044713D01*
X150869863Y-91044713D02*
X150565101Y-91044713D01*
X150565101Y-91044713D02*
X150488911Y-91082808D01*
X150488911Y-91082808D02*
X150450816Y-91120903D01*
X150450816Y-91120903D02*
X150412720Y-91197094D01*
X150412720Y-91197094D02*
X150412720Y-91311379D01*
X150412720Y-91311379D02*
X150450816Y-91387570D01*
X150450816Y-91387570D02*
X150488911Y-91425665D01*
X150488911Y-91425665D02*
X150565101Y-91463760D01*
X150565101Y-91463760D02*
X150869863Y-91463760D01*
X149650816Y-91844713D02*
X150107959Y-91844713D01*
X149879387Y-91844713D02*
X149879387Y-91044713D01*
X149879387Y-91044713D02*
X149955578Y-91158998D01*
X149955578Y-91158998D02*
X150031768Y-91235189D01*
X150031768Y-91235189D02*
X150107959Y-91273284D01*
X149384149Y-91044713D02*
X148888911Y-91044713D01*
X148888911Y-91044713D02*
X149155577Y-91349475D01*
X149155577Y-91349475D02*
X149041292Y-91349475D01*
X149041292Y-91349475D02*
X148965101Y-91387570D01*
X148965101Y-91387570D02*
X148927006Y-91425665D01*
X148927006Y-91425665D02*
X148888911Y-91501856D01*
X148888911Y-91501856D02*
X148888911Y-91692332D01*
X148888911Y-91692332D02*
X148927006Y-91768522D01*
X148927006Y-91768522D02*
X148965101Y-91806618D01*
X148965101Y-91806618D02*
X149041292Y-91844713D01*
X149041292Y-91844713D02*
X149269863Y-91844713D01*
X149269863Y-91844713D02*
X149346054Y-91806618D01*
X149346054Y-91806618D02*
X149384149Y-91768522D01*
X150869863Y-71524713D02*
X150869863Y-70724713D01*
X150869863Y-70724713D02*
X150565101Y-70724713D01*
X150565101Y-70724713D02*
X150488911Y-70762808D01*
X150488911Y-70762808D02*
X150450816Y-70800903D01*
X150450816Y-70800903D02*
X150412720Y-70877094D01*
X150412720Y-70877094D02*
X150412720Y-70991379D01*
X150412720Y-70991379D02*
X150450816Y-71067570D01*
X150450816Y-71067570D02*
X150488911Y-71105665D01*
X150488911Y-71105665D02*
X150565101Y-71143760D01*
X150565101Y-71143760D02*
X150869863Y-71143760D01*
X149917482Y-70724713D02*
X149841292Y-70724713D01*
X149841292Y-70724713D02*
X149765101Y-70762808D01*
X149765101Y-70762808D02*
X149727006Y-70800903D01*
X149727006Y-70800903D02*
X149688911Y-70877094D01*
X149688911Y-70877094D02*
X149650816Y-71029475D01*
X149650816Y-71029475D02*
X149650816Y-71219951D01*
X149650816Y-71219951D02*
X149688911Y-71372332D01*
X149688911Y-71372332D02*
X149727006Y-71448522D01*
X149727006Y-71448522D02*
X149765101Y-71486618D01*
X149765101Y-71486618D02*
X149841292Y-71524713D01*
X149841292Y-71524713D02*
X149917482Y-71524713D01*
X149917482Y-71524713D02*
X149993673Y-71486618D01*
X149993673Y-71486618D02*
X150031768Y-71448522D01*
X150031768Y-71448522D02*
X150069863Y-71372332D01*
X150069863Y-71372332D02*
X150107959Y-71219951D01*
X150107959Y-71219951D02*
X150107959Y-71029475D01*
X150107959Y-71029475D02*
X150069863Y-70877094D01*
X150069863Y-70877094D02*
X150031768Y-70800903D01*
X150031768Y-70800903D02*
X149993673Y-70762808D01*
X149993673Y-70762808D02*
X149917482Y-70724713D01*
X148965101Y-70724713D02*
X149117482Y-70724713D01*
X149117482Y-70724713D02*
X149193673Y-70762808D01*
X149193673Y-70762808D02*
X149231768Y-70800903D01*
X149231768Y-70800903D02*
X149307958Y-70915189D01*
X149307958Y-70915189D02*
X149346054Y-71067570D01*
X149346054Y-71067570D02*
X149346054Y-71372332D01*
X149346054Y-71372332D02*
X149307958Y-71448522D01*
X149307958Y-71448522D02*
X149269863Y-71486618D01*
X149269863Y-71486618D02*
X149193673Y-71524713D01*
X149193673Y-71524713D02*
X149041292Y-71524713D01*
X149041292Y-71524713D02*
X148965101Y-71486618D01*
X148965101Y-71486618D02*
X148927006Y-71448522D01*
X148927006Y-71448522D02*
X148888911Y-71372332D01*
X148888911Y-71372332D02*
X148888911Y-71181856D01*
X148888911Y-71181856D02*
X148927006Y-71105665D01*
X148927006Y-71105665D02*
X148965101Y-71067570D01*
X148965101Y-71067570D02*
X149041292Y-71029475D01*
X149041292Y-71029475D02*
X149193673Y-71029475D01*
X149193673Y-71029475D02*
X149269863Y-71067570D01*
X149269863Y-71067570D02*
X149307958Y-71105665D01*
X149307958Y-71105665D02*
X149346054Y-71181856D01*
X150869863Y-63904712D02*
X150869863Y-63104712D01*
X150869863Y-63104712D02*
X150565101Y-63104712D01*
X150565101Y-63104712D02*
X150488911Y-63142807D01*
X150488911Y-63142807D02*
X150450816Y-63180902D01*
X150450816Y-63180902D02*
X150412720Y-63257093D01*
X150412720Y-63257093D02*
X150412720Y-63371378D01*
X150412720Y-63371378D02*
X150450816Y-63447569D01*
X150450816Y-63447569D02*
X150488911Y-63485664D01*
X150488911Y-63485664D02*
X150565101Y-63523759D01*
X150565101Y-63523759D02*
X150869863Y-63523759D01*
X149917482Y-63104712D02*
X149841292Y-63104712D01*
X149841292Y-63104712D02*
X149765101Y-63142807D01*
X149765101Y-63142807D02*
X149727006Y-63180902D01*
X149727006Y-63180902D02*
X149688911Y-63257093D01*
X149688911Y-63257093D02*
X149650816Y-63409474D01*
X149650816Y-63409474D02*
X149650816Y-63599950D01*
X149650816Y-63599950D02*
X149688911Y-63752331D01*
X149688911Y-63752331D02*
X149727006Y-63828521D01*
X149727006Y-63828521D02*
X149765101Y-63866617D01*
X149765101Y-63866617D02*
X149841292Y-63904712D01*
X149841292Y-63904712D02*
X149917482Y-63904712D01*
X149917482Y-63904712D02*
X149993673Y-63866617D01*
X149993673Y-63866617D02*
X150031768Y-63828521D01*
X150031768Y-63828521D02*
X150069863Y-63752331D01*
X150069863Y-63752331D02*
X150107959Y-63599950D01*
X150107959Y-63599950D02*
X150107959Y-63409474D01*
X150107959Y-63409474D02*
X150069863Y-63257093D01*
X150069863Y-63257093D02*
X150031768Y-63180902D01*
X150031768Y-63180902D02*
X149993673Y-63142807D01*
X149993673Y-63142807D02*
X149917482Y-63104712D01*
X148965101Y-63371378D02*
X148965101Y-63904712D01*
X149155577Y-63066617D02*
X149346054Y-63638045D01*
X149346054Y-63638045D02*
X148850815Y-63638045D01*
X150869863Y-66244713D02*
X150869863Y-65444713D01*
X150869863Y-65444713D02*
X150565101Y-65444713D01*
X150565101Y-65444713D02*
X150488911Y-65482808D01*
X150488911Y-65482808D02*
X150450816Y-65520903D01*
X150450816Y-65520903D02*
X150412720Y-65597094D01*
X150412720Y-65597094D02*
X150412720Y-65711379D01*
X150412720Y-65711379D02*
X150450816Y-65787570D01*
X150450816Y-65787570D02*
X150488911Y-65825665D01*
X150488911Y-65825665D02*
X150565101Y-65863760D01*
X150565101Y-65863760D02*
X150869863Y-65863760D01*
X149917482Y-65444713D02*
X149841292Y-65444713D01*
X149841292Y-65444713D02*
X149765101Y-65482808D01*
X149765101Y-65482808D02*
X149727006Y-65520903D01*
X149727006Y-65520903D02*
X149688911Y-65597094D01*
X149688911Y-65597094D02*
X149650816Y-65749475D01*
X149650816Y-65749475D02*
X149650816Y-65939951D01*
X149650816Y-65939951D02*
X149688911Y-66092332D01*
X149688911Y-66092332D02*
X149727006Y-66168522D01*
X149727006Y-66168522D02*
X149765101Y-66206618D01*
X149765101Y-66206618D02*
X149841292Y-66244713D01*
X149841292Y-66244713D02*
X149917482Y-66244713D01*
X149917482Y-66244713D02*
X149993673Y-66206618D01*
X149993673Y-66206618D02*
X150031768Y-66168522D01*
X150031768Y-66168522D02*
X150069863Y-66092332D01*
X150069863Y-66092332D02*
X150107959Y-65939951D01*
X150107959Y-65939951D02*
X150107959Y-65749475D01*
X150107959Y-65749475D02*
X150069863Y-65597094D01*
X150069863Y-65597094D02*
X150031768Y-65520903D01*
X150031768Y-65520903D02*
X149993673Y-65482808D01*
X149993673Y-65482808D02*
X149917482Y-65444713D01*
X148927006Y-65444713D02*
X149307958Y-65444713D01*
X149307958Y-65444713D02*
X149346054Y-65825665D01*
X149346054Y-65825665D02*
X149307958Y-65787570D01*
X149307958Y-65787570D02*
X149231768Y-65749475D01*
X149231768Y-65749475D02*
X149041292Y-65749475D01*
X149041292Y-65749475D02*
X148965101Y-65787570D01*
X148965101Y-65787570D02*
X148927006Y-65825665D01*
X148927006Y-65825665D02*
X148888911Y-65901856D01*
X148888911Y-65901856D02*
X148888911Y-66092332D01*
X148888911Y-66092332D02*
X148927006Y-66168522D01*
X148927006Y-66168522D02*
X148965101Y-66206618D01*
X148965101Y-66206618D02*
X149041292Y-66244713D01*
X149041292Y-66244713D02*
X149231768Y-66244713D01*
X149231768Y-66244713D02*
X149307958Y-66206618D01*
X149307958Y-66206618D02*
X149346054Y-66168522D01*
X150507958Y-55522808D02*
X150584148Y-55484713D01*
X150584148Y-55484713D02*
X150698434Y-55484713D01*
X150698434Y-55484713D02*
X150812720Y-55522808D01*
X150812720Y-55522808D02*
X150888910Y-55598998D01*
X150888910Y-55598998D02*
X150927005Y-55675189D01*
X150927005Y-55675189D02*
X150965101Y-55827570D01*
X150965101Y-55827570D02*
X150965101Y-55941856D01*
X150965101Y-55941856D02*
X150927005Y-56094237D01*
X150927005Y-56094237D02*
X150888910Y-56170427D01*
X150888910Y-56170427D02*
X150812720Y-56246618D01*
X150812720Y-56246618D02*
X150698434Y-56284713D01*
X150698434Y-56284713D02*
X150622243Y-56284713D01*
X150622243Y-56284713D02*
X150507958Y-56246618D01*
X150507958Y-56246618D02*
X150469862Y-56208522D01*
X150469862Y-56208522D02*
X150469862Y-55941856D01*
X150469862Y-55941856D02*
X150622243Y-55941856D01*
X150127005Y-56284713D02*
X150127005Y-55484713D01*
X150127005Y-55484713D02*
X149669862Y-56284713D01*
X149669862Y-56284713D02*
X149669862Y-55484713D01*
X149288910Y-56284713D02*
X149288910Y-55484713D01*
X149288910Y-55484713D02*
X149098434Y-55484713D01*
X149098434Y-55484713D02*
X148984148Y-55522808D01*
X148984148Y-55522808D02*
X148907958Y-55598998D01*
X148907958Y-55598998D02*
X148869863Y-55675189D01*
X148869863Y-55675189D02*
X148831767Y-55827570D01*
X148831767Y-55827570D02*
X148831767Y-55941856D01*
X148831767Y-55941856D02*
X148869863Y-56094237D01*
X148869863Y-56094237D02*
X148907958Y-56170427D01*
X148907958Y-56170427D02*
X148984148Y-56246618D01*
X148984148Y-56246618D02*
X149098434Y-56284713D01*
X149098434Y-56284713D02*
X149288910Y-56284713D01*
X164050816Y-58024713D02*
X163555578Y-58024713D01*
X163555578Y-58024713D02*
X163822244Y-58329475D01*
X163822244Y-58329475D02*
X163707959Y-58329475D01*
X163707959Y-58329475D02*
X163631768Y-58367570D01*
X163631768Y-58367570D02*
X163593673Y-58405665D01*
X163593673Y-58405665D02*
X163555578Y-58481856D01*
X163555578Y-58481856D02*
X163555578Y-58672332D01*
X163555578Y-58672332D02*
X163593673Y-58748522D01*
X163593673Y-58748522D02*
X163631768Y-58786618D01*
X163631768Y-58786618D02*
X163707959Y-58824713D01*
X163707959Y-58824713D02*
X163936530Y-58824713D01*
X163936530Y-58824713D02*
X164012721Y-58786618D01*
X164012721Y-58786618D02*
X164050816Y-58748522D01*
X163327006Y-58024713D02*
X163060339Y-58824713D01*
X163060339Y-58824713D02*
X162793673Y-58024713D01*
X162603197Y-58024713D02*
X162107959Y-58024713D01*
X162107959Y-58024713D02*
X162374625Y-58329475D01*
X162374625Y-58329475D02*
X162260340Y-58329475D01*
X162260340Y-58329475D02*
X162184149Y-58367570D01*
X162184149Y-58367570D02*
X162146054Y-58405665D01*
X162146054Y-58405665D02*
X162107959Y-58481856D01*
X162107959Y-58481856D02*
X162107959Y-58672332D01*
X162107959Y-58672332D02*
X162146054Y-58748522D01*
X162146054Y-58748522D02*
X162184149Y-58786618D01*
X162184149Y-58786618D02*
X162260340Y-58824713D01*
X162260340Y-58824713D02*
X162488911Y-58824713D01*
X162488911Y-58824713D02*
X162565102Y-58786618D01*
X162565102Y-58786618D02*
X162603197Y-58748522D01*
X161765101Y-58405665D02*
X161498435Y-58405665D01*
X161384149Y-58824713D02*
X161765101Y-58824713D01*
X161765101Y-58824713D02*
X161765101Y-58024713D01*
X161765101Y-58024713D02*
X161384149Y-58024713D01*
X164107958Y-60564713D02*
X163612720Y-60564713D01*
X163612720Y-60564713D02*
X163879386Y-60869475D01*
X163879386Y-60869475D02*
X163765101Y-60869475D01*
X163765101Y-60869475D02*
X163688910Y-60907570D01*
X163688910Y-60907570D02*
X163650815Y-60945665D01*
X163650815Y-60945665D02*
X163612720Y-61021856D01*
X163612720Y-61021856D02*
X163612720Y-61212332D01*
X163612720Y-61212332D02*
X163650815Y-61288522D01*
X163650815Y-61288522D02*
X163688910Y-61326618D01*
X163688910Y-61326618D02*
X163765101Y-61364713D01*
X163765101Y-61364713D02*
X163993672Y-61364713D01*
X163993672Y-61364713D02*
X164069863Y-61326618D01*
X164069863Y-61326618D02*
X164107958Y-61288522D01*
X163384148Y-60564713D02*
X163117481Y-61364713D01*
X163117481Y-61364713D02*
X162850815Y-60564713D01*
X162660339Y-60564713D02*
X162165101Y-60564713D01*
X162165101Y-60564713D02*
X162431767Y-60869475D01*
X162431767Y-60869475D02*
X162317482Y-60869475D01*
X162317482Y-60869475D02*
X162241291Y-60907570D01*
X162241291Y-60907570D02*
X162203196Y-60945665D01*
X162203196Y-60945665D02*
X162165101Y-61021856D01*
X162165101Y-61021856D02*
X162165101Y-61212332D01*
X162165101Y-61212332D02*
X162203196Y-61288522D01*
X162203196Y-61288522D02*
X162241291Y-61326618D01*
X162241291Y-61326618D02*
X162317482Y-61364713D01*
X162317482Y-61364713D02*
X162546053Y-61364713D01*
X162546053Y-61364713D02*
X162622244Y-61326618D01*
X162622244Y-61326618D02*
X162660339Y-61288522D01*
X161669862Y-60564713D02*
X161517481Y-60564713D01*
X161517481Y-60564713D02*
X161441291Y-60602808D01*
X161441291Y-60602808D02*
X161365100Y-60678998D01*
X161365100Y-60678998D02*
X161327005Y-60831379D01*
X161327005Y-60831379D02*
X161327005Y-61098046D01*
X161327005Y-61098046D02*
X161365100Y-61250427D01*
X161365100Y-61250427D02*
X161441291Y-61326618D01*
X161441291Y-61326618D02*
X161517481Y-61364713D01*
X161517481Y-61364713D02*
X161669862Y-61364713D01*
X161669862Y-61364713D02*
X161746053Y-61326618D01*
X161746053Y-61326618D02*
X161822243Y-61250427D01*
X161822243Y-61250427D02*
X161860339Y-61098046D01*
X161860339Y-61098046D02*
X161860339Y-60831379D01*
X161860339Y-60831379D02*
X161822243Y-60678998D01*
X161822243Y-60678998D02*
X161746053Y-60602808D01*
X161746053Y-60602808D02*
X161669862Y-60564713D01*
X150869863Y-89304713D02*
X150869863Y-88504713D01*
X150869863Y-88504713D02*
X150565101Y-88504713D01*
X150565101Y-88504713D02*
X150488911Y-88542808D01*
X150488911Y-88542808D02*
X150450816Y-88580903D01*
X150450816Y-88580903D02*
X150412720Y-88657094D01*
X150412720Y-88657094D02*
X150412720Y-88771379D01*
X150412720Y-88771379D02*
X150450816Y-88847570D01*
X150450816Y-88847570D02*
X150488911Y-88885665D01*
X150488911Y-88885665D02*
X150565101Y-88923760D01*
X150565101Y-88923760D02*
X150869863Y-88923760D01*
X149650816Y-89304713D02*
X150107959Y-89304713D01*
X149879387Y-89304713D02*
X149879387Y-88504713D01*
X149879387Y-88504713D02*
X149955578Y-88618998D01*
X149955578Y-88618998D02*
X150031768Y-88695189D01*
X150031768Y-88695189D02*
X150107959Y-88733284D01*
X149346054Y-88580903D02*
X149307958Y-88542808D01*
X149307958Y-88542808D02*
X149231768Y-88504713D01*
X149231768Y-88504713D02*
X149041292Y-88504713D01*
X149041292Y-88504713D02*
X148965101Y-88542808D01*
X148965101Y-88542808D02*
X148927006Y-88580903D01*
X148927006Y-88580903D02*
X148888911Y-88657094D01*
X148888911Y-88657094D02*
X148888911Y-88733284D01*
X148888911Y-88733284D02*
X148927006Y-88847570D01*
X148927006Y-88847570D02*
X149384149Y-89304713D01*
X149384149Y-89304713D02*
X148888911Y-89304713D01*
X163307958Y-80922808D02*
X163384148Y-80884713D01*
X163384148Y-80884713D02*
X163498434Y-80884713D01*
X163498434Y-80884713D02*
X163612720Y-80922808D01*
X163612720Y-80922808D02*
X163688910Y-80998998D01*
X163688910Y-80998998D02*
X163727005Y-81075189D01*
X163727005Y-81075189D02*
X163765101Y-81227570D01*
X163765101Y-81227570D02*
X163765101Y-81341856D01*
X163765101Y-81341856D02*
X163727005Y-81494237D01*
X163727005Y-81494237D02*
X163688910Y-81570427D01*
X163688910Y-81570427D02*
X163612720Y-81646618D01*
X163612720Y-81646618D02*
X163498434Y-81684713D01*
X163498434Y-81684713D02*
X163422243Y-81684713D01*
X163422243Y-81684713D02*
X163307958Y-81646618D01*
X163307958Y-81646618D02*
X163269862Y-81608522D01*
X163269862Y-81608522D02*
X163269862Y-81341856D01*
X163269862Y-81341856D02*
X163422243Y-81341856D01*
X162927005Y-81684713D02*
X162927005Y-80884713D01*
X162927005Y-80884713D02*
X162469862Y-81684713D01*
X162469862Y-81684713D02*
X162469862Y-80884713D01*
X162088910Y-81684713D02*
X162088910Y-80884713D01*
X162088910Y-80884713D02*
X161898434Y-80884713D01*
X161898434Y-80884713D02*
X161784148Y-80922808D01*
X161784148Y-80922808D02*
X161707958Y-80998998D01*
X161707958Y-80998998D02*
X161669863Y-81075189D01*
X161669863Y-81075189D02*
X161631767Y-81227570D01*
X161631767Y-81227570D02*
X161631767Y-81341856D01*
X161631767Y-81341856D02*
X161669863Y-81494237D01*
X161669863Y-81494237D02*
X161707958Y-81570427D01*
X161707958Y-81570427D02*
X161784148Y-81646618D01*
X161784148Y-81646618D02*
X161898434Y-81684713D01*
X161898434Y-81684713D02*
X162088910Y-81684713D01*
X158088910Y-96924713D02*
X158088910Y-96124713D01*
X158088910Y-96124713D02*
X157898434Y-96124713D01*
X157898434Y-96124713D02*
X157784148Y-96162808D01*
X157784148Y-96162808D02*
X157707958Y-96238998D01*
X157707958Y-96238998D02*
X157669863Y-96315189D01*
X157669863Y-96315189D02*
X157631767Y-96467570D01*
X157631767Y-96467570D02*
X157631767Y-96581856D01*
X157631767Y-96581856D02*
X157669863Y-96734237D01*
X157669863Y-96734237D02*
X157707958Y-96810427D01*
X157707958Y-96810427D02*
X157784148Y-96886618D01*
X157784148Y-96886618D02*
X157898434Y-96924713D01*
X157898434Y-96924713D02*
X158088910Y-96924713D01*
X157288910Y-96505665D02*
X157022244Y-96505665D01*
X156907958Y-96924713D02*
X157288910Y-96924713D01*
X157288910Y-96924713D02*
X157288910Y-96124713D01*
X157288910Y-96124713D02*
X156907958Y-96124713D01*
X156298434Y-96505665D02*
X156184148Y-96543760D01*
X156184148Y-96543760D02*
X156146053Y-96581856D01*
X156146053Y-96581856D02*
X156107957Y-96658046D01*
X156107957Y-96658046D02*
X156107957Y-96772332D01*
X156107957Y-96772332D02*
X156146053Y-96848522D01*
X156146053Y-96848522D02*
X156184148Y-96886618D01*
X156184148Y-96886618D02*
X156260338Y-96924713D01*
X156260338Y-96924713D02*
X156565100Y-96924713D01*
X156565100Y-96924713D02*
X156565100Y-96124713D01*
X156565100Y-96124713D02*
X156298434Y-96124713D01*
X156298434Y-96124713D02*
X156222243Y-96162808D01*
X156222243Y-96162808D02*
X156184148Y-96200903D01*
X156184148Y-96200903D02*
X156146053Y-96277094D01*
X156146053Y-96277094D02*
X156146053Y-96353284D01*
X156146053Y-96353284D02*
X156184148Y-96429475D01*
X156184148Y-96429475D02*
X156222243Y-96467570D01*
X156222243Y-96467570D02*
X156298434Y-96505665D01*
X156298434Y-96505665D02*
X156565100Y-96505665D01*
X155765100Y-96124713D02*
X155765100Y-96772332D01*
X155765100Y-96772332D02*
X155727005Y-96848522D01*
X155727005Y-96848522D02*
X155688910Y-96886618D01*
X155688910Y-96886618D02*
X155612719Y-96924713D01*
X155612719Y-96924713D02*
X155460338Y-96924713D01*
X155460338Y-96924713D02*
X155384148Y-96886618D01*
X155384148Y-96886618D02*
X155346053Y-96848522D01*
X155346053Y-96848522D02*
X155307957Y-96772332D01*
X155307957Y-96772332D02*
X155307957Y-96124713D01*
X154507958Y-96162808D02*
X154584148Y-96124713D01*
X154584148Y-96124713D02*
X154698434Y-96124713D01*
X154698434Y-96124713D02*
X154812720Y-96162808D01*
X154812720Y-96162808D02*
X154888910Y-96238998D01*
X154888910Y-96238998D02*
X154927005Y-96315189D01*
X154927005Y-96315189D02*
X154965101Y-96467570D01*
X154965101Y-96467570D02*
X154965101Y-96581856D01*
X154965101Y-96581856D02*
X154927005Y-96734237D01*
X154927005Y-96734237D02*
X154888910Y-96810427D01*
X154888910Y-96810427D02*
X154812720Y-96886618D01*
X154812720Y-96886618D02*
X154698434Y-96924713D01*
X154698434Y-96924713D02*
X154622243Y-96924713D01*
X154622243Y-96924713D02*
X154507958Y-96886618D01*
X154507958Y-96886618D02*
X154469862Y-96848522D01*
X154469862Y-96848522D02*
X154469862Y-96581856D01*
X154469862Y-96581856D02*
X154622243Y-96581856D01*
X163669863Y-66244713D02*
X163669863Y-65444713D01*
X163669863Y-65444713D02*
X163365101Y-65444713D01*
X163365101Y-65444713D02*
X163288911Y-65482808D01*
X163288911Y-65482808D02*
X163250816Y-65520903D01*
X163250816Y-65520903D02*
X163212720Y-65597094D01*
X163212720Y-65597094D02*
X163212720Y-65711379D01*
X163212720Y-65711379D02*
X163250816Y-65787570D01*
X163250816Y-65787570D02*
X163288911Y-65825665D01*
X163288911Y-65825665D02*
X163365101Y-65863760D01*
X163365101Y-65863760D02*
X163669863Y-65863760D01*
X162907959Y-65520903D02*
X162869863Y-65482808D01*
X162869863Y-65482808D02*
X162793673Y-65444713D01*
X162793673Y-65444713D02*
X162603197Y-65444713D01*
X162603197Y-65444713D02*
X162527006Y-65482808D01*
X162527006Y-65482808D02*
X162488911Y-65520903D01*
X162488911Y-65520903D02*
X162450816Y-65597094D01*
X162450816Y-65597094D02*
X162450816Y-65673284D01*
X162450816Y-65673284D02*
X162488911Y-65787570D01*
X162488911Y-65787570D02*
X162946054Y-66244713D01*
X162946054Y-66244713D02*
X162450816Y-66244713D01*
X161993673Y-65787570D02*
X162069863Y-65749475D01*
X162069863Y-65749475D02*
X162107958Y-65711379D01*
X162107958Y-65711379D02*
X162146054Y-65635189D01*
X162146054Y-65635189D02*
X162146054Y-65597094D01*
X162146054Y-65597094D02*
X162107958Y-65520903D01*
X162107958Y-65520903D02*
X162069863Y-65482808D01*
X162069863Y-65482808D02*
X161993673Y-65444713D01*
X161993673Y-65444713D02*
X161841292Y-65444713D01*
X161841292Y-65444713D02*
X161765101Y-65482808D01*
X161765101Y-65482808D02*
X161727006Y-65520903D01*
X161727006Y-65520903D02*
X161688911Y-65597094D01*
X161688911Y-65597094D02*
X161688911Y-65635189D01*
X161688911Y-65635189D02*
X161727006Y-65711379D01*
X161727006Y-65711379D02*
X161765101Y-65749475D01*
X161765101Y-65749475D02*
X161841292Y-65787570D01*
X161841292Y-65787570D02*
X161993673Y-65787570D01*
X161993673Y-65787570D02*
X162069863Y-65825665D01*
X162069863Y-65825665D02*
X162107958Y-65863760D01*
X162107958Y-65863760D02*
X162146054Y-65939951D01*
X162146054Y-65939951D02*
X162146054Y-66092332D01*
X162146054Y-66092332D02*
X162107958Y-66168522D01*
X162107958Y-66168522D02*
X162069863Y-66206618D01*
X162069863Y-66206618D02*
X161993673Y-66244713D01*
X161993673Y-66244713D02*
X161841292Y-66244713D01*
X161841292Y-66244713D02*
X161765101Y-66206618D01*
X161765101Y-66206618D02*
X161727006Y-66168522D01*
X161727006Y-66168522D02*
X161688911Y-66092332D01*
X161688911Y-66092332D02*
X161688911Y-65939951D01*
X161688911Y-65939951D02*
X161727006Y-65863760D01*
X161727006Y-65863760D02*
X161765101Y-65825665D01*
X161765101Y-65825665D02*
X161841292Y-65787570D01*
X154069863Y-96224713D02*
X154069863Y-95424713D01*
X154069863Y-95424713D02*
X153765101Y-95424713D01*
X153765101Y-95424713D02*
X153688911Y-95462808D01*
X153688911Y-95462808D02*
X153650816Y-95500903D01*
X153650816Y-95500903D02*
X153612720Y-95577094D01*
X153612720Y-95577094D02*
X153612720Y-95691379D01*
X153612720Y-95691379D02*
X153650816Y-95767570D01*
X153650816Y-95767570D02*
X153688911Y-95805665D01*
X153688911Y-95805665D02*
X153765101Y-95843760D01*
X153765101Y-95843760D02*
X154069863Y-95843760D01*
X152850816Y-96224713D02*
X153307959Y-96224713D01*
X153079387Y-96224713D02*
X153079387Y-95424713D01*
X153079387Y-95424713D02*
X153155578Y-95538998D01*
X153155578Y-95538998D02*
X153231768Y-95615189D01*
X153231768Y-95615189D02*
X153307959Y-95653284D01*
X152127006Y-95424713D02*
X152507958Y-95424713D01*
X152507958Y-95424713D02*
X152546054Y-95805665D01*
X152546054Y-95805665D02*
X152507958Y-95767570D01*
X152507958Y-95767570D02*
X152431768Y-95729475D01*
X152431768Y-95729475D02*
X152241292Y-95729475D01*
X152241292Y-95729475D02*
X152165101Y-95767570D01*
X152165101Y-95767570D02*
X152127006Y-95805665D01*
X152127006Y-95805665D02*
X152088911Y-95881856D01*
X152088911Y-95881856D02*
X152088911Y-96072332D01*
X152088911Y-96072332D02*
X152127006Y-96148522D01*
X152127006Y-96148522D02*
X152165101Y-96186618D01*
X152165101Y-96186618D02*
X152241292Y-96224713D01*
X152241292Y-96224713D02*
X152431768Y-96224713D01*
X152431768Y-96224713D02*
X152507958Y-96186618D01*
X152507958Y-96186618D02*
X152546054Y-96148522D01*
X163669863Y-74064712D02*
X163669863Y-73264712D01*
X163669863Y-73264712D02*
X163365101Y-73264712D01*
X163365101Y-73264712D02*
X163288911Y-73302807D01*
X163288911Y-73302807D02*
X163250816Y-73340902D01*
X163250816Y-73340902D02*
X163212720Y-73417093D01*
X163212720Y-73417093D02*
X163212720Y-73531378D01*
X163212720Y-73531378D02*
X163250816Y-73607569D01*
X163250816Y-73607569D02*
X163288911Y-73645664D01*
X163288911Y-73645664D02*
X163365101Y-73683759D01*
X163365101Y-73683759D02*
X163669863Y-73683759D01*
X162907959Y-73340902D02*
X162869863Y-73302807D01*
X162869863Y-73302807D02*
X162793673Y-73264712D01*
X162793673Y-73264712D02*
X162603197Y-73264712D01*
X162603197Y-73264712D02*
X162527006Y-73302807D01*
X162527006Y-73302807D02*
X162488911Y-73340902D01*
X162488911Y-73340902D02*
X162450816Y-73417093D01*
X162450816Y-73417093D02*
X162450816Y-73493283D01*
X162450816Y-73493283D02*
X162488911Y-73607569D01*
X162488911Y-73607569D02*
X162946054Y-74064712D01*
X162946054Y-74064712D02*
X162450816Y-74064712D01*
X161765101Y-73264712D02*
X161917482Y-73264712D01*
X161917482Y-73264712D02*
X161993673Y-73302807D01*
X161993673Y-73302807D02*
X162031768Y-73340902D01*
X162031768Y-73340902D02*
X162107958Y-73455188D01*
X162107958Y-73455188D02*
X162146054Y-73607569D01*
X162146054Y-73607569D02*
X162146054Y-73912331D01*
X162146054Y-73912331D02*
X162107958Y-73988521D01*
X162107958Y-73988521D02*
X162069863Y-74026617D01*
X162069863Y-74026617D02*
X161993673Y-74064712D01*
X161993673Y-74064712D02*
X161841292Y-74064712D01*
X161841292Y-74064712D02*
X161765101Y-74026617D01*
X161765101Y-74026617D02*
X161727006Y-73988521D01*
X161727006Y-73988521D02*
X161688911Y-73912331D01*
X161688911Y-73912331D02*
X161688911Y-73721855D01*
X161688911Y-73721855D02*
X161727006Y-73645664D01*
X161727006Y-73645664D02*
X161765101Y-73607569D01*
X161765101Y-73607569D02*
X161841292Y-73569474D01*
X161841292Y-73569474D02*
X161993673Y-73569474D01*
X161993673Y-73569474D02*
X162069863Y-73607569D01*
X162069863Y-73607569D02*
X162107958Y-73645664D01*
X162107958Y-73645664D02*
X162146054Y-73721855D01*
X163307958Y-68222808D02*
X163384148Y-68184713D01*
X163384148Y-68184713D02*
X163498434Y-68184713D01*
X163498434Y-68184713D02*
X163612720Y-68222808D01*
X163612720Y-68222808D02*
X163688910Y-68298998D01*
X163688910Y-68298998D02*
X163727005Y-68375189D01*
X163727005Y-68375189D02*
X163765101Y-68527570D01*
X163765101Y-68527570D02*
X163765101Y-68641856D01*
X163765101Y-68641856D02*
X163727005Y-68794237D01*
X163727005Y-68794237D02*
X163688910Y-68870427D01*
X163688910Y-68870427D02*
X163612720Y-68946618D01*
X163612720Y-68946618D02*
X163498434Y-68984713D01*
X163498434Y-68984713D02*
X163422243Y-68984713D01*
X163422243Y-68984713D02*
X163307958Y-68946618D01*
X163307958Y-68946618D02*
X163269862Y-68908522D01*
X163269862Y-68908522D02*
X163269862Y-68641856D01*
X163269862Y-68641856D02*
X163422243Y-68641856D01*
X162927005Y-68984713D02*
X162927005Y-68184713D01*
X162927005Y-68184713D02*
X162469862Y-68984713D01*
X162469862Y-68984713D02*
X162469862Y-68184713D01*
X162088910Y-68984713D02*
X162088910Y-68184713D01*
X162088910Y-68184713D02*
X161898434Y-68184713D01*
X161898434Y-68184713D02*
X161784148Y-68222808D01*
X161784148Y-68222808D02*
X161707958Y-68298998D01*
X161707958Y-68298998D02*
X161669863Y-68375189D01*
X161669863Y-68375189D02*
X161631767Y-68527570D01*
X161631767Y-68527570D02*
X161631767Y-68641856D01*
X161631767Y-68641856D02*
X161669863Y-68794237D01*
X161669863Y-68794237D02*
X161707958Y-68870427D01*
X161707958Y-68870427D02*
X161784148Y-68946618D01*
X161784148Y-68946618D02*
X161898434Y-68984713D01*
X161898434Y-68984713D02*
X162088910Y-68984713D01*
X150507958Y-93622808D02*
X150584148Y-93584713D01*
X150584148Y-93584713D02*
X150698434Y-93584713D01*
X150698434Y-93584713D02*
X150812720Y-93622808D01*
X150812720Y-93622808D02*
X150888910Y-93698998D01*
X150888910Y-93698998D02*
X150927005Y-93775189D01*
X150927005Y-93775189D02*
X150965101Y-93927570D01*
X150965101Y-93927570D02*
X150965101Y-94041856D01*
X150965101Y-94041856D02*
X150927005Y-94194237D01*
X150927005Y-94194237D02*
X150888910Y-94270427D01*
X150888910Y-94270427D02*
X150812720Y-94346618D01*
X150812720Y-94346618D02*
X150698434Y-94384713D01*
X150698434Y-94384713D02*
X150622243Y-94384713D01*
X150622243Y-94384713D02*
X150507958Y-94346618D01*
X150507958Y-94346618D02*
X150469862Y-94308522D01*
X150469862Y-94308522D02*
X150469862Y-94041856D01*
X150469862Y-94041856D02*
X150622243Y-94041856D01*
X150127005Y-94384713D02*
X150127005Y-93584713D01*
X150127005Y-93584713D02*
X149669862Y-94384713D01*
X149669862Y-94384713D02*
X149669862Y-93584713D01*
X149288910Y-94384713D02*
X149288910Y-93584713D01*
X149288910Y-93584713D02*
X149098434Y-93584713D01*
X149098434Y-93584713D02*
X148984148Y-93622808D01*
X148984148Y-93622808D02*
X148907958Y-93698998D01*
X148907958Y-93698998D02*
X148869863Y-93775189D01*
X148869863Y-93775189D02*
X148831767Y-93927570D01*
X148831767Y-93927570D02*
X148831767Y-94041856D01*
X148831767Y-94041856D02*
X148869863Y-94194237D01*
X148869863Y-94194237D02*
X148907958Y-94270427D01*
X148907958Y-94270427D02*
X148984148Y-94346618D01*
X148984148Y-94346618D02*
X149098434Y-94384713D01*
X149098434Y-94384713D02*
X149288910Y-94384713D01*
X150869863Y-54444712D02*
X150869863Y-53644712D01*
X150869863Y-53644712D02*
X150565101Y-53644712D01*
X150565101Y-53644712D02*
X150488911Y-53682807D01*
X150488911Y-53682807D02*
X150450816Y-53720902D01*
X150450816Y-53720902D02*
X150412720Y-53797093D01*
X150412720Y-53797093D02*
X150412720Y-53911378D01*
X150412720Y-53911378D02*
X150450816Y-53987569D01*
X150450816Y-53987569D02*
X150488911Y-54025664D01*
X150488911Y-54025664D02*
X150565101Y-54063759D01*
X150565101Y-54063759D02*
X150869863Y-54063759D01*
X149917482Y-53644712D02*
X149841292Y-53644712D01*
X149841292Y-53644712D02*
X149765101Y-53682807D01*
X149765101Y-53682807D02*
X149727006Y-53720902D01*
X149727006Y-53720902D02*
X149688911Y-53797093D01*
X149688911Y-53797093D02*
X149650816Y-53949474D01*
X149650816Y-53949474D02*
X149650816Y-54139950D01*
X149650816Y-54139950D02*
X149688911Y-54292331D01*
X149688911Y-54292331D02*
X149727006Y-54368521D01*
X149727006Y-54368521D02*
X149765101Y-54406617D01*
X149765101Y-54406617D02*
X149841292Y-54444712D01*
X149841292Y-54444712D02*
X149917482Y-54444712D01*
X149917482Y-54444712D02*
X149993673Y-54406617D01*
X149993673Y-54406617D02*
X150031768Y-54368521D01*
X150031768Y-54368521D02*
X150069863Y-54292331D01*
X150069863Y-54292331D02*
X150107959Y-54139950D01*
X150107959Y-54139950D02*
X150107959Y-53949474D01*
X150107959Y-53949474D02*
X150069863Y-53797093D01*
X150069863Y-53797093D02*
X150031768Y-53720902D01*
X150031768Y-53720902D02*
X149993673Y-53682807D01*
X149993673Y-53682807D02*
X149917482Y-53644712D01*
X148888911Y-54444712D02*
X149346054Y-54444712D01*
X149117482Y-54444712D02*
X149117482Y-53644712D01*
X149117482Y-53644712D02*
X149193673Y-53758997D01*
X149193673Y-53758997D02*
X149269863Y-53835188D01*
X149269863Y-53835188D02*
X149346054Y-53873283D01*
X150869863Y-61364713D02*
X150869863Y-60564713D01*
X150869863Y-60564713D02*
X150565101Y-60564713D01*
X150565101Y-60564713D02*
X150488911Y-60602808D01*
X150488911Y-60602808D02*
X150450816Y-60640903D01*
X150450816Y-60640903D02*
X150412720Y-60717094D01*
X150412720Y-60717094D02*
X150412720Y-60831379D01*
X150412720Y-60831379D02*
X150450816Y-60907570D01*
X150450816Y-60907570D02*
X150488911Y-60945665D01*
X150488911Y-60945665D02*
X150565101Y-60983760D01*
X150565101Y-60983760D02*
X150869863Y-60983760D01*
X149917482Y-60564713D02*
X149841292Y-60564713D01*
X149841292Y-60564713D02*
X149765101Y-60602808D01*
X149765101Y-60602808D02*
X149727006Y-60640903D01*
X149727006Y-60640903D02*
X149688911Y-60717094D01*
X149688911Y-60717094D02*
X149650816Y-60869475D01*
X149650816Y-60869475D02*
X149650816Y-61059951D01*
X149650816Y-61059951D02*
X149688911Y-61212332D01*
X149688911Y-61212332D02*
X149727006Y-61288522D01*
X149727006Y-61288522D02*
X149765101Y-61326618D01*
X149765101Y-61326618D02*
X149841292Y-61364713D01*
X149841292Y-61364713D02*
X149917482Y-61364713D01*
X149917482Y-61364713D02*
X149993673Y-61326618D01*
X149993673Y-61326618D02*
X150031768Y-61288522D01*
X150031768Y-61288522D02*
X150069863Y-61212332D01*
X150069863Y-61212332D02*
X150107959Y-61059951D01*
X150107959Y-61059951D02*
X150107959Y-60869475D01*
X150107959Y-60869475D02*
X150069863Y-60717094D01*
X150069863Y-60717094D02*
X150031768Y-60640903D01*
X150031768Y-60640903D02*
X149993673Y-60602808D01*
X149993673Y-60602808D02*
X149917482Y-60564713D01*
X149384149Y-60564713D02*
X148888911Y-60564713D01*
X148888911Y-60564713D02*
X149155577Y-60869475D01*
X149155577Y-60869475D02*
X149041292Y-60869475D01*
X149041292Y-60869475D02*
X148965101Y-60907570D01*
X148965101Y-60907570D02*
X148927006Y-60945665D01*
X148927006Y-60945665D02*
X148888911Y-61021856D01*
X148888911Y-61021856D02*
X148888911Y-61212332D01*
X148888911Y-61212332D02*
X148927006Y-61288522D01*
X148927006Y-61288522D02*
X148965101Y-61326618D01*
X148965101Y-61326618D02*
X149041292Y-61364713D01*
X149041292Y-61364713D02*
X149269863Y-61364713D01*
X149269863Y-61364713D02*
X149346054Y-61326618D01*
X149346054Y-61326618D02*
X149384149Y-61288522D01*
X160965101Y-53644713D02*
X160698434Y-54444713D01*
X160698434Y-54444713D02*
X160431768Y-53644713D01*
X159898435Y-54025665D02*
X159784149Y-54063760D01*
X159784149Y-54063760D02*
X159746054Y-54101856D01*
X159746054Y-54101856D02*
X159707958Y-54178046D01*
X159707958Y-54178046D02*
X159707958Y-54292332D01*
X159707958Y-54292332D02*
X159746054Y-54368522D01*
X159746054Y-54368522D02*
X159784149Y-54406618D01*
X159784149Y-54406618D02*
X159860339Y-54444713D01*
X159860339Y-54444713D02*
X160165101Y-54444713D01*
X160165101Y-54444713D02*
X160165101Y-53644713D01*
X160165101Y-53644713D02*
X159898435Y-53644713D01*
X159898435Y-53644713D02*
X159822244Y-53682808D01*
X159822244Y-53682808D02*
X159784149Y-53720903D01*
X159784149Y-53720903D02*
X159746054Y-53797094D01*
X159746054Y-53797094D02*
X159746054Y-53873284D01*
X159746054Y-53873284D02*
X159784149Y-53949475D01*
X159784149Y-53949475D02*
X159822244Y-53987570D01*
X159822244Y-53987570D02*
X159898435Y-54025665D01*
X159898435Y-54025665D02*
X160165101Y-54025665D01*
X159365101Y-53644713D02*
X159365101Y-54292332D01*
X159365101Y-54292332D02*
X159327006Y-54368522D01*
X159327006Y-54368522D02*
X159288911Y-54406618D01*
X159288911Y-54406618D02*
X159212720Y-54444713D01*
X159212720Y-54444713D02*
X159060339Y-54444713D01*
X159060339Y-54444713D02*
X158984149Y-54406618D01*
X158984149Y-54406618D02*
X158946054Y-54368522D01*
X158946054Y-54368522D02*
X158907958Y-54292332D01*
X158907958Y-54292332D02*
X158907958Y-53644713D01*
X158565102Y-54406618D02*
X158450816Y-54444713D01*
X158450816Y-54444713D02*
X158260340Y-54444713D01*
X158260340Y-54444713D02*
X158184149Y-54406618D01*
X158184149Y-54406618D02*
X158146054Y-54368522D01*
X158146054Y-54368522D02*
X158107959Y-54292332D01*
X158107959Y-54292332D02*
X158107959Y-54216141D01*
X158107959Y-54216141D02*
X158146054Y-54139951D01*
X158146054Y-54139951D02*
X158184149Y-54101856D01*
X158184149Y-54101856D02*
X158260340Y-54063760D01*
X158260340Y-54063760D02*
X158412721Y-54025665D01*
X158412721Y-54025665D02*
X158488911Y-53987570D01*
X158488911Y-53987570D02*
X158527006Y-53949475D01*
X158527006Y-53949475D02*
X158565102Y-53873284D01*
X158565102Y-53873284D02*
X158565102Y-53797094D01*
X158565102Y-53797094D02*
X158527006Y-53720903D01*
X158527006Y-53720903D02*
X158488911Y-53682808D01*
X158488911Y-53682808D02*
X158412721Y-53644713D01*
X158412721Y-53644713D02*
X158222244Y-53644713D01*
X158222244Y-53644713D02*
X158107959Y-53682808D01*
X163669863Y-89304713D02*
X163669863Y-88504713D01*
X163669863Y-88504713D02*
X163365101Y-88504713D01*
X163365101Y-88504713D02*
X163288911Y-88542808D01*
X163288911Y-88542808D02*
X163250816Y-88580903D01*
X163250816Y-88580903D02*
X163212720Y-88657094D01*
X163212720Y-88657094D02*
X163212720Y-88771379D01*
X163212720Y-88771379D02*
X163250816Y-88847570D01*
X163250816Y-88847570D02*
X163288911Y-88885665D01*
X163288911Y-88885665D02*
X163365101Y-88923760D01*
X163365101Y-88923760D02*
X163669863Y-88923760D01*
X162450816Y-89304713D02*
X162907959Y-89304713D01*
X162679387Y-89304713D02*
X162679387Y-88504713D01*
X162679387Y-88504713D02*
X162755578Y-88618998D01*
X162755578Y-88618998D02*
X162831768Y-88695189D01*
X162831768Y-88695189D02*
X162907959Y-88733284D01*
X162069863Y-89304713D02*
X161917482Y-89304713D01*
X161917482Y-89304713D02*
X161841292Y-89266618D01*
X161841292Y-89266618D02*
X161803196Y-89228522D01*
X161803196Y-89228522D02*
X161727006Y-89114237D01*
X161727006Y-89114237D02*
X161688911Y-88961856D01*
X161688911Y-88961856D02*
X161688911Y-88657094D01*
X161688911Y-88657094D02*
X161727006Y-88580903D01*
X161727006Y-88580903D02*
X161765101Y-88542808D01*
X161765101Y-88542808D02*
X161841292Y-88504713D01*
X161841292Y-88504713D02*
X161993673Y-88504713D01*
X161993673Y-88504713D02*
X162069863Y-88542808D01*
X162069863Y-88542808D02*
X162107958Y-88580903D01*
X162107958Y-88580903D02*
X162146054Y-88657094D01*
X162146054Y-88657094D02*
X162146054Y-88847570D01*
X162146054Y-88847570D02*
X162107958Y-88923760D01*
X162107958Y-88923760D02*
X162069863Y-88961856D01*
X162069863Y-88961856D02*
X161993673Y-88999951D01*
X161993673Y-88999951D02*
X161841292Y-88999951D01*
X161841292Y-88999951D02*
X161765101Y-88961856D01*
X161765101Y-88961856D02*
X161727006Y-88923760D01*
X161727006Y-88923760D02*
X161688911Y-88847570D01*
X150507958Y-68222808D02*
X150584148Y-68184713D01*
X150584148Y-68184713D02*
X150698434Y-68184713D01*
X150698434Y-68184713D02*
X150812720Y-68222808D01*
X150812720Y-68222808D02*
X150888910Y-68298998D01*
X150888910Y-68298998D02*
X150927005Y-68375189D01*
X150927005Y-68375189D02*
X150965101Y-68527570D01*
X150965101Y-68527570D02*
X150965101Y-68641856D01*
X150965101Y-68641856D02*
X150927005Y-68794237D01*
X150927005Y-68794237D02*
X150888910Y-68870427D01*
X150888910Y-68870427D02*
X150812720Y-68946618D01*
X150812720Y-68946618D02*
X150698434Y-68984713D01*
X150698434Y-68984713D02*
X150622243Y-68984713D01*
X150622243Y-68984713D02*
X150507958Y-68946618D01*
X150507958Y-68946618D02*
X150469862Y-68908522D01*
X150469862Y-68908522D02*
X150469862Y-68641856D01*
X150469862Y-68641856D02*
X150622243Y-68641856D01*
X150127005Y-68984713D02*
X150127005Y-68184713D01*
X150127005Y-68184713D02*
X149669862Y-68984713D01*
X149669862Y-68984713D02*
X149669862Y-68184713D01*
X149288910Y-68984713D02*
X149288910Y-68184713D01*
X149288910Y-68184713D02*
X149098434Y-68184713D01*
X149098434Y-68184713D02*
X148984148Y-68222808D01*
X148984148Y-68222808D02*
X148907958Y-68298998D01*
X148907958Y-68298998D02*
X148869863Y-68375189D01*
X148869863Y-68375189D02*
X148831767Y-68527570D01*
X148831767Y-68527570D02*
X148831767Y-68641856D01*
X148831767Y-68641856D02*
X148869863Y-68794237D01*
X148869863Y-68794237D02*
X148907958Y-68870427D01*
X148907958Y-68870427D02*
X148984148Y-68946618D01*
X148984148Y-68946618D02*
X149098434Y-68984713D01*
X149098434Y-68984713D02*
X149288910Y-68984713D01*
X150869863Y-84224713D02*
X150869863Y-83424713D01*
X150869863Y-83424713D02*
X150565101Y-83424713D01*
X150565101Y-83424713D02*
X150488911Y-83462808D01*
X150488911Y-83462808D02*
X150450816Y-83500903D01*
X150450816Y-83500903D02*
X150412720Y-83577094D01*
X150412720Y-83577094D02*
X150412720Y-83691379D01*
X150412720Y-83691379D02*
X150450816Y-83767570D01*
X150450816Y-83767570D02*
X150488911Y-83805665D01*
X150488911Y-83805665D02*
X150565101Y-83843760D01*
X150565101Y-83843760D02*
X150869863Y-83843760D01*
X149650816Y-84224713D02*
X150107959Y-84224713D01*
X149879387Y-84224713D02*
X149879387Y-83424713D01*
X149879387Y-83424713D02*
X149955578Y-83538998D01*
X149955578Y-83538998D02*
X150031768Y-83615189D01*
X150031768Y-83615189D02*
X150107959Y-83653284D01*
X149155577Y-83424713D02*
X149079387Y-83424713D01*
X149079387Y-83424713D02*
X149003196Y-83462808D01*
X149003196Y-83462808D02*
X148965101Y-83500903D01*
X148965101Y-83500903D02*
X148927006Y-83577094D01*
X148927006Y-83577094D02*
X148888911Y-83729475D01*
X148888911Y-83729475D02*
X148888911Y-83919951D01*
X148888911Y-83919951D02*
X148927006Y-84072332D01*
X148927006Y-84072332D02*
X148965101Y-84148522D01*
X148965101Y-84148522D02*
X149003196Y-84186618D01*
X149003196Y-84186618D02*
X149079387Y-84224713D01*
X149079387Y-84224713D02*
X149155577Y-84224713D01*
X149155577Y-84224713D02*
X149231768Y-84186618D01*
X149231768Y-84186618D02*
X149269863Y-84148522D01*
X149269863Y-84148522D02*
X149307958Y-84072332D01*
X149307958Y-84072332D02*
X149346054Y-83919951D01*
X149346054Y-83919951D02*
X149346054Y-83729475D01*
X149346054Y-83729475D02*
X149307958Y-83577094D01*
X149307958Y-83577094D02*
X149269863Y-83500903D01*
X149269863Y-83500903D02*
X149231768Y-83462808D01*
X149231768Y-83462808D02*
X149155577Y-83424713D01*
X164031768Y-63676140D02*
X163650815Y-63676140D01*
X164107958Y-63904712D02*
X163841291Y-63104712D01*
X163841291Y-63104712D02*
X163574625Y-63904712D01*
X163307958Y-63904712D02*
X163307958Y-63104712D01*
X163307958Y-63104712D02*
X163117482Y-63104712D01*
X163117482Y-63104712D02*
X163003196Y-63142807D01*
X163003196Y-63142807D02*
X162927006Y-63218997D01*
X162927006Y-63218997D02*
X162888911Y-63295188D01*
X162888911Y-63295188D02*
X162850815Y-63447569D01*
X162850815Y-63447569D02*
X162850815Y-63561855D01*
X162850815Y-63561855D02*
X162888911Y-63714236D01*
X162888911Y-63714236D02*
X162927006Y-63790426D01*
X162927006Y-63790426D02*
X163003196Y-63866617D01*
X163003196Y-63866617D02*
X163117482Y-63904712D01*
X163117482Y-63904712D02*
X163307958Y-63904712D01*
X162050815Y-63828521D02*
X162088911Y-63866617D01*
X162088911Y-63866617D02*
X162203196Y-63904712D01*
X162203196Y-63904712D02*
X162279387Y-63904712D01*
X162279387Y-63904712D02*
X162393673Y-63866617D01*
X162393673Y-63866617D02*
X162469863Y-63790426D01*
X162469863Y-63790426D02*
X162507958Y-63714236D01*
X162507958Y-63714236D02*
X162546054Y-63561855D01*
X162546054Y-63561855D02*
X162546054Y-63447569D01*
X162546054Y-63447569D02*
X162507958Y-63295188D01*
X162507958Y-63295188D02*
X162469863Y-63218997D01*
X162469863Y-63218997D02*
X162393673Y-63142807D01*
X162393673Y-63142807D02*
X162279387Y-63104712D01*
X162279387Y-63104712D02*
X162203196Y-63104712D01*
X162203196Y-63104712D02*
X162088911Y-63142807D01*
X162088911Y-63142807D02*
X162050815Y-63180902D01*
X161822244Y-63104712D02*
X161555577Y-63904712D01*
X161555577Y-63904712D02*
X161288911Y-63104712D01*
X154069863Y-54444713D02*
X154069863Y-53644713D01*
X154069863Y-53644713D02*
X153765101Y-53644713D01*
X153765101Y-53644713D02*
X153688911Y-53682808D01*
X153688911Y-53682808D02*
X153650816Y-53720903D01*
X153650816Y-53720903D02*
X153612720Y-53797094D01*
X153612720Y-53797094D02*
X153612720Y-53911379D01*
X153612720Y-53911379D02*
X153650816Y-53987570D01*
X153650816Y-53987570D02*
X153688911Y-54025665D01*
X153688911Y-54025665D02*
X153765101Y-54063760D01*
X153765101Y-54063760D02*
X154069863Y-54063760D01*
X153117482Y-53644713D02*
X153041292Y-53644713D01*
X153041292Y-53644713D02*
X152965101Y-53682808D01*
X152965101Y-53682808D02*
X152927006Y-53720903D01*
X152927006Y-53720903D02*
X152888911Y-53797094D01*
X152888911Y-53797094D02*
X152850816Y-53949475D01*
X152850816Y-53949475D02*
X152850816Y-54139951D01*
X152850816Y-54139951D02*
X152888911Y-54292332D01*
X152888911Y-54292332D02*
X152927006Y-54368522D01*
X152927006Y-54368522D02*
X152965101Y-54406618D01*
X152965101Y-54406618D02*
X153041292Y-54444713D01*
X153041292Y-54444713D02*
X153117482Y-54444713D01*
X153117482Y-54444713D02*
X153193673Y-54406618D01*
X153193673Y-54406618D02*
X153231768Y-54368522D01*
X153231768Y-54368522D02*
X153269863Y-54292332D01*
X153269863Y-54292332D02*
X153307959Y-54139951D01*
X153307959Y-54139951D02*
X153307959Y-53949475D01*
X153307959Y-53949475D02*
X153269863Y-53797094D01*
X153269863Y-53797094D02*
X153231768Y-53720903D01*
X153231768Y-53720903D02*
X153193673Y-53682808D01*
X153193673Y-53682808D02*
X153117482Y-53644713D01*
X152355577Y-53644713D02*
X152279387Y-53644713D01*
X152279387Y-53644713D02*
X152203196Y-53682808D01*
X152203196Y-53682808D02*
X152165101Y-53720903D01*
X152165101Y-53720903D02*
X152127006Y-53797094D01*
X152127006Y-53797094D02*
X152088911Y-53949475D01*
X152088911Y-53949475D02*
X152088911Y-54139951D01*
X152088911Y-54139951D02*
X152127006Y-54292332D01*
X152127006Y-54292332D02*
X152165101Y-54368522D01*
X152165101Y-54368522D02*
X152203196Y-54406618D01*
X152203196Y-54406618D02*
X152279387Y-54444713D01*
X152279387Y-54444713D02*
X152355577Y-54444713D01*
X152355577Y-54444713D02*
X152431768Y-54406618D01*
X152431768Y-54406618D02*
X152469863Y-54368522D01*
X152469863Y-54368522D02*
X152507958Y-54292332D01*
X152507958Y-54292332D02*
X152546054Y-54139951D01*
X152546054Y-54139951D02*
X152546054Y-53949475D01*
X152546054Y-53949475D02*
X152507958Y-53797094D01*
X152507958Y-53797094D02*
X152469863Y-53720903D01*
X152469863Y-53720903D02*
X152431768Y-53682808D01*
X152431768Y-53682808D02*
X152355577Y-53644713D01*
X163669863Y-91844713D02*
X163669863Y-91044713D01*
X163669863Y-91044713D02*
X163365101Y-91044713D01*
X163365101Y-91044713D02*
X163288911Y-91082808D01*
X163288911Y-91082808D02*
X163250816Y-91120903D01*
X163250816Y-91120903D02*
X163212720Y-91197094D01*
X163212720Y-91197094D02*
X163212720Y-91311379D01*
X163212720Y-91311379D02*
X163250816Y-91387570D01*
X163250816Y-91387570D02*
X163288911Y-91425665D01*
X163288911Y-91425665D02*
X163365101Y-91463760D01*
X163365101Y-91463760D02*
X163669863Y-91463760D01*
X162450816Y-91844713D02*
X162907959Y-91844713D01*
X162679387Y-91844713D02*
X162679387Y-91044713D01*
X162679387Y-91044713D02*
X162755578Y-91158998D01*
X162755578Y-91158998D02*
X162831768Y-91235189D01*
X162831768Y-91235189D02*
X162907959Y-91273284D01*
X161993673Y-91387570D02*
X162069863Y-91349475D01*
X162069863Y-91349475D02*
X162107958Y-91311379D01*
X162107958Y-91311379D02*
X162146054Y-91235189D01*
X162146054Y-91235189D02*
X162146054Y-91197094D01*
X162146054Y-91197094D02*
X162107958Y-91120903D01*
X162107958Y-91120903D02*
X162069863Y-91082808D01*
X162069863Y-91082808D02*
X161993673Y-91044713D01*
X161993673Y-91044713D02*
X161841292Y-91044713D01*
X161841292Y-91044713D02*
X161765101Y-91082808D01*
X161765101Y-91082808D02*
X161727006Y-91120903D01*
X161727006Y-91120903D02*
X161688911Y-91197094D01*
X161688911Y-91197094D02*
X161688911Y-91235189D01*
X161688911Y-91235189D02*
X161727006Y-91311379D01*
X161727006Y-91311379D02*
X161765101Y-91349475D01*
X161765101Y-91349475D02*
X161841292Y-91387570D01*
X161841292Y-91387570D02*
X161993673Y-91387570D01*
X161993673Y-91387570D02*
X162069863Y-91425665D01*
X162069863Y-91425665D02*
X162107958Y-91463760D01*
X162107958Y-91463760D02*
X162146054Y-91539951D01*
X162146054Y-91539951D02*
X162146054Y-91692332D01*
X162146054Y-91692332D02*
X162107958Y-91768522D01*
X162107958Y-91768522D02*
X162069863Y-91806618D01*
X162069863Y-91806618D02*
X161993673Y-91844713D01*
X161993673Y-91844713D02*
X161841292Y-91844713D01*
X161841292Y-91844713D02*
X161765101Y-91806618D01*
X161765101Y-91806618D02*
X161727006Y-91768522D01*
X161727006Y-91768522D02*
X161688911Y-91692332D01*
X161688911Y-91692332D02*
X161688911Y-91539951D01*
X161688911Y-91539951D02*
X161727006Y-91463760D01*
X161727006Y-91463760D02*
X161765101Y-91425665D01*
X161765101Y-91425665D02*
X161841292Y-91387570D01*
X150869863Y-74064712D02*
X150869863Y-73264712D01*
X150869863Y-73264712D02*
X150565101Y-73264712D01*
X150565101Y-73264712D02*
X150488911Y-73302807D01*
X150488911Y-73302807D02*
X150450816Y-73340902D01*
X150450816Y-73340902D02*
X150412720Y-73417093D01*
X150412720Y-73417093D02*
X150412720Y-73531378D01*
X150412720Y-73531378D02*
X150450816Y-73607569D01*
X150450816Y-73607569D02*
X150488911Y-73645664D01*
X150488911Y-73645664D02*
X150565101Y-73683759D01*
X150565101Y-73683759D02*
X150869863Y-73683759D01*
X149917482Y-73264712D02*
X149841292Y-73264712D01*
X149841292Y-73264712D02*
X149765101Y-73302807D01*
X149765101Y-73302807D02*
X149727006Y-73340902D01*
X149727006Y-73340902D02*
X149688911Y-73417093D01*
X149688911Y-73417093D02*
X149650816Y-73569474D01*
X149650816Y-73569474D02*
X149650816Y-73759950D01*
X149650816Y-73759950D02*
X149688911Y-73912331D01*
X149688911Y-73912331D02*
X149727006Y-73988521D01*
X149727006Y-73988521D02*
X149765101Y-74026617D01*
X149765101Y-74026617D02*
X149841292Y-74064712D01*
X149841292Y-74064712D02*
X149917482Y-74064712D01*
X149917482Y-74064712D02*
X149993673Y-74026617D01*
X149993673Y-74026617D02*
X150031768Y-73988521D01*
X150031768Y-73988521D02*
X150069863Y-73912331D01*
X150069863Y-73912331D02*
X150107959Y-73759950D01*
X150107959Y-73759950D02*
X150107959Y-73569474D01*
X150107959Y-73569474D02*
X150069863Y-73417093D01*
X150069863Y-73417093D02*
X150031768Y-73340902D01*
X150031768Y-73340902D02*
X149993673Y-73302807D01*
X149993673Y-73302807D02*
X149917482Y-73264712D01*
X149384149Y-73264712D02*
X148850815Y-73264712D01*
X148850815Y-73264712D02*
X149193673Y-74064712D01*
X150869863Y-96224713D02*
X150869863Y-95424713D01*
X150869863Y-95424713D02*
X150565101Y-95424713D01*
X150565101Y-95424713D02*
X150488911Y-95462808D01*
X150488911Y-95462808D02*
X150450816Y-95500903D01*
X150450816Y-95500903D02*
X150412720Y-95577094D01*
X150412720Y-95577094D02*
X150412720Y-95691379D01*
X150412720Y-95691379D02*
X150450816Y-95767570D01*
X150450816Y-95767570D02*
X150488911Y-95805665D01*
X150488911Y-95805665D02*
X150565101Y-95843760D01*
X150565101Y-95843760D02*
X150869863Y-95843760D01*
X149650816Y-96224713D02*
X150107959Y-96224713D01*
X149879387Y-96224713D02*
X149879387Y-95424713D01*
X149879387Y-95424713D02*
X149955578Y-95538998D01*
X149955578Y-95538998D02*
X150031768Y-95615189D01*
X150031768Y-95615189D02*
X150107959Y-95653284D01*
X148965101Y-95691379D02*
X148965101Y-96224713D01*
X149155577Y-95386618D02*
X149346054Y-95958046D01*
X149346054Y-95958046D02*
X148850815Y-95958046D01*
X163669863Y-96224714D02*
X163669863Y-95424714D01*
X163669863Y-95424714D02*
X163365101Y-95424714D01*
X163365101Y-95424714D02*
X163288911Y-95462809D01*
X163288911Y-95462809D02*
X163250816Y-95500904D01*
X163250816Y-95500904D02*
X163212720Y-95577095D01*
X163212720Y-95577095D02*
X163212720Y-95691380D01*
X163212720Y-95691380D02*
X163250816Y-95767571D01*
X163250816Y-95767571D02*
X163288911Y-95805666D01*
X163288911Y-95805666D02*
X163365101Y-95843761D01*
X163365101Y-95843761D02*
X163669863Y-95843761D01*
X162450816Y-96224714D02*
X162907959Y-96224714D01*
X162679387Y-96224714D02*
X162679387Y-95424714D01*
X162679387Y-95424714D02*
X162755578Y-95538999D01*
X162755578Y-95538999D02*
X162831768Y-95615190D01*
X162831768Y-95615190D02*
X162907959Y-95653285D01*
X162184149Y-95424714D02*
X161650815Y-95424714D01*
X161650815Y-95424714D02*
X161993673Y-96224714D01*
X150869863Y-76604714D02*
X150869863Y-75804714D01*
X150869863Y-75804714D02*
X150565101Y-75804714D01*
X150565101Y-75804714D02*
X150488911Y-75842809D01*
X150488911Y-75842809D02*
X150450816Y-75880904D01*
X150450816Y-75880904D02*
X150412720Y-75957095D01*
X150412720Y-75957095D02*
X150412720Y-76071380D01*
X150412720Y-76071380D02*
X150450816Y-76147571D01*
X150450816Y-76147571D02*
X150488911Y-76185666D01*
X150488911Y-76185666D02*
X150565101Y-76223761D01*
X150565101Y-76223761D02*
X150869863Y-76223761D01*
X149917482Y-75804714D02*
X149841292Y-75804714D01*
X149841292Y-75804714D02*
X149765101Y-75842809D01*
X149765101Y-75842809D02*
X149727006Y-75880904D01*
X149727006Y-75880904D02*
X149688911Y-75957095D01*
X149688911Y-75957095D02*
X149650816Y-76109476D01*
X149650816Y-76109476D02*
X149650816Y-76299952D01*
X149650816Y-76299952D02*
X149688911Y-76452333D01*
X149688911Y-76452333D02*
X149727006Y-76528523D01*
X149727006Y-76528523D02*
X149765101Y-76566619D01*
X149765101Y-76566619D02*
X149841292Y-76604714D01*
X149841292Y-76604714D02*
X149917482Y-76604714D01*
X149917482Y-76604714D02*
X149993673Y-76566619D01*
X149993673Y-76566619D02*
X150031768Y-76528523D01*
X150031768Y-76528523D02*
X150069863Y-76452333D01*
X150069863Y-76452333D02*
X150107959Y-76299952D01*
X150107959Y-76299952D02*
X150107959Y-76109476D01*
X150107959Y-76109476D02*
X150069863Y-75957095D01*
X150069863Y-75957095D02*
X150031768Y-75880904D01*
X150031768Y-75880904D02*
X149993673Y-75842809D01*
X149993673Y-75842809D02*
X149917482Y-75804714D01*
X149193673Y-76147571D02*
X149269863Y-76109476D01*
X149269863Y-76109476D02*
X149307958Y-76071380D01*
X149307958Y-76071380D02*
X149346054Y-75995190D01*
X149346054Y-75995190D02*
X149346054Y-75957095D01*
X149346054Y-75957095D02*
X149307958Y-75880904D01*
X149307958Y-75880904D02*
X149269863Y-75842809D01*
X149269863Y-75842809D02*
X149193673Y-75804714D01*
X149193673Y-75804714D02*
X149041292Y-75804714D01*
X149041292Y-75804714D02*
X148965101Y-75842809D01*
X148965101Y-75842809D02*
X148927006Y-75880904D01*
X148927006Y-75880904D02*
X148888911Y-75957095D01*
X148888911Y-75957095D02*
X148888911Y-75995190D01*
X148888911Y-75995190D02*
X148927006Y-76071380D01*
X148927006Y-76071380D02*
X148965101Y-76109476D01*
X148965101Y-76109476D02*
X149041292Y-76147571D01*
X149041292Y-76147571D02*
X149193673Y-76147571D01*
X149193673Y-76147571D02*
X149269863Y-76185666D01*
X149269863Y-76185666D02*
X149307958Y-76223761D01*
X149307958Y-76223761D02*
X149346054Y-76299952D01*
X149346054Y-76299952D02*
X149346054Y-76452333D01*
X149346054Y-76452333D02*
X149307958Y-76528523D01*
X149307958Y-76528523D02*
X149269863Y-76566619D01*
X149269863Y-76566619D02*
X149193673Y-76604714D01*
X149193673Y-76604714D02*
X149041292Y-76604714D01*
X149041292Y-76604714D02*
X148965101Y-76566619D01*
X148965101Y-76566619D02*
X148927006Y-76528523D01*
X148927006Y-76528523D02*
X148888911Y-76452333D01*
X148888911Y-76452333D02*
X148888911Y-76299952D01*
X148888911Y-76299952D02*
X148927006Y-76223761D01*
X148927006Y-76223761D02*
X148965101Y-76185666D01*
X148965101Y-76185666D02*
X149041292Y-76147571D01*
X163669863Y-79144713D02*
X163669863Y-78344713D01*
X163669863Y-78344713D02*
X163365101Y-78344713D01*
X163365101Y-78344713D02*
X163288911Y-78382808D01*
X163288911Y-78382808D02*
X163250816Y-78420903D01*
X163250816Y-78420903D02*
X163212720Y-78497094D01*
X163212720Y-78497094D02*
X163212720Y-78611379D01*
X163212720Y-78611379D02*
X163250816Y-78687570D01*
X163250816Y-78687570D02*
X163288911Y-78725665D01*
X163288911Y-78725665D02*
X163365101Y-78763760D01*
X163365101Y-78763760D02*
X163669863Y-78763760D01*
X162907959Y-78420903D02*
X162869863Y-78382808D01*
X162869863Y-78382808D02*
X162793673Y-78344713D01*
X162793673Y-78344713D02*
X162603197Y-78344713D01*
X162603197Y-78344713D02*
X162527006Y-78382808D01*
X162527006Y-78382808D02*
X162488911Y-78420903D01*
X162488911Y-78420903D02*
X162450816Y-78497094D01*
X162450816Y-78497094D02*
X162450816Y-78573284D01*
X162450816Y-78573284D02*
X162488911Y-78687570D01*
X162488911Y-78687570D02*
X162946054Y-79144713D01*
X162946054Y-79144713D02*
X162450816Y-79144713D01*
X162146054Y-78420903D02*
X162107958Y-78382808D01*
X162107958Y-78382808D02*
X162031768Y-78344713D01*
X162031768Y-78344713D02*
X161841292Y-78344713D01*
X161841292Y-78344713D02*
X161765101Y-78382808D01*
X161765101Y-78382808D02*
X161727006Y-78420903D01*
X161727006Y-78420903D02*
X161688911Y-78497094D01*
X161688911Y-78497094D02*
X161688911Y-78573284D01*
X161688911Y-78573284D02*
X161727006Y-78687570D01*
X161727006Y-78687570D02*
X162184149Y-79144713D01*
X162184149Y-79144713D02*
X161688911Y-79144713D01*
X163307958Y-55522808D02*
X163384148Y-55484713D01*
X163384148Y-55484713D02*
X163498434Y-55484713D01*
X163498434Y-55484713D02*
X163612720Y-55522808D01*
X163612720Y-55522808D02*
X163688910Y-55598998D01*
X163688910Y-55598998D02*
X163727005Y-55675189D01*
X163727005Y-55675189D02*
X163765101Y-55827570D01*
X163765101Y-55827570D02*
X163765101Y-55941856D01*
X163765101Y-55941856D02*
X163727005Y-56094237D01*
X163727005Y-56094237D02*
X163688910Y-56170427D01*
X163688910Y-56170427D02*
X163612720Y-56246618D01*
X163612720Y-56246618D02*
X163498434Y-56284713D01*
X163498434Y-56284713D02*
X163422243Y-56284713D01*
X163422243Y-56284713D02*
X163307958Y-56246618D01*
X163307958Y-56246618D02*
X163269862Y-56208522D01*
X163269862Y-56208522D02*
X163269862Y-55941856D01*
X163269862Y-55941856D02*
X163422243Y-55941856D01*
X162927005Y-56284713D02*
X162927005Y-55484713D01*
X162927005Y-55484713D02*
X162469862Y-56284713D01*
X162469862Y-56284713D02*
X162469862Y-55484713D01*
X162088910Y-56284713D02*
X162088910Y-55484713D01*
X162088910Y-55484713D02*
X161898434Y-55484713D01*
X161898434Y-55484713D02*
X161784148Y-55522808D01*
X161784148Y-55522808D02*
X161707958Y-55598998D01*
X161707958Y-55598998D02*
X161669863Y-55675189D01*
X161669863Y-55675189D02*
X161631767Y-55827570D01*
X161631767Y-55827570D02*
X161631767Y-55941856D01*
X161631767Y-55941856D02*
X161669863Y-56094237D01*
X161669863Y-56094237D02*
X161707958Y-56170427D01*
X161707958Y-56170427D02*
X161784148Y-56246618D01*
X161784148Y-56246618D02*
X161898434Y-56284713D01*
X161898434Y-56284713D02*
X162088910Y-56284713D01*
X164069863Y-53644713D02*
X163803196Y-54444713D01*
X163803196Y-54444713D02*
X163536530Y-53644713D01*
X163307959Y-54406618D02*
X163193673Y-54444713D01*
X163193673Y-54444713D02*
X163003197Y-54444713D01*
X163003197Y-54444713D02*
X162927006Y-54406618D01*
X162927006Y-54406618D02*
X162888911Y-54368522D01*
X162888911Y-54368522D02*
X162850816Y-54292332D01*
X162850816Y-54292332D02*
X162850816Y-54216141D01*
X162850816Y-54216141D02*
X162888911Y-54139951D01*
X162888911Y-54139951D02*
X162927006Y-54101856D01*
X162927006Y-54101856D02*
X163003197Y-54063760D01*
X163003197Y-54063760D02*
X163155578Y-54025665D01*
X163155578Y-54025665D02*
X163231768Y-53987570D01*
X163231768Y-53987570D02*
X163269863Y-53949475D01*
X163269863Y-53949475D02*
X163307959Y-53873284D01*
X163307959Y-53873284D02*
X163307959Y-53797094D01*
X163307959Y-53797094D02*
X163269863Y-53720903D01*
X163269863Y-53720903D02*
X163231768Y-53682808D01*
X163231768Y-53682808D02*
X163155578Y-53644713D01*
X163155578Y-53644713D02*
X162965101Y-53644713D01*
X162965101Y-53644713D02*
X162850816Y-53682808D01*
X162355577Y-54063760D02*
X162355577Y-54444713D01*
X162622244Y-53644713D02*
X162355577Y-54063760D01*
X162355577Y-54063760D02*
X162088911Y-53644713D01*
X161860340Y-54406618D02*
X161746054Y-54444713D01*
X161746054Y-54444713D02*
X161555578Y-54444713D01*
X161555578Y-54444713D02*
X161479387Y-54406618D01*
X161479387Y-54406618D02*
X161441292Y-54368522D01*
X161441292Y-54368522D02*
X161403197Y-54292332D01*
X161403197Y-54292332D02*
X161403197Y-54216141D01*
X161403197Y-54216141D02*
X161441292Y-54139951D01*
X161441292Y-54139951D02*
X161479387Y-54101856D01*
X161479387Y-54101856D02*
X161555578Y-54063760D01*
X161555578Y-54063760D02*
X161707959Y-54025665D01*
X161707959Y-54025665D02*
X161784149Y-53987570D01*
X161784149Y-53987570D02*
X161822244Y-53949475D01*
X161822244Y-53949475D02*
X161860340Y-53873284D01*
X161860340Y-53873284D02*
X161860340Y-53797094D01*
X161860340Y-53797094D02*
X161822244Y-53720903D01*
X161822244Y-53720903D02*
X161784149Y-53682808D01*
X161784149Y-53682808D02*
X161707959Y-53644713D01*
X161707959Y-53644713D02*
X161517482Y-53644713D01*
X161517482Y-53644713D02*
X161403197Y-53682808D01*
X163307958Y-93622808D02*
X163384148Y-93584713D01*
X163384148Y-93584713D02*
X163498434Y-93584713D01*
X163498434Y-93584713D02*
X163612720Y-93622808D01*
X163612720Y-93622808D02*
X163688910Y-93698998D01*
X163688910Y-93698998D02*
X163727005Y-93775189D01*
X163727005Y-93775189D02*
X163765101Y-93927570D01*
X163765101Y-93927570D02*
X163765101Y-94041856D01*
X163765101Y-94041856D02*
X163727005Y-94194237D01*
X163727005Y-94194237D02*
X163688910Y-94270427D01*
X163688910Y-94270427D02*
X163612720Y-94346618D01*
X163612720Y-94346618D02*
X163498434Y-94384713D01*
X163498434Y-94384713D02*
X163422243Y-94384713D01*
X163422243Y-94384713D02*
X163307958Y-94346618D01*
X163307958Y-94346618D02*
X163269862Y-94308522D01*
X163269862Y-94308522D02*
X163269862Y-94041856D01*
X163269862Y-94041856D02*
X163422243Y-94041856D01*
X162927005Y-94384713D02*
X162927005Y-93584713D01*
X162927005Y-93584713D02*
X162469862Y-94384713D01*
X162469862Y-94384713D02*
X162469862Y-93584713D01*
X162088910Y-94384713D02*
X162088910Y-93584713D01*
X162088910Y-93584713D02*
X161898434Y-93584713D01*
X161898434Y-93584713D02*
X161784148Y-93622808D01*
X161784148Y-93622808D02*
X161707958Y-93698998D01*
X161707958Y-93698998D02*
X161669863Y-93775189D01*
X161669863Y-93775189D02*
X161631767Y-93927570D01*
X161631767Y-93927570D02*
X161631767Y-94041856D01*
X161631767Y-94041856D02*
X161669863Y-94194237D01*
X161669863Y-94194237D02*
X161707958Y-94270427D01*
X161707958Y-94270427D02*
X161784148Y-94346618D01*
X161784148Y-94346618D02*
X161898434Y-94384713D01*
X161898434Y-94384713D02*
X162088910Y-94384713D01*
X150507958Y-80922808D02*
X150584148Y-80884713D01*
X150584148Y-80884713D02*
X150698434Y-80884713D01*
X150698434Y-80884713D02*
X150812720Y-80922808D01*
X150812720Y-80922808D02*
X150888910Y-80998998D01*
X150888910Y-80998998D02*
X150927005Y-81075189D01*
X150927005Y-81075189D02*
X150965101Y-81227570D01*
X150965101Y-81227570D02*
X150965101Y-81341856D01*
X150965101Y-81341856D02*
X150927005Y-81494237D01*
X150927005Y-81494237D02*
X150888910Y-81570427D01*
X150888910Y-81570427D02*
X150812720Y-81646618D01*
X150812720Y-81646618D02*
X150698434Y-81684713D01*
X150698434Y-81684713D02*
X150622243Y-81684713D01*
X150622243Y-81684713D02*
X150507958Y-81646618D01*
X150507958Y-81646618D02*
X150469862Y-81608522D01*
X150469862Y-81608522D02*
X150469862Y-81341856D01*
X150469862Y-81341856D02*
X150622243Y-81341856D01*
X150127005Y-81684713D02*
X150127005Y-80884713D01*
X150127005Y-80884713D02*
X149669862Y-81684713D01*
X149669862Y-81684713D02*
X149669862Y-80884713D01*
X149288910Y-81684713D02*
X149288910Y-80884713D01*
X149288910Y-80884713D02*
X149098434Y-80884713D01*
X149098434Y-80884713D02*
X148984148Y-80922808D01*
X148984148Y-80922808D02*
X148907958Y-80998998D01*
X148907958Y-80998998D02*
X148869863Y-81075189D01*
X148869863Y-81075189D02*
X148831767Y-81227570D01*
X148831767Y-81227570D02*
X148831767Y-81341856D01*
X148831767Y-81341856D02*
X148869863Y-81494237D01*
X148869863Y-81494237D02*
X148907958Y-81570427D01*
X148907958Y-81570427D02*
X148984148Y-81646618D01*
X148984148Y-81646618D02*
X149098434Y-81684713D01*
X149098434Y-81684713D02*
X149288910Y-81684713D01*
X150869863Y-86764714D02*
X150869863Y-85964714D01*
X150869863Y-85964714D02*
X150565101Y-85964714D01*
X150565101Y-85964714D02*
X150488911Y-86002809D01*
X150488911Y-86002809D02*
X150450816Y-86040904D01*
X150450816Y-86040904D02*
X150412720Y-86117095D01*
X150412720Y-86117095D02*
X150412720Y-86231380D01*
X150412720Y-86231380D02*
X150450816Y-86307571D01*
X150450816Y-86307571D02*
X150488911Y-86345666D01*
X150488911Y-86345666D02*
X150565101Y-86383761D01*
X150565101Y-86383761D02*
X150869863Y-86383761D01*
X149650816Y-86764714D02*
X150107959Y-86764714D01*
X149879387Y-86764714D02*
X149879387Y-85964714D01*
X149879387Y-85964714D02*
X149955578Y-86078999D01*
X149955578Y-86078999D02*
X150031768Y-86155190D01*
X150031768Y-86155190D02*
X150107959Y-86193285D01*
X148888911Y-86764714D02*
X149346054Y-86764714D01*
X149117482Y-86764714D02*
X149117482Y-85964714D01*
X149117482Y-85964714D02*
X149193673Y-86078999D01*
X149193673Y-86078999D02*
X149269863Y-86155190D01*
X149269863Y-86155190D02*
X149346054Y-86193285D01*
X150869863Y-79144713D02*
X150869863Y-78344713D01*
X150869863Y-78344713D02*
X150565101Y-78344713D01*
X150565101Y-78344713D02*
X150488911Y-78382808D01*
X150488911Y-78382808D02*
X150450816Y-78420903D01*
X150450816Y-78420903D02*
X150412720Y-78497094D01*
X150412720Y-78497094D02*
X150412720Y-78611379D01*
X150412720Y-78611379D02*
X150450816Y-78687570D01*
X150450816Y-78687570D02*
X150488911Y-78725665D01*
X150488911Y-78725665D02*
X150565101Y-78763760D01*
X150565101Y-78763760D02*
X150869863Y-78763760D01*
X149917482Y-78344713D02*
X149841292Y-78344713D01*
X149841292Y-78344713D02*
X149765101Y-78382808D01*
X149765101Y-78382808D02*
X149727006Y-78420903D01*
X149727006Y-78420903D02*
X149688911Y-78497094D01*
X149688911Y-78497094D02*
X149650816Y-78649475D01*
X149650816Y-78649475D02*
X149650816Y-78839951D01*
X149650816Y-78839951D02*
X149688911Y-78992332D01*
X149688911Y-78992332D02*
X149727006Y-79068522D01*
X149727006Y-79068522D02*
X149765101Y-79106618D01*
X149765101Y-79106618D02*
X149841292Y-79144713D01*
X149841292Y-79144713D02*
X149917482Y-79144713D01*
X149917482Y-79144713D02*
X149993673Y-79106618D01*
X149993673Y-79106618D02*
X150031768Y-79068522D01*
X150031768Y-79068522D02*
X150069863Y-78992332D01*
X150069863Y-78992332D02*
X150107959Y-78839951D01*
X150107959Y-78839951D02*
X150107959Y-78649475D01*
X150107959Y-78649475D02*
X150069863Y-78497094D01*
X150069863Y-78497094D02*
X150031768Y-78420903D01*
X150031768Y-78420903D02*
X149993673Y-78382808D01*
X149993673Y-78382808D02*
X149917482Y-78344713D01*
X149269863Y-79144713D02*
X149117482Y-79144713D01*
X149117482Y-79144713D02*
X149041292Y-79106618D01*
X149041292Y-79106618D02*
X149003196Y-79068522D01*
X149003196Y-79068522D02*
X148927006Y-78954237D01*
X148927006Y-78954237D02*
X148888911Y-78801856D01*
X148888911Y-78801856D02*
X148888911Y-78497094D01*
X148888911Y-78497094D02*
X148927006Y-78420903D01*
X148927006Y-78420903D02*
X148965101Y-78382808D01*
X148965101Y-78382808D02*
X149041292Y-78344713D01*
X149041292Y-78344713D02*
X149193673Y-78344713D01*
X149193673Y-78344713D02*
X149269863Y-78382808D01*
X149269863Y-78382808D02*
X149307958Y-78420903D01*
X149307958Y-78420903D02*
X149346054Y-78497094D01*
X149346054Y-78497094D02*
X149346054Y-78687570D01*
X149346054Y-78687570D02*
X149307958Y-78763760D01*
X149307958Y-78763760D02*
X149269863Y-78801856D01*
X149269863Y-78801856D02*
X149193673Y-78839951D01*
X149193673Y-78839951D02*
X149041292Y-78839951D01*
X149041292Y-78839951D02*
X148965101Y-78801856D01*
X148965101Y-78801856D02*
X148927006Y-78763760D01*
X148927006Y-78763760D02*
X148888911Y-78687570D01*
X163669863Y-84224713D02*
X163669863Y-83424713D01*
X163669863Y-83424713D02*
X163365101Y-83424713D01*
X163365101Y-83424713D02*
X163288911Y-83462808D01*
X163288911Y-83462808D02*
X163250816Y-83500903D01*
X163250816Y-83500903D02*
X163212720Y-83577094D01*
X163212720Y-83577094D02*
X163212720Y-83691379D01*
X163212720Y-83691379D02*
X163250816Y-83767570D01*
X163250816Y-83767570D02*
X163288911Y-83805665D01*
X163288911Y-83805665D02*
X163365101Y-83843760D01*
X163365101Y-83843760D02*
X163669863Y-83843760D01*
X162907959Y-83500903D02*
X162869863Y-83462808D01*
X162869863Y-83462808D02*
X162793673Y-83424713D01*
X162793673Y-83424713D02*
X162603197Y-83424713D01*
X162603197Y-83424713D02*
X162527006Y-83462808D01*
X162527006Y-83462808D02*
X162488911Y-83500903D01*
X162488911Y-83500903D02*
X162450816Y-83577094D01*
X162450816Y-83577094D02*
X162450816Y-83653284D01*
X162450816Y-83653284D02*
X162488911Y-83767570D01*
X162488911Y-83767570D02*
X162946054Y-84224713D01*
X162946054Y-84224713D02*
X162450816Y-84224713D01*
X161688911Y-84224713D02*
X162146054Y-84224713D01*
X161917482Y-84224713D02*
X161917482Y-83424713D01*
X161917482Y-83424713D02*
X161993673Y-83538998D01*
X161993673Y-83538998D02*
X162069863Y-83615189D01*
X162069863Y-83615189D02*
X162146054Y-83653284D01*
D11*
X151599383Y-101515920D02*
X151647002Y-101492110D01*
X151647002Y-101492110D02*
X151718431Y-101492110D01*
X151718431Y-101492110D02*
X151789859Y-101515920D01*
X151789859Y-101515920D02*
X151837478Y-101563539D01*
X151837478Y-101563539D02*
X151861288Y-101611158D01*
X151861288Y-101611158D02*
X151885097Y-101706396D01*
X151885097Y-101706396D02*
X151885097Y-101777824D01*
X151885097Y-101777824D02*
X151861288Y-101873062D01*
X151861288Y-101873062D02*
X151837478Y-101920681D01*
X151837478Y-101920681D02*
X151789859Y-101968301D01*
X151789859Y-101968301D02*
X151718431Y-101992110D01*
X151718431Y-101992110D02*
X151670812Y-101992110D01*
X151670812Y-101992110D02*
X151599383Y-101968301D01*
X151599383Y-101968301D02*
X151575574Y-101944491D01*
X151575574Y-101944491D02*
X151575574Y-101777824D01*
X151575574Y-101777824D02*
X151670812Y-101777824D01*
X151361288Y-101992110D02*
X151361288Y-101492110D01*
X151361288Y-101492110D02*
X151075574Y-101992110D01*
X151075574Y-101992110D02*
X151075574Y-101492110D01*
X150837478Y-101992110D02*
X150837478Y-101492110D01*
X150837478Y-101492110D02*
X150718430Y-101492110D01*
X150718430Y-101492110D02*
X150647002Y-101515920D01*
X150647002Y-101515920D02*
X150599383Y-101563539D01*
X150599383Y-101563539D02*
X150575573Y-101611158D01*
X150575573Y-101611158D02*
X150551764Y-101706396D01*
X150551764Y-101706396D02*
X150551764Y-101777824D01*
X150551764Y-101777824D02*
X150575573Y-101873062D01*
X150575573Y-101873062D02*
X150599383Y-101920681D01*
X150599383Y-101920681D02*
X150647002Y-101968301D01*
X150647002Y-101968301D02*
X150718430Y-101992110D01*
X150718430Y-101992110D02*
X150837478Y-101992110D01*
X156905578Y-101992113D02*
X156905578Y-101492113D01*
X156905578Y-101492113D02*
X156715102Y-101492113D01*
X156715102Y-101492113D02*
X156667483Y-101515923D01*
X156667483Y-101515923D02*
X156643673Y-101539732D01*
X156643673Y-101539732D02*
X156619864Y-101587351D01*
X156619864Y-101587351D02*
X156619864Y-101658780D01*
X156619864Y-101658780D02*
X156643673Y-101706399D01*
X156643673Y-101706399D02*
X156667483Y-101730208D01*
X156667483Y-101730208D02*
X156715102Y-101754018D01*
X156715102Y-101754018D02*
X156905578Y-101754018D01*
X156143673Y-101992113D02*
X156429387Y-101992113D01*
X156286530Y-101992113D02*
X156286530Y-101492113D01*
X156286530Y-101492113D02*
X156334149Y-101563542D01*
X156334149Y-101563542D02*
X156381768Y-101611161D01*
X156381768Y-101611161D02*
X156429387Y-101634970D01*
X155977007Y-101492113D02*
X155643674Y-101492113D01*
X155643674Y-101492113D02*
X155857959Y-101992113D01*
X159445570Y-101992105D02*
X159445570Y-101492105D01*
X159445570Y-101492105D02*
X159255094Y-101492105D01*
X159255094Y-101492105D02*
X159207475Y-101515915D01*
X159207475Y-101515915D02*
X159183665Y-101539724D01*
X159183665Y-101539724D02*
X159159856Y-101587343D01*
X159159856Y-101587343D02*
X159159856Y-101658772D01*
X159159856Y-101658772D02*
X159183665Y-101706391D01*
X159183665Y-101706391D02*
X159207475Y-101730200D01*
X159207475Y-101730200D02*
X159255094Y-101754010D01*
X159255094Y-101754010D02*
X159445570Y-101754010D01*
X158683665Y-101992105D02*
X158969379Y-101992105D01*
X158826522Y-101992105D02*
X158826522Y-101492105D01*
X158826522Y-101492105D02*
X158874141Y-101563534D01*
X158874141Y-101563534D02*
X158921760Y-101611153D01*
X158921760Y-101611153D02*
X158969379Y-101634962D01*
X158397951Y-101706391D02*
X158445570Y-101682581D01*
X158445570Y-101682581D02*
X158469380Y-101658772D01*
X158469380Y-101658772D02*
X158493189Y-101611153D01*
X158493189Y-101611153D02*
X158493189Y-101587343D01*
X158493189Y-101587343D02*
X158469380Y-101539724D01*
X158469380Y-101539724D02*
X158445570Y-101515915D01*
X158445570Y-101515915D02*
X158397951Y-101492105D01*
X158397951Y-101492105D02*
X158302713Y-101492105D01*
X158302713Y-101492105D02*
X158255094Y-101515915D01*
X158255094Y-101515915D02*
X158231285Y-101539724D01*
X158231285Y-101539724D02*
X158207475Y-101587343D01*
X158207475Y-101587343D02*
X158207475Y-101611153D01*
X158207475Y-101611153D02*
X158231285Y-101658772D01*
X158231285Y-101658772D02*
X158255094Y-101682581D01*
X158255094Y-101682581D02*
X158302713Y-101706391D01*
X158302713Y-101706391D02*
X158397951Y-101706391D01*
X158397951Y-101706391D02*
X158445570Y-101730200D01*
X158445570Y-101730200D02*
X158469380Y-101754010D01*
X158469380Y-101754010D02*
X158493189Y-101801629D01*
X158493189Y-101801629D02*
X158493189Y-101896867D01*
X158493189Y-101896867D02*
X158469380Y-101944486D01*
X158469380Y-101944486D02*
X158445570Y-101968296D01*
X158445570Y-101968296D02*
X158397951Y-101992105D01*
X158397951Y-101992105D02*
X158302713Y-101992105D01*
X158302713Y-101992105D02*
X158255094Y-101968296D01*
X158255094Y-101968296D02*
X158231285Y-101944486D01*
X158231285Y-101944486D02*
X158207475Y-101896867D01*
X158207475Y-101896867D02*
X158207475Y-101801629D01*
X158207475Y-101801629D02*
X158231285Y-101754010D01*
X158231285Y-101754010D02*
X158255094Y-101730200D01*
X158255094Y-101730200D02*
X158302713Y-101706391D01*
X161985572Y-101992107D02*
X161985572Y-101492107D01*
X161985572Y-101492107D02*
X161795096Y-101492107D01*
X161795096Y-101492107D02*
X161747477Y-101515917D01*
X161747477Y-101515917D02*
X161723667Y-101539726D01*
X161723667Y-101539726D02*
X161699858Y-101587345D01*
X161699858Y-101587345D02*
X161699858Y-101658774D01*
X161699858Y-101658774D02*
X161723667Y-101706393D01*
X161723667Y-101706393D02*
X161747477Y-101730202D01*
X161747477Y-101730202D02*
X161795096Y-101754012D01*
X161795096Y-101754012D02*
X161985572Y-101754012D01*
X161223667Y-101992107D02*
X161509381Y-101992107D01*
X161366524Y-101992107D02*
X161366524Y-101492107D01*
X161366524Y-101492107D02*
X161414143Y-101563536D01*
X161414143Y-101563536D02*
X161461762Y-101611155D01*
X161461762Y-101611155D02*
X161509381Y-101634964D01*
X160985572Y-101992107D02*
X160890334Y-101992107D01*
X160890334Y-101992107D02*
X160842715Y-101968298D01*
X160842715Y-101968298D02*
X160818906Y-101944488D01*
X160818906Y-101944488D02*
X160771287Y-101873059D01*
X160771287Y-101873059D02*
X160747477Y-101777821D01*
X160747477Y-101777821D02*
X160747477Y-101587345D01*
X160747477Y-101587345D02*
X160771287Y-101539726D01*
X160771287Y-101539726D02*
X160795096Y-101515917D01*
X160795096Y-101515917D02*
X160842715Y-101492107D01*
X160842715Y-101492107D02*
X160937953Y-101492107D01*
X160937953Y-101492107D02*
X160985572Y-101515917D01*
X160985572Y-101515917D02*
X161009382Y-101539726D01*
X161009382Y-101539726D02*
X161033191Y-101587345D01*
X161033191Y-101587345D02*
X161033191Y-101706393D01*
X161033191Y-101706393D02*
X161009382Y-101754012D01*
X161009382Y-101754012D02*
X160985572Y-101777821D01*
X160985572Y-101777821D02*
X160937953Y-101801631D01*
X160937953Y-101801631D02*
X160842715Y-101801631D01*
X160842715Y-101801631D02*
X160795096Y-101777821D01*
X160795096Y-101777821D02*
X160771287Y-101754012D01*
X160771287Y-101754012D02*
X160747477Y-101706393D01*
X154365578Y-101992113D02*
X154365578Y-101492113D01*
X154365578Y-101492113D02*
X154175102Y-101492113D01*
X154175102Y-101492113D02*
X154127483Y-101515923D01*
X154127483Y-101515923D02*
X154103673Y-101539732D01*
X154103673Y-101539732D02*
X154079864Y-101587351D01*
X154079864Y-101587351D02*
X154079864Y-101658780D01*
X154079864Y-101658780D02*
X154103673Y-101706399D01*
X154103673Y-101706399D02*
X154127483Y-101730208D01*
X154127483Y-101730208D02*
X154175102Y-101754018D01*
X154175102Y-101754018D02*
X154365578Y-101754018D01*
X153603673Y-101992113D02*
X153889387Y-101992113D01*
X153746530Y-101992113D02*
X153746530Y-101492113D01*
X153746530Y-101492113D02*
X153794149Y-101563542D01*
X153794149Y-101563542D02*
X153841768Y-101611161D01*
X153841768Y-101611161D02*
X153889387Y-101634970D01*
X153175102Y-101492113D02*
X153270340Y-101492113D01*
X153270340Y-101492113D02*
X153317959Y-101515923D01*
X153317959Y-101515923D02*
X153341769Y-101539732D01*
X153341769Y-101539732D02*
X153389388Y-101611161D01*
X153389388Y-101611161D02*
X153413197Y-101706399D01*
X153413197Y-101706399D02*
X153413197Y-101896875D01*
X153413197Y-101896875D02*
X153389388Y-101944494D01*
X153389388Y-101944494D02*
X153365578Y-101968304D01*
X153365578Y-101968304D02*
X153317959Y-101992113D01*
X153317959Y-101992113D02*
X153222721Y-101992113D01*
X153222721Y-101992113D02*
X153175102Y-101968304D01*
X153175102Y-101968304D02*
X153151293Y-101944494D01*
X153151293Y-101944494D02*
X153127483Y-101896875D01*
X153127483Y-101896875D02*
X153127483Y-101777827D01*
X153127483Y-101777827D02*
X153151293Y-101730208D01*
X153151293Y-101730208D02*
X153175102Y-101706399D01*
X153175102Y-101706399D02*
X153222721Y-101682589D01*
X153222721Y-101682589D02*
X153317959Y-101682589D01*
X153317959Y-101682589D02*
X153365578Y-101706399D01*
X153365578Y-101706399D02*
X153389388Y-101730208D01*
X153389388Y-101730208D02*
X153413197Y-101777827D01*
D10*
%TO.C,MCU1*%
X145798435Y-49472419D02*
X145798435Y-100472417D01*
X145798435Y-100472417D02*
X166798435Y-100472417D01*
X166798435Y-49472419D02*
X145798435Y-49472419D01*
X166798435Y-100472417D02*
X166798435Y-49472419D01*
D12*
%TO.C,D9*%
X97333290Y-36925079D02*
X97727212Y-36994538D01*
X97727212Y-36994538D02*
X97631706Y-37536182D01*
X97727212Y-36994538D02*
X97822719Y-36452894D01*
X97727212Y-36994538D02*
X98387556Y-36704804D01*
X98248638Y-37492650D02*
X97727212Y-36994538D01*
X98318097Y-37098727D02*
X98810500Y-37185551D01*
X98387556Y-36704804D02*
X98248638Y-37492650D01*
%TO.C,D29*%
X199880092Y-61976989D02*
X200274014Y-61907530D01*
X200274014Y-61907530D02*
X200178508Y-61365886D01*
X200274014Y-61907530D02*
X200369521Y-62449174D01*
X200274014Y-61907530D02*
X200795440Y-61409418D01*
X200795440Y-61409418D02*
X200934357Y-62197264D01*
X200864899Y-61803341D02*
X201357302Y-61716517D01*
X200934357Y-62197264D02*
X200274014Y-61907530D01*
%TO.C,D15*%
X131049886Y-53024492D02*
X131443808Y-53093951D01*
X131443808Y-53093951D02*
X131348302Y-53635595D01*
X131443808Y-53093951D02*
X131539315Y-52552307D01*
X131443808Y-53093951D02*
X132104152Y-52804217D01*
X131965234Y-53592063D02*
X131443808Y-53093951D01*
X132034693Y-53198140D02*
X132527096Y-53284964D01*
X132104152Y-52804217D02*
X131965234Y-53592063D01*
%TO.C,D20*%
X256185376Y-70326526D02*
X256579298Y-70257067D01*
X256579298Y-70257067D02*
X256483792Y-69715423D01*
X256579298Y-70257067D02*
X256674805Y-70798711D01*
X256579298Y-70257067D02*
X257100724Y-69758955D01*
X257100724Y-69758955D02*
X257239641Y-70546801D01*
X257170183Y-70152878D02*
X257662586Y-70066054D01*
X257239641Y-70546801D02*
X256579298Y-70257067D01*
%TO.C,D36*%
X184494197Y-104291572D02*
X184888119Y-104222113D01*
X184888119Y-104222113D02*
X184792613Y-103680469D01*
X184888119Y-104222113D02*
X184983626Y-104763757D01*
X184888119Y-104222113D02*
X185409545Y-103724001D01*
X185409545Y-103724001D02*
X185548462Y-104511847D01*
X185479004Y-104117924D02*
X185971407Y-104031100D01*
X185548462Y-104511847D02*
X184888119Y-104222113D01*
%TO.C,D21*%
X253233357Y-53584795D02*
X253627279Y-53515336D01*
X253627279Y-53515336D02*
X253531773Y-52973692D01*
X253627279Y-53515336D02*
X253722786Y-54056980D01*
X253627279Y-53515336D02*
X254148705Y-53017224D01*
X254148705Y-53017224D02*
X254287622Y-53805070D01*
X254218164Y-53411147D02*
X254710567Y-53324323D01*
X254287622Y-53805070D02*
X253627279Y-53515336D01*
%TO.C,D25*%
X219690405Y-70669016D02*
X220084327Y-70599557D01*
X220084327Y-70599557D02*
X219988821Y-70057913D01*
X220084327Y-70599557D02*
X220179834Y-71141201D01*
X220084327Y-70599557D02*
X220605753Y-70101445D01*
X220605753Y-70101445D02*
X220744670Y-70889291D01*
X220675212Y-70495368D02*
X221167615Y-70408544D01*
X220744670Y-70889291D02*
X220084327Y-70599557D01*
%TO.C,D10*%
X108287552Y-78458246D02*
X108681474Y-78527705D01*
X108681474Y-78527705D02*
X108585968Y-79069349D01*
X108681474Y-78527705D02*
X108776981Y-77986061D01*
X108681474Y-78527705D02*
X109341818Y-78237971D01*
X109202900Y-79025817D02*
X108681474Y-78527705D01*
X109272359Y-78631894D02*
X109764762Y-78718718D01*
X109341818Y-78237971D02*
X109202900Y-79025817D01*
%TO.C,D23*%
X235680467Y-57695272D02*
X236074389Y-57625813D01*
X236074389Y-57625813D02*
X235978883Y-57084169D01*
X236074389Y-57625813D02*
X236169896Y-58167457D01*
X236074389Y-57625813D02*
X236595815Y-57127701D01*
X236595815Y-57127701D02*
X236734732Y-57915547D01*
X236665274Y-57521624D02*
X237157677Y-57434800D01*
X236734732Y-57915547D02*
X236074389Y-57625813D01*
%TO.C,D14*%
X128097869Y-69766225D02*
X128491791Y-69835684D01*
X128491791Y-69835684D02*
X128396285Y-70377328D01*
X128491791Y-69835684D02*
X128587298Y-69294040D01*
X128491791Y-69835684D02*
X129152135Y-69545950D01*
X129013217Y-70333796D02*
X128491791Y-69835684D01*
X129082676Y-69939873D02*
X129575079Y-70026697D01*
X129152135Y-69545950D02*
X129013217Y-70333796D01*
%TO.C,D1*%
X51982265Y-86807789D02*
X52376187Y-86877248D01*
X52376187Y-86877248D02*
X52280681Y-87418892D01*
X52376187Y-86877248D02*
X52471694Y-86335604D01*
X52376187Y-86877248D02*
X53036531Y-86587514D01*
X52897613Y-87375360D02*
X52376187Y-86877248D01*
X52967072Y-86981437D02*
X53459475Y-87068261D01*
X53036531Y-86587514D02*
X52897613Y-87375360D01*
%TO.C,D12*%
X114191591Y-44974786D02*
X114585513Y-45044245D01*
X114585513Y-45044245D02*
X114490007Y-45585889D01*
X114585513Y-45044245D02*
X114681020Y-44502601D01*
X114585513Y-45044245D02*
X115245857Y-44754511D01*
X115106939Y-45542357D02*
X114585513Y-45044245D01*
X115176398Y-45148434D02*
X115668801Y-45235258D01*
X115245857Y-44754511D02*
X115106939Y-45542357D01*
%TO.C,D13*%
X125145847Y-86507954D02*
X125539769Y-86577413D01*
X125539769Y-86577413D02*
X125444263Y-87119057D01*
X125539769Y-86577413D02*
X125635276Y-86035769D01*
X125539769Y-86577413D02*
X126200113Y-86287679D01*
X126061195Y-87075525D02*
X125539769Y-86577413D01*
X126130654Y-86681602D02*
X126623057Y-86768426D01*
X126200113Y-86287679D02*
X126061195Y-87075525D01*
%TO.C,D22*%
X238632482Y-74437003D02*
X239026404Y-74367544D01*
X239026404Y-74367544D02*
X238930898Y-73825900D01*
X239026404Y-74367544D02*
X239121911Y-74909188D01*
X239026404Y-74367544D02*
X239547830Y-73869432D01*
X239547830Y-73869432D02*
X239686747Y-74657278D01*
X239617289Y-74263355D02*
X240109692Y-74176531D01*
X239686747Y-74657278D02*
X239026404Y-74367544D01*
%TO.C,D26*%
X216738386Y-53927285D02*
X217132308Y-53857826D01*
X217132308Y-53857826D02*
X217036802Y-53316182D01*
X217132308Y-53857826D02*
X217227815Y-54399470D01*
X217132308Y-53857826D02*
X217653734Y-53359714D01*
X217653734Y-53359714D02*
X217792651Y-54147560D01*
X217723193Y-53753637D02*
X218215596Y-53666813D01*
X217792651Y-54147560D02*
X217132308Y-53857826D01*
%TO.C,D5*%
X75439194Y-57434801D02*
X75833116Y-57504260D01*
X75833116Y-57504260D02*
X75737610Y-58045904D01*
X75833116Y-57504260D02*
X75928623Y-56962616D01*
X75833116Y-57504260D02*
X76493460Y-57214526D01*
X76354542Y-58002372D02*
X75833116Y-57504260D01*
X76424001Y-57608449D02*
X76916404Y-57695273D01*
X76493460Y-57214526D02*
X76354542Y-58002372D01*
%TO.C,D2*%
X54934281Y-70066058D02*
X55328203Y-70135517D01*
X55328203Y-70135517D02*
X55232697Y-70677161D01*
X55328203Y-70135517D02*
X55423710Y-69593873D01*
X55328203Y-70135517D02*
X55988547Y-69845783D01*
X55849629Y-70633629D02*
X55328203Y-70135517D01*
X55919088Y-70239706D02*
X56411491Y-70326530D01*
X55988547Y-69845783D02*
X55849629Y-70633629D01*
%TO.C,D31*%
X185973804Y-86768428D02*
X186367726Y-86698969D01*
X186367726Y-86698969D02*
X186272220Y-86157325D01*
X186367726Y-86698969D02*
X186463233Y-87240613D01*
X186367726Y-86698969D02*
X186889152Y-86200857D01*
X186889152Y-86200857D02*
X187028069Y-86988703D01*
X186958611Y-86594780D02*
X187451014Y-86507956D01*
X187028069Y-86988703D02*
X186367726Y-86698969D01*
%TO.C,D4*%
X72487176Y-74176526D02*
X72881098Y-74245985D01*
X72881098Y-74245985D02*
X72785592Y-74787629D01*
X72881098Y-74245985D02*
X72976605Y-73704341D01*
X72881098Y-74245985D02*
X73541442Y-73956251D01*
X73402524Y-74744097D02*
X72881098Y-74245985D01*
X73471983Y-74350174D02*
X73964386Y-74436998D01*
X73541442Y-73956251D02*
X73402524Y-74744097D01*
%TO.C,D6*%
X78391212Y-40693068D02*
X78785134Y-40762527D01*
X78785134Y-40762527D02*
X78689628Y-41304171D01*
X78785134Y-40762527D02*
X78880641Y-40220883D01*
X78785134Y-40762527D02*
X79445478Y-40472793D01*
X79306560Y-41260639D02*
X78785134Y-40762527D01*
X79376019Y-40866716D02*
X79868422Y-40953540D01*
X79445478Y-40472793D02*
X79306560Y-41260639D01*
%TO.C,D16*%
X91172388Y-97779768D02*
X91566310Y-97849227D01*
X91566310Y-97849227D02*
X91470804Y-98390871D01*
X91566310Y-97849227D02*
X91661817Y-97307583D01*
X91566310Y-97849227D02*
X92226654Y-97559493D01*
X92087736Y-98347339D02*
X91566310Y-97849227D01*
X92157195Y-97953416D02*
X92649598Y-98040240D01*
X92226654Y-97559493D02*
X92087736Y-98347339D01*
%TO.C,D33*%
X180069769Y-53284967D02*
X180463691Y-53215508D01*
X180463691Y-53215508D02*
X180368185Y-52673864D01*
X180463691Y-53215508D02*
X180559198Y-53757152D01*
X180463691Y-53215508D02*
X180985117Y-52717396D01*
X180985117Y-52717396D02*
X181124034Y-53505242D01*
X181054576Y-53111319D02*
X181546979Y-53024495D01*
X181124034Y-53505242D02*
X180463691Y-53215508D01*
%TO.C,D32*%
X183021787Y-70026699D02*
X183415709Y-69957240D01*
X183415709Y-69957240D02*
X183320203Y-69415596D01*
X183415709Y-69957240D02*
X183511216Y-70498884D01*
X183415709Y-69957240D02*
X183937135Y-69459128D01*
X183937135Y-69459128D02*
X184076052Y-70246974D01*
X184006594Y-69853051D02*
X184498997Y-69766227D01*
X184076052Y-70246974D02*
X183415709Y-69957240D01*
%TO.C,D8*%
X94381268Y-53666815D02*
X94775190Y-53736274D01*
X94775190Y-53736274D02*
X94679684Y-54277918D01*
X94775190Y-53736274D02*
X94870697Y-53194630D01*
X94775190Y-53736274D02*
X95435534Y-53446540D01*
X95296616Y-54234386D02*
X94775190Y-53736274D01*
X95366075Y-53840463D02*
X95858478Y-53927287D01*
X95435534Y-53446540D02*
X95296616Y-54234386D01*
%TO.C,D17*%
X108898922Y-100905435D02*
X109292844Y-100974894D01*
X109292844Y-100974894D02*
X109197338Y-101516538D01*
X109292844Y-100974894D02*
X109388351Y-100433250D01*
X109292844Y-100974894D02*
X109953188Y-100685160D01*
X109814270Y-101473006D02*
X109292844Y-100974894D01*
X109883729Y-101079083D02*
X110376132Y-101165907D01*
X109953188Y-100685160D02*
X109814270Y-101473006D01*
%TO.C,D28*%
X202832110Y-78718722D02*
X203226032Y-78649263D01*
X203226032Y-78649263D02*
X203130526Y-78107619D01*
X203226032Y-78649263D02*
X203321539Y-79190907D01*
X203226032Y-78649263D02*
X203747458Y-78151151D01*
X203747458Y-78151151D02*
X203886375Y-78938997D01*
X203816917Y-78545074D02*
X204309320Y-78458250D01*
X203886375Y-78938997D02*
X203226032Y-78649263D01*
%TO.C,D18*%
X126625462Y-104031103D02*
X127019384Y-104100562D01*
X127019384Y-104100562D02*
X126923878Y-104642206D01*
X127019384Y-104100562D02*
X127114891Y-103558918D01*
X127019384Y-104100562D02*
X127679728Y-103810828D01*
X127540810Y-104598674D02*
X127019384Y-104100562D01*
X127610269Y-104204751D02*
X128102672Y-104291575D01*
X127679728Y-103810828D02*
X127540810Y-104598674D01*
%TO.C,D30*%
X196928063Y-45235261D02*
X197321985Y-45165802D01*
X197321985Y-45165802D02*
X197226479Y-44624158D01*
X197321985Y-45165802D02*
X197417492Y-45707446D01*
X197321985Y-45165802D02*
X197843411Y-44667690D01*
X197843411Y-44667690D02*
X197982328Y-45455536D01*
X197912870Y-45061613D02*
X198405273Y-44974789D01*
X197982328Y-45455536D02*
X197321985Y-45165802D01*
%TO.C,D35*%
X202220731Y-101165910D02*
X202614653Y-101096451D01*
X202614653Y-101096451D02*
X202519147Y-100554807D01*
X202614653Y-101096451D02*
X202710160Y-101638095D01*
X202614653Y-101096451D02*
X203136079Y-100598339D01*
X203136079Y-100598339D02*
X203274996Y-101386185D01*
X203205538Y-100992262D02*
X203697941Y-100905438D01*
X203274996Y-101386185D02*
X202614653Y-101096451D01*
%TO.C,D19*%
X259137390Y-87068265D02*
X259531312Y-86998806D01*
X259531312Y-86998806D02*
X259435806Y-86457162D01*
X259531312Y-86998806D02*
X259626819Y-87540450D01*
X259531312Y-86998806D02*
X260052738Y-86500694D01*
X260052738Y-86500694D02*
X260191655Y-87288540D01*
X260122197Y-86894617D02*
X260614600Y-86807793D01*
X260191655Y-87288540D02*
X259531312Y-86998806D01*
%TO.C,D11*%
X111239564Y-61716518D02*
X111633486Y-61785977D01*
X111633486Y-61785977D02*
X111537980Y-62327621D01*
X111633486Y-61785977D02*
X111728993Y-61244333D01*
X111633486Y-61785977D02*
X112293830Y-61496243D01*
X112154912Y-62284089D02*
X111633486Y-61785977D01*
X112224371Y-61890166D02*
X112716774Y-61976990D01*
X112293830Y-61496243D02*
X112154912Y-62284089D01*
%TO.C,D7*%
X91429251Y-70408542D02*
X91823173Y-70478001D01*
X91823173Y-70478001D02*
X91727667Y-71019645D01*
X91823173Y-70478001D02*
X91918680Y-69936357D01*
X91823173Y-70478001D02*
X92483517Y-70188267D01*
X92344599Y-70976113D02*
X91823173Y-70478001D01*
X92414058Y-70582190D02*
X92906461Y-70669014D01*
X92483517Y-70188267D02*
X92344599Y-70976113D01*
%TO.C,D34*%
X219947272Y-98040244D02*
X220341194Y-97970785D01*
X220341194Y-97970785D02*
X220245688Y-97429141D01*
X220341194Y-97970785D02*
X220436701Y-98512429D01*
X220341194Y-97970785D02*
X220862620Y-97472673D01*
X220862620Y-97472673D02*
X221001537Y-98260519D01*
X220932079Y-97866596D02*
X221424482Y-97779772D01*
X221001537Y-98260519D02*
X220341194Y-97970785D01*
%TO.C,D24*%
X232728438Y-40953537D02*
X233122360Y-40884078D01*
X233122360Y-40884078D02*
X233026854Y-40342434D01*
X233122360Y-40884078D02*
X233217867Y-41425722D01*
X233122360Y-40884078D02*
X233643786Y-40385966D01*
X233643786Y-40385966D02*
X233782703Y-41173812D01*
X233713245Y-40779889D02*
X234205648Y-40693065D01*
X233782703Y-41173812D02*
X233122360Y-40884078D01*
%TO.C,D3*%
X57886298Y-53324323D02*
X58280220Y-53393782D01*
X58280220Y-53393782D02*
X58184714Y-53935426D01*
X58280220Y-53393782D02*
X58375727Y-52852138D01*
X58280220Y-53393782D02*
X58940564Y-53104048D01*
X58801646Y-53891894D02*
X58280220Y-53393782D01*
X58871105Y-53497971D02*
X59363508Y-53584795D01*
X58940564Y-53104048D02*
X58801646Y-53891894D01*
%TO.C,D27*%
X213786370Y-37185553D02*
X214180292Y-37116094D01*
X214180292Y-37116094D02*
X214084786Y-36574450D01*
X214180292Y-37116094D02*
X214275799Y-37657738D01*
X214180292Y-37116094D02*
X214701718Y-36617982D01*
X214701718Y-36617982D02*
X214840635Y-37405828D01*
X214771177Y-37011905D02*
X215263580Y-36925081D01*
X214840635Y-37405828D02*
X214180292Y-37116094D01*
%TD*%
D13*
%TO.C,MCU1*%
X150598432Y-51472417D03*
X161998437Y-51472418D03*
X150598433Y-98472418D03*
X161998438Y-98472419D03*
D14*
X147408435Y-50842418D03*
X147408435Y-53382418D03*
X147408435Y-55922420D03*
X147408435Y-58462418D03*
X147408435Y-61002418D03*
X147408435Y-63542418D03*
X147408436Y-66082418D03*
X147408434Y-68622418D03*
X147408435Y-71162418D03*
X147408435Y-73702418D03*
X147408435Y-76242418D03*
X147408435Y-78782418D03*
X147408435Y-81322418D03*
X147408435Y-83862417D03*
X147408435Y-86402417D03*
X147408435Y-88942418D03*
X147408436Y-91482417D03*
X147408433Y-94022417D03*
X147408435Y-96562418D03*
X147408435Y-99102418D03*
X165188435Y-50842418D03*
X165188435Y-53382418D03*
X165188437Y-55922419D03*
X165188434Y-58462419D03*
X165188435Y-61002418D03*
X165188435Y-63542419D03*
X165188435Y-66082419D03*
X165188435Y-68622418D03*
X165188435Y-71162418D03*
X165188435Y-73702418D03*
X165188435Y-76242418D03*
X165188435Y-78782418D03*
X165188436Y-81322418D03*
X165188434Y-83862418D03*
X165188435Y-86402418D03*
X165188435Y-88942418D03*
X165188435Y-91482418D03*
X165188435Y-94022416D03*
X165188435Y-96562418D03*
X165188435Y-99102418D03*
X158838435Y-99102418D03*
X156298435Y-99102418D03*
X153758435Y-99102418D03*
%TD*%
%TO.C,_15*%
X151218431Y-103237300D03*
%TD*%
%TO.C,_17*%
X156298436Y-103237303D03*
%TD*%
%TO.C,_18*%
X158838428Y-103237295D03*
%TD*%
%TO.C,_19*%
X161378430Y-103237297D03*
%TD*%
%TO.C,_16*%
X153758436Y-103237303D03*
%TD*%
M02*
