%TF.GenerationSoftware,KiCad,Pcbnew,8.0.1*%
%TF.CreationDate,2024-05-10T10:41:52+02:00*%
%TF.ProjectId,main,6d61696e-2e6b-4696-9361-645f70636258,v1.0.0*%
%TF.SameCoordinates,Original*%
%TF.FileFunction,Profile,NP*%
%FSLAX46Y46*%
G04 Gerber Fmt 4.6, Leading zero omitted, Abs format (unit mm)*
G04 Created by KiCad (PCBNEW 8.0.1) date 2024-05-10 10:41:52*
%MOMM*%
%LPD*%
G01*
G04 APERTURE LIST*
%TA.AperFunction,Profile*%
%ADD10C,0.150000*%
%TD*%
G04 APERTURE END LIST*
D10*
X240246546Y-27442775D02*
X242503965Y-40245277D01*
X203925225Y-28770073D02*
G75*
G02*
X202708486Y-30507776I-1477197J-260499D01*
G01*
X144193239Y-44771003D02*
G75*
G02*
X142715966Y-43010520I89J1500128D01*
G01*
X229727571Y-99869711D02*
X178454513Y-108910528D01*
X76500916Y-94685077D02*
G75*
G02*
X77252131Y-95054831I-260088J-1476397D01*
G01*
X169880835Y-43010533D02*
G75*
G02*
X168403629Y-44770966I-1477207J-260443D01*
G01*
X244241646Y-41462013D02*
X259013762Y-38857292D01*
X223736742Y-28830764D02*
G75*
G02*
X221999105Y-27614011I-260515J1477090D01*
G01*
X124660504Y-33112479D02*
G75*
G02*
X125877188Y-34850152I-260378J-1477097D01*
G01*
X107802206Y-25062773D02*
G75*
G02*
X109019007Y-26800464I-260380J-1477200D01*
G01*
X221304464Y-23674787D02*
X221999058Y-27614019D01*
X259013768Y-38857294D02*
G75*
G02*
X260751415Y-40074036I260461J-1477182D01*
G01*
X141518803Y-41162182D02*
G75*
G02*
X142735483Y-42899860I-260376J-1477093D01*
G01*
X175128246Y-105822658D02*
G75*
G02*
X176605437Y-107062183I-119J-1500118D01*
G01*
X126746685Y-38557461D02*
X141518803Y-41162182D01*
X235344734Y-95054828D02*
X230478794Y-99499961D01*
X187066929Y-36819785D02*
G75*
G02*
X185850173Y-38557413I-1477401J-260289D01*
G01*
X76500916Y-94685077D02*
X44727044Y-89082488D01*
X169861325Y-42899872D02*
G75*
G02*
X171078074Y-41162236I1477402J260297D01*
G01*
X204794666Y-25062769D02*
X219566781Y-22458052D01*
X135991409Y-107062179D02*
G75*
G02*
X137468621Y-105822647I1477319J-260595D01*
G01*
X187066923Y-36819780D02*
X186719625Y-34850162D01*
X43510303Y-87344806D02*
X51845415Y-40074041D01*
X244241650Y-41462017D02*
G75*
G02*
X242503965Y-40245277I-260522J1477142D01*
G01*
X82118080Y-99499961D02*
X77252135Y-95054827D01*
X125877238Y-34850161D02*
X125529945Y-36819776D01*
X90597813Y-27614023D02*
X91292399Y-23674794D01*
X238508855Y-26226038D02*
G75*
G02*
X240246491Y-27442785I260273J-1477437D01*
G01*
X203577927Y-26800454D02*
G75*
G02*
X204794673Y-25062807I1477299J260379D01*
G01*
X175128246Y-105822658D02*
X137468621Y-105822654D01*
X178454513Y-108910528D02*
G75*
G02*
X176716815Y-107693793I-260385J1477354D01*
G01*
X72350325Y-27442774D02*
G75*
G02*
X74088008Y-26226026I1477100J-260302D01*
G01*
X91292399Y-23674791D02*
G75*
G02*
X93030092Y-22458043I1477228J-260483D01*
G01*
X267869831Y-89082491D02*
X236095948Y-94685079D01*
X260751444Y-40074031D02*
X269086574Y-87344805D01*
X219566783Y-22458051D02*
G75*
G02*
X221304445Y-23674790I260445J-1477224D01*
G01*
X176716823Y-107693792D02*
X176605448Y-107062181D01*
X269086563Y-87344807D02*
G75*
G02*
X267869833Y-89082502I-1477234J-260468D01*
G01*
X235344735Y-95054829D02*
G75*
G02*
X236095944Y-94685054I1011690J-1107343D01*
G01*
X51845420Y-40074040D02*
G75*
G02*
X53583100Y-38857323I1477306J-260635D01*
G01*
X142735538Y-42899870D02*
X142716028Y-43010531D01*
X135880045Y-107693791D02*
G75*
G02*
X134142369Y-108910500I-1477216J260517D01*
G01*
X53583106Y-38857292D02*
X68355207Y-41462019D01*
X126746685Y-38557459D02*
G75*
G02*
X125529953Y-36819777I260444J1477185D01*
G01*
X82869294Y-99869709D02*
G75*
G02*
X82118076Y-99499966I260333J1476935D01*
G01*
X230478793Y-99499960D02*
G75*
G02*
X229727571Y-99869712I-1011466J1106987D01*
G01*
X109888386Y-30507756D02*
G75*
G02*
X108671654Y-28770073I260440J1477183D01*
G01*
X74088006Y-26226037D02*
X88860129Y-28830759D01*
X70092898Y-40245274D02*
X72350331Y-27442772D01*
X109888385Y-30507751D02*
X124660498Y-33112474D01*
X203925225Y-28770073D02*
X203577926Y-26800453D01*
X144193239Y-44771003D02*
X168403629Y-44771001D01*
X169880841Y-43010530D02*
X169861325Y-42899872D01*
X93030091Y-22458050D02*
X107802195Y-25062774D01*
X134142364Y-108910527D02*
X82869294Y-99869709D01*
X109018942Y-26800453D02*
X108671641Y-28770071D01*
X90597806Y-27614023D02*
G75*
G02*
X88860126Y-28830779I-1477280J260551D01*
G01*
X70092895Y-40245277D02*
G75*
G02*
X68355213Y-41461985I-1477066J260303D01*
G01*
X44727044Y-89082487D02*
G75*
G02*
X43510347Y-87344814I260384J1477112D01*
G01*
X223736742Y-28830765D02*
X238508854Y-26226034D01*
X187936363Y-33112479D02*
X202708483Y-30507757D01*
X135991413Y-107062187D02*
X135880038Y-107693790D01*
X171078064Y-41162177D02*
X185850182Y-38557466D01*
X186719619Y-34850166D02*
G75*
G02*
X187936353Y-33112424I1477110J260594D01*
G01*
M02*
