M48
; DRILL file {KiCad 8.0.1} date 2024-05-10T10:41:43+0200
; FORMAT={-:-/ absolute / metric / decimal}
; #@! TF.CreationDate,2024-05-10T10:41:43+02:00
; #@! TF.GenerationSoftware,Kicad,Pcbnew,8.0.1
; #@! TF.FileFunction,NonPlated,1,2,NPTH
FMAT,2
METRIC
; #@! TA.AperFunction,NonPlated,NPTH,ComponentDrill
T1C1.702
; #@! TA.AperFunction,NonPlated,NPTH,ComponentDrill
T2C3.429
%
G90
G05
T1
X48.173Y-81.059
X51.125Y-64.317
X54.077Y-47.575
X59.006Y-82.969
X61.958Y-66.227
X64.91Y-49.486
X68.678Y-68.428
X71.63Y-51.686
X74.582Y-34.944
X79.51Y-70.338
X82.462Y-53.596
X85.415Y-36.854
X87.363Y-92.031
X87.62Y-64.66
X90.572Y-47.918
X93.524Y-31.176
X98.196Y-93.941
X98.453Y-66.57
X101.405Y-49.828
X104.357Y-33.086
X104.478Y-72.709
X105.089Y-95.157
X107.43Y-55.968
X110.382Y-39.226
X115.311Y-74.62
X115.922Y-97.067
X118.263Y-57.878
X121.215Y-41.136
X121.336Y-80.759
X122.816Y-98.282
X124.288Y-64.017
X127.24Y-47.276
X132.169Y-82.669
X133.649Y-100.192
X135.121Y-65.927
X138.073Y-49.186
X174.524Y-49.186
X177.476Y-65.927
X178.948Y-100.192
X180.428Y-82.669
X185.357Y-47.276
X188.309Y-64.017
X189.781Y-98.282
X191.261Y-80.759
X191.382Y-41.136
X194.334Y-57.878
X196.675Y-97.067
X197.286Y-74.62
X202.215Y-39.226
X205.167Y-55.968
X207.508Y-95.157
X208.119Y-72.709
X208.24Y-33.086
X211.192Y-49.828
X214.144Y-66.57
X214.401Y-93.941
X219.073Y-31.176
X222.025Y-47.918
X224.977Y-64.66
X225.234Y-92.031
X227.182Y-36.854
X230.134Y-53.596
X233.086Y-70.338
X238.015Y-34.944
X240.967Y-51.686
X243.919Y-68.428
X247.687Y-49.486
X250.639Y-66.227
X253.591Y-82.969
X258.52Y-47.575
X261.472Y-64.317
X264.424Y-81.059
T2
X53.589Y-82.014
X56.541Y-65.272
X59.493Y-48.531
X74.094Y-69.383
X77.046Y-52.641
X79.998Y-35.899
X92.779Y-92.986
X93.036Y-65.615
X95.988Y-48.873
X98.94Y-32.131
X109.894Y-73.664
X110.506Y-96.112
X112.846Y-56.923
X115.798Y-40.181
X126.753Y-81.714
X128.232Y-99.237
X129.705Y-64.972
X132.657Y-48.231
X179.94Y-48.231
X182.892Y-64.972
X184.365Y-99.237
X185.844Y-81.714
X196.798Y-40.181
X199.75Y-56.923
X202.091Y-96.112
X202.702Y-73.664
X213.657Y-32.131
X216.609Y-48.873
X219.561Y-65.615
X219.818Y-92.986
X232.599Y-35.899
X235.551Y-52.641
X238.503Y-69.383
X253.104Y-48.531
X256.056Y-65.272
X259.008Y-82.014
M30
