%TF.GenerationSoftware,KiCad,Pcbnew,8.0.1*%
%TF.CreationDate,2025-12-13T21:48:51+01:00*%
%TF.ProjectId,fat_cruiser,6661745f-6372-4756-9973-65722e6b6963,v2.0.0*%
%TF.SameCoordinates,Original*%
%TF.FileFunction,Paste,Top*%
%TF.FilePolarity,Positive*%
%FSLAX46Y46*%
G04 Gerber Fmt 4.6, Leading zero omitted, Abs format (unit mm)*
G04 Created by KiCad (PCBNEW 8.0.1) date 2025-12-13 21:48:51*
%MOMM*%
%LPD*%
G01*
G04 APERTURE LIST*
G04 Aperture macros list*
%AMRotRect*
0 Rectangle, with rotation*
0 The origin of the aperture is its center*
0 $1 length*
0 $2 width*
0 $3 Rotation angle, in degrees counterclockwise*
0 Add horizontal line*
21,1,$1,$2,0,0,$3*%
G04 Aperture macros list end*
%ADD10R,0.900000X1.250000*%
%ADD11R,0.900000X0.900000*%
%ADD12RotRect,0.900000X1.200000X348.000000*%
%ADD13RotRect,0.900000X1.200000X344.000000*%
%ADD14RotRect,0.900000X1.200000X334.000000*%
%ADD15RotRect,0.900000X1.200000X324.000000*%
%ADD16RotRect,0.900000X1.200000X12.000000*%
%ADD17RotRect,0.900000X1.200000X16.000000*%
%ADD18RotRect,0.900000X1.200000X26.000000*%
%ADD19RotRect,0.900000X1.200000X36.000000*%
G04 APERTURE END LIST*
D10*
%TO.C,T4*%
X152502326Y-140882443D03*
X155502324Y-140882443D03*
X157002326Y-140882443D03*
D11*
X151052326Y-144057443D03*
X151052326Y-141857443D03*
X158452326Y-141857443D03*
X158452326Y-144057443D03*
%TD*%
D12*
%TO.C,D1*%
X43399089Y-107660641D03*
X46626977Y-108346749D03*
%TD*%
%TO.C,D2*%
X46933588Y-91032135D03*
X50161476Y-91718243D03*
%TD*%
%TO.C,D3*%
X50468086Y-74403623D03*
X53695974Y-75089731D03*
%TD*%
%TO.C,D4*%
X63500688Y-99665283D03*
X66728576Y-100351391D03*
%TD*%
%TO.C,D5*%
X67035186Y-83036769D03*
X70263074Y-83722877D03*
%TD*%
%TO.C,D6*%
X70569687Y-66408261D03*
X73797575Y-67094369D03*
%TD*%
%TO.C,D7*%
X82562728Y-96560658D03*
X85790616Y-97246766D03*
%TD*%
%TO.C,D8*%
X86097223Y-79932149D03*
X89325111Y-80618257D03*
%TD*%
%TO.C,D9*%
X89631723Y-63303637D03*
X92859611Y-63989745D03*
%TD*%
%TO.C,D10*%
X99129823Y-105193807D03*
X102357711Y-105879915D03*
%TD*%
%TO.C,D11*%
X102664325Y-88565296D03*
X105892213Y-89251404D03*
%TD*%
%TO.C,D12*%
X106198821Y-71936791D03*
X109426709Y-72622899D03*
%TD*%
%TO.C,D13*%
X116320659Y-110892510D03*
X119548547Y-111578618D03*
%TD*%
%TO.C,D14*%
X119855155Y-94264001D03*
X123083043Y-94950109D03*
%TD*%
%TO.C,D15*%
X123389653Y-77635493D03*
X126617541Y-78321601D03*
%TD*%
D13*
%TO.C,D16*%
X90529445Y-122353388D03*
X93701609Y-123262988D03*
%TD*%
D14*
%TO.C,D17*%
X107942587Y-128729591D03*
X110908607Y-130176215D03*
%TD*%
D15*
%TO.C,D18*%
X123983968Y-138032682D03*
X126653724Y-139972374D03*
%TD*%
D16*
%TO.C,D19*%
X262877671Y-108346748D03*
X266105559Y-107660640D03*
%TD*%
%TO.C,D20*%
X259343170Y-91718238D03*
X262571058Y-91032130D03*
%TD*%
%TO.C,D21*%
X255808673Y-75089729D03*
X259036561Y-74403621D03*
%TD*%
%TO.C,D22*%
X242776071Y-100351390D03*
X246003959Y-99665282D03*
%TD*%
%TO.C,D23*%
X239241573Y-83722879D03*
X242469461Y-83036771D03*
%TD*%
%TO.C,D24*%
X235707077Y-67094368D03*
X238934965Y-66408260D03*
%TD*%
%TO.C,D25*%
X223714035Y-97246766D03*
X226941923Y-96560658D03*
%TD*%
%TO.C,D26*%
X220179538Y-80618256D03*
X223407426Y-79932148D03*
%TD*%
%TO.C,D27*%
X216645038Y-63989746D03*
X219872926Y-63303638D03*
%TD*%
%TO.C,D28*%
X207146936Y-105879913D03*
X210374824Y-105193805D03*
%TD*%
%TO.C,D29*%
X203612435Y-89251406D03*
X206840323Y-88565298D03*
%TD*%
%TO.C,D30*%
X200077938Y-72622897D03*
X203305826Y-71936789D03*
%TD*%
%TO.C,D31*%
X189956104Y-111578620D03*
X193183992Y-110892512D03*
%TD*%
%TO.C,D32*%
X186421606Y-94950113D03*
X189649494Y-94264005D03*
%TD*%
%TO.C,D33*%
X182887104Y-78321601D03*
X186114992Y-77635493D03*
%TD*%
D17*
%TO.C,D34*%
X215803041Y-123262990D03*
X218975205Y-122353386D03*
%TD*%
D18*
%TO.C,D35*%
X198596042Y-130176214D03*
X201562062Y-128729590D03*
%TD*%
D19*
%TO.C,D36*%
X182850927Y-139972376D03*
X185520683Y-138032684D03*
%TD*%
M02*
