%TF.GenerationSoftware,KiCad,Pcbnew,8.0.1*%
%TF.CreationDate,2025-12-13T21:48:51+01:00*%
%TF.ProjectId,fat_cruiser,6661745f-6372-4756-9973-65722e6b6963,v2.0.0*%
%TF.SameCoordinates,Original*%
%TF.FileFunction,Profile,NP*%
%FSLAX46Y46*%
G04 Gerber Fmt 4.6, Leading zero omitted, Abs format (unit mm)*
G04 Created by KiCad (PCBNEW 8.0.1) date 2025-12-13 21:48:51*
%MOMM*%
%LPD*%
G01*
G04 APERTURE LIST*
%TA.AperFunction,Profile*%
%ADD10C,0.150000*%
%TD*%
G04 APERTURE END LIST*
D10*
X33679768Y-109377394D02*
X44366430Y-59100607D01*
X46145517Y-57945254D02*
X53775070Y-59566965D01*
X55554159Y-58411612D02*
X56344222Y-54694651D01*
X58123310Y-53539296D02*
X62231529Y-54412526D01*
X64010622Y-53257173D02*
X64468027Y-51105249D01*
X66247114Y-49949894D02*
X80919328Y-53068568D01*
X82698419Y-51913215D02*
X83530062Y-48000624D01*
X85309152Y-46845270D02*
X103502700Y-50712428D01*
X104658052Y-52491517D02*
X104312917Y-54115242D01*
X105468274Y-55894333D02*
X119864183Y-58954276D01*
X121051947Y-60454774D02*
X121043526Y-60834186D01*
X122272971Y-62342925D02*
X137209989Y-65078198D01*
X138407023Y-66865534D02*
X138406076Y-66869983D01*
X139873297Y-68681851D02*
X169631350Y-68681851D01*
X171098575Y-66869985D02*
X171097626Y-66865531D01*
X172294659Y-65078199D02*
X187231680Y-62342926D01*
X188461125Y-60834184D02*
X188452705Y-60454774D01*
X189640466Y-58954276D02*
X204036378Y-55894331D01*
X205191728Y-54115243D02*
X204846600Y-52491517D01*
X206001950Y-50712427D02*
X224195496Y-46845272D01*
X225974587Y-48000625D02*
X226806231Y-51913213D01*
X228585320Y-53068569D02*
X243257535Y-49949896D01*
X245036624Y-51105246D02*
X245494029Y-53257174D01*
X247273118Y-54412525D02*
X251381341Y-53539296D01*
X253160427Y-54694651D02*
X253950493Y-58411610D01*
X255729580Y-59566967D02*
X263359131Y-57945256D01*
X265138221Y-59100609D02*
X275824880Y-109377395D01*
X274669529Y-111156485D02*
X233370814Y-119934796D01*
X232487035Y-120496243D02*
X229505847Y-124431501D01*
X228723657Y-124967620D02*
X210297231Y-130251312D01*
X210053131Y-130345015D02*
X194641390Y-137861820D01*
X179718429Y-148675821D02*
X194417272Y-137996488D01*
X177623225Y-148343973D02*
X175956436Y-146049832D01*
X174742909Y-145431512D02*
X134761740Y-145431511D01*
X133548212Y-146049834D02*
X131881424Y-148343973D01*
X115087379Y-137996487D02*
X129786219Y-148675819D01*
X114863259Y-137861819D02*
X99451518Y-130345014D01*
X99207419Y-130251311D02*
X82398296Y-125431373D01*
X81758655Y-125057651D02*
X76992558Y-120358820D01*
X76251330Y-119959771D02*
X34835120Y-111156484D01*
X44366429Y-59100607D02*
G75*
G02*
X46145514Y-57945272I1467189J-311842D01*
G01*
X55554158Y-58411612D02*
G75*
G02*
X53775064Y-59566995I-1467243J311862D01*
G01*
X56344223Y-54694651D02*
G75*
G02*
X58123298Y-53539353I1467194J-311900D01*
G01*
X64010618Y-53257171D02*
G75*
G02*
X62231527Y-54412537I-1467202J311822D01*
G01*
X64468027Y-51105249D02*
G75*
G02*
X66247101Y-49949957I1467189J-311900D01*
G01*
X82698418Y-51913215D02*
G75*
G02*
X80919332Y-53068548I-1467202J311866D01*
G01*
X83530063Y-48000624D02*
G75*
G02*
X85309167Y-46845202I1467252J-311824D01*
G01*
X103502700Y-50712429D02*
G75*
G02*
X104658041Y-52491515I-311883J-1467220D01*
G01*
X105468274Y-55894333D02*
G75*
G02*
X104312945Y-54115249I311843J1467184D01*
G01*
X119864183Y-58954277D02*
G75*
G02*
X121051898Y-60454773I-311867J-1467172D01*
G01*
X122272971Y-62342925D02*
G75*
G02*
X121043480Y-60834185I270142J1475476D01*
G01*
X137209989Y-65078199D02*
G75*
G02*
X138407018Y-66865533I-270172J-1475451D01*
G01*
X139873297Y-68681851D02*
G75*
G02*
X138406087Y-66869985I17J1500004D01*
G01*
X171098575Y-66869985D02*
G75*
G02*
X169631350Y-68681886I-1467260J-311864D01*
G01*
X171097627Y-66865531D02*
G75*
G02*
X172294661Y-65078211I1467186J311880D01*
G01*
X188461124Y-60834184D02*
G75*
G02*
X187231675Y-62342898I-1499609J-33266D01*
G01*
X188452705Y-60454774D02*
G75*
G02*
X189640459Y-58954245I1499610J33326D01*
G01*
X205191733Y-54115245D02*
G75*
G02*
X204036387Y-55894373I-1467218J-311903D01*
G01*
X204846600Y-52491517D02*
G75*
G02*
X206001951Y-50712432I1467215J311869D01*
G01*
X224195496Y-46845272D02*
G75*
G02*
X225974495Y-48000645I311818J-1467179D01*
G01*
X228585320Y-53068569D02*
G75*
G02*
X226806188Y-51913222I-311905J1467221D01*
G01*
X243257535Y-49949897D02*
G75*
G02*
X245036660Y-51105238I311880J-1467251D01*
G01*
X247273118Y-54412524D02*
G75*
G02*
X245494022Y-53257171I-311903J1467176D01*
G01*
X251381341Y-53539296D02*
G75*
G02*
X253160460Y-54694644I311874J-1467252D01*
G01*
X255729580Y-59566967D02*
G75*
G02*
X253950496Y-58411609I-311865J1467218D01*
G01*
X263359134Y-57945258D02*
G75*
G02*
X265138217Y-59100610I311883J-1467191D01*
G01*
X275824879Y-109377395D02*
G75*
G02*
X274669532Y-111156501I-1467265J-311854D01*
G01*
X232487035Y-120496243D02*
G75*
G02*
X233370812Y-119934788I1195681J-905805D01*
G01*
X229505847Y-124431501D02*
G75*
G02*
X228723657Y-124967618I-1195633J905754D01*
G01*
X210053131Y-130345015D02*
G75*
G02*
X210297229Y-130251306I657586J-1348134D01*
G01*
X194417272Y-137996488D02*
G75*
G02*
X194641391Y-137861823I881643J-1213462D01*
G01*
X179718428Y-148675820D02*
G75*
G02*
X177623179Y-148344006I-881711J1213570D01*
G01*
X174742909Y-145431512D02*
G75*
G02*
X175956451Y-146049821I7J-1500038D01*
G01*
X133548212Y-146049834D02*
G75*
G02*
X134761740Y-145431547I1213501J-881715D01*
G01*
X131881423Y-148343973D02*
G75*
G02*
X129786239Y-148675792I-1213508J881724D01*
G01*
X114863259Y-137861819D02*
G75*
G02*
X115087378Y-137996488I-657544J-1348130D01*
G01*
X99207419Y-130251311D02*
G75*
G02*
X99451521Y-130345008I-413405J-1441838D01*
G01*
X82398296Y-125431373D02*
G75*
G02*
X81758640Y-125057667I413420J1441923D01*
G01*
X76251330Y-119959771D02*
G75*
G02*
X76992533Y-120358845I-311913J-1467176D01*
G01*
X34835122Y-111156483D02*
G75*
G02*
X33679772Y-109377395I311895J1467236D01*
G01*
M02*
