M48
; DRILL file {KiCad 8.0.1} date 2025-12-13T21:48:44+0100
; FORMAT={-:-/ absolute / metric / decimal}
; #@! TF.CreationDate,2025-12-13T21:48:44+01:00
; #@! TF.GenerationSoftware,Kicad,Pcbnew,8.0.1
; #@! TF.FileFunction,NonPlated,1,2,NPTH
FMAT,2
METRIC
; #@! TA.AperFunction,NonPlated,NPTH,ComponentDrill
T1C0.900
; #@! TA.AperFunction,NonPlated,NPTH,ComponentDrill
T2C1.702
; #@! TA.AperFunction,NonPlated,NPTH,ComponentDrill
T3C3.000
; #@! TA.AperFunction,NonPlated,NPTH,ComponentDrill
T4C3.429
%
G90
G05
T1
X153.252Y-142.957
X156.252Y-142.957
T2
X40.673Y-101.969
X44.207Y-85.341
X47.742Y-68.712
X51.432Y-104.256
X54.967Y-87.628
X58.501Y-70.999
X60.774Y-93.974
X64.309Y-77.346
X67.843Y-60.717
X71.534Y-96.261
X75.069Y-79.633
X78.603Y-63.004
X79.836Y-90.869
X83.371Y-74.241
X86.905Y-57.612
X88.207Y-116.486
X90.596Y-93.156
X94.131Y-76.528
X96.404Y-99.503
X97.665Y-59.899
X98.781Y-119.518
X99.938Y-82.874
X103.473Y-66.246
X106.674Y-122.548
X107.163Y-101.79
X110.698Y-85.161
X113.594Y-105.201
X114.232Y-68.533
X116.561Y-127.37
X117.129Y-88.573
X120.663Y-71.944
X123.808Y-131.725
X124.354Y-107.488
X127.888Y-90.86
X131.423Y-74.231
X132.707Y-138.19
X176.797Y-138.19
X178.082Y-74.231
X181.616Y-90.86
X185.151Y-107.488
X185.696Y-131.725
X188.841Y-71.944
X192.376Y-88.573
X192.944Y-127.37
X195.273Y-68.533
X195.91Y-105.201
X198.807Y-85.161
X202.342Y-101.79
X202.831Y-122.548
X206.032Y-66.246
X209.567Y-82.874
X210.724Y-119.518
X211.84Y-59.899
X213.101Y-99.503
X215.374Y-76.528
X218.909Y-93.156
X221.298Y-116.486
X222.599Y-57.612
X226.134Y-74.241
X229.668Y-90.869
X230.902Y-63.004
X234.436Y-79.633
X237.971Y-96.261
X241.661Y-60.717
X245.196Y-77.346
X248.73Y-93.974
X251.003Y-70.999
X254.538Y-87.628
X258.072Y-104.256
X261.763Y-68.712
X265.297Y-85.341
X268.832Y-101.969
T3
X47.29Y-97.293
X50.824Y-80.664
X51.723Y-100.484
X54.359Y-64.036
X55.257Y-83.856
X58.792Y-67.227
X67.391Y-89.298
X70.926Y-72.669
X71.825Y-92.489
X74.46Y-56.041
X75.359Y-75.861
X78.894Y-59.232
X86.453Y-86.193
X89.988Y-69.564
X90.887Y-89.384
X93.522Y-52.936
X94.421Y-72.756
X95.134Y-112.282
X97.956Y-56.127
X99.334Y-115.775
X103.02Y-94.826
X106.555Y-78.198
X107.454Y-98.018
X110.089Y-61.569
X110.988Y-81.389
X114.226Y-119.611
X114.523Y-64.761
X117.755Y-123.78
X120.211Y-100.525
X123.746Y-83.896
X124.645Y-103.716
X127.28Y-67.268
X128.179Y-87.088
X131.714Y-70.459
X131.755Y-130.144
X134.507Y-134.863
X177.75Y-130.144
X182.224Y-67.268
X183.088Y-128.985
X185.759Y-83.896
X187.573Y-68.38
X189.293Y-100.525
X191.107Y-85.009
X194.642Y-101.637
X195.279Y-119.611
X199.415Y-61.569
X200.737Y-119.397
X202.95Y-78.198
X204.763Y-62.681
X206.484Y-94.826
X208.298Y-79.31
X211.832Y-95.939
X214.371Y-112.282
X215.982Y-52.936
X219.517Y-69.564
X219.784Y-113.019
X221.33Y-54.048
X223.051Y-86.193
X224.865Y-70.677
X228.399Y-87.305
X235.044Y-56.041
X238.579Y-72.669
X240.393Y-57.153
X242.113Y-89.298
X243.927Y-73.781
X247.462Y-90.41
X255.146Y-64.036
X258.68Y-80.664
X260.494Y-65.148
X262.215Y-97.293
X264.029Y-81.777
X267.563Y-98.405
T4
X46.053Y-103.113
X49.587Y-86.484
X53.122Y-69.856
X66.154Y-95.118
X69.689Y-78.489
X73.223Y-61.861
X85.216Y-92.013
X88.751Y-75.384
X92.285Y-58.756
X93.494Y-118.002
X101.783Y-100.646
X105.318Y-84.018
X108.852Y-67.389
X111.617Y-124.959
X118.974Y-106.345
X122.509Y-89.716
X126.043Y-73.088
X128.258Y-134.957
X181.247Y-134.957
X183.461Y-73.088
X186.996Y-89.716
X190.53Y-106.345
X197.887Y-124.959
X200.652Y-67.389
X204.187Y-84.018
X207.721Y-100.646
X216.011Y-118.002
X217.219Y-58.756
X220.754Y-75.384
X224.288Y-92.013
X236.281Y-61.861
X239.816Y-78.489
X243.35Y-95.118
X256.383Y-69.856
X259.918Y-86.484
X263.452Y-103.113
M30
