%TF.GenerationSoftware,KiCad,Pcbnew,8.0.1*%
%TF.CreationDate,2025-12-13T21:48:51+01:00*%
%TF.ProjectId,fat_cruiser,6661745f-6372-4756-9973-65722e6b6963,v2.0.0*%
%TF.SameCoordinates,Original*%
%TF.FileFunction,Soldermask,Top*%
%TF.FilePolarity,Negative*%
%FSLAX46Y46*%
G04 Gerber Fmt 4.6, Leading zero omitted, Abs format (unit mm)*
G04 Created by KiCad (PCBNEW 8.0.1) date 2025-12-13 21:48:51*
%MOMM*%
%LPD*%
G01*
G04 APERTURE LIST*
G04 Aperture macros list*
%AMRotRect*
0 Rectangle, with rotation*
0 The origin of the aperture is its center*
0 $1 length*
0 $2 width*
0 $3 Rotation angle, in degrees counterclockwise*
0 Add horizontal line*
21,1,$1,$2,0,0,$3*%
G04 Aperture macros list end*
%ADD10C,1.400000*%
%ADD11R,0.900000X1.250000*%
%ADD12R,0.900000X0.900000*%
%ADD13C,3.429000*%
%ADD14C,1.701800*%
%ADD15C,3.000000*%
%ADD16C,1.752600*%
%ADD17RotRect,0.900000X1.200000X348.000000*%
%ADD18RotRect,1.778000X1.778000X348.000000*%
%ADD19C,1.905000*%
%ADD20RotRect,0.900000X1.200000X344.000000*%
%ADD21RotRect,1.778000X1.778000X344.000000*%
%ADD22RotRect,0.900000X1.200000X334.000000*%
%ADD23RotRect,1.778000X1.778000X334.000000*%
%ADD24RotRect,0.900000X1.200000X324.000000*%
%ADD25RotRect,1.778000X1.778000X324.000000*%
%ADD26RotRect,0.900000X1.200000X12.000000*%
%ADD27RotRect,1.778000X1.778000X12.000000*%
%ADD28RotRect,0.900000X1.200000X16.000000*%
%ADD29RotRect,1.778000X1.778000X16.000000*%
%ADD30RotRect,0.900000X1.200000X26.000000*%
%ADD31RotRect,1.778000X1.778000X26.000000*%
%ADD32RotRect,0.900000X1.200000X36.000000*%
%ADD33RotRect,1.778000X1.778000X36.000000*%
%ADD34R,1.752600X1.752600*%
%ADD35C,6.400000*%
%ADD36C,4.400000*%
%ADD37R,1.800000X1.800000*%
%ADD38R,1.200000X1.700000*%
%ADD39O,1.200000X1.700000*%
G04 APERTURE END LIST*
D10*
%TO.C,T4*%
X153252326Y-142957441D03*
X156252326Y-142957445D03*
D11*
X152502326Y-140882443D03*
X155502324Y-140882443D03*
X157002326Y-140882443D03*
D12*
X151052326Y-144057443D03*
X151052326Y-141857443D03*
X158452326Y-141857443D03*
X158452326Y-144057443D03*
%TD*%
D13*
%TO.C,S1*%
X46052596Y-103112955D03*
D14*
X51432408Y-104256469D03*
X40672784Y-101969441D03*
D15*
X51723003Y-100484460D03*
X47289671Y-97292977D03*
D16*
X43493689Y-99399787D03*
X54333888Y-103953091D03*
%TD*%
D13*
%TO.C,S2*%
X49587090Y-86484449D03*
D14*
X54966902Y-87627963D03*
X44207278Y-85340935D03*
D15*
X55257497Y-83855954D03*
X50824165Y-80664471D03*
D16*
X47028183Y-82771281D03*
X57868382Y-87324585D03*
%TD*%
D13*
%TO.C,S3*%
X53121592Y-69855940D03*
D14*
X58501404Y-70999454D03*
X47741780Y-68712426D03*
D15*
X58791999Y-67227445D03*
X54358667Y-64035962D03*
D16*
X50562685Y-66142772D03*
X61402884Y-70696076D03*
%TD*%
D13*
%TO.C,S4*%
X66154191Y-95117597D03*
D14*
X71534003Y-96261111D03*
X60774379Y-93974083D03*
D15*
X71824598Y-92489102D03*
X67391266Y-89297619D03*
D16*
X63595284Y-91404429D03*
X74435483Y-95957733D03*
%TD*%
D13*
%TO.C,S5*%
X69688689Y-78489087D03*
D14*
X75068501Y-79632601D03*
X64308877Y-77345573D03*
D15*
X75359096Y-75860592D03*
X70925764Y-72669109D03*
D16*
X67129782Y-74775919D03*
X77969981Y-79329223D03*
%TD*%
D13*
%TO.C,S6*%
X73223187Y-61860577D03*
D14*
X78602999Y-63004091D03*
X67843375Y-60717063D03*
D15*
X78893594Y-59232082D03*
X74460262Y-56040599D03*
D16*
X70664280Y-58147409D03*
X81504479Y-62700713D03*
%TD*%
D13*
%TO.C,S7*%
X85216228Y-92012973D03*
D14*
X90596040Y-93156487D03*
X79836416Y-90869459D03*
D15*
X90886635Y-89384478D03*
X86453303Y-86192995D03*
D16*
X82657321Y-88299805D03*
X93497520Y-92853109D03*
%TD*%
D13*
%TO.C,S8*%
X88750729Y-75384465D03*
D14*
X94130541Y-76527979D03*
X83370917Y-74240951D03*
D15*
X94421136Y-72755970D03*
X89987804Y-69564487D03*
D16*
X86191822Y-71671297D03*
X97032021Y-76224601D03*
%TD*%
D13*
%TO.C,S9*%
X92285228Y-58755956D03*
D14*
X97665040Y-59899470D03*
X86905416Y-57612442D03*
D15*
X97955635Y-56127461D03*
X93522303Y-52935978D03*
D16*
X89726321Y-55042788D03*
X100566520Y-59596092D03*
%TD*%
D13*
%TO.C,S10*%
X101783326Y-100646122D03*
D14*
X107163138Y-101789636D03*
X96403514Y-99502608D03*
D15*
X107453733Y-98017627D03*
X103020401Y-94826144D03*
D16*
X99224419Y-96932954D03*
X110064618Y-101486258D03*
%TD*%
D13*
%TO.C,S11*%
X105317822Y-84017614D03*
D14*
X110697634Y-85161128D03*
X99938010Y-82874100D03*
D15*
X110988229Y-81389119D03*
X106554897Y-78197636D03*
D16*
X102758915Y-80304446D03*
X113599114Y-84857750D03*
%TD*%
D13*
%TO.C,S12*%
X108852326Y-67389104D03*
D14*
X114232138Y-68532618D03*
X103472514Y-66245590D03*
D15*
X114522733Y-64760609D03*
X110089401Y-61569126D03*
D16*
X106293419Y-63675936D03*
X117133618Y-68229240D03*
%TD*%
D13*
%TO.C,S13*%
X118974162Y-106344828D03*
D14*
X124353974Y-107488342D03*
X113594350Y-105201314D03*
D15*
X124644569Y-103716333D03*
X120211237Y-100524850D03*
D16*
X116415255Y-102631660D03*
X127255454Y-107184964D03*
%TD*%
D13*
%TO.C,S14*%
X122508661Y-89716319D03*
D14*
X127888473Y-90859833D03*
X117128849Y-88572805D03*
D15*
X128179068Y-87087824D03*
X123745736Y-83896341D03*
D16*
X119949754Y-86003151D03*
X130789953Y-90556455D03*
%TD*%
D13*
%TO.C,S15*%
X126043158Y-73087809D03*
D14*
X131422970Y-74231323D03*
X120663346Y-71944295D03*
D15*
X131713565Y-70459314D03*
X127280233Y-67267831D03*
D16*
X123484251Y-69374641D03*
X134324450Y-73927945D03*
%TD*%
D13*
%TO.C,S16*%
X93493716Y-118001879D03*
D14*
X98780655Y-119517884D03*
X88206777Y-116485874D03*
D15*
X99333665Y-115775334D03*
X95133759Y-112282372D03*
D16*
X91200060Y-114119255D03*
X101696231Y-119417643D03*
%TD*%
D13*
%TO.C,S17*%
X111617455Y-124958932D03*
D14*
X116560822Y-127369973D03*
X106674088Y-122547891D03*
D15*
X117755317Y-123780310D03*
X114225765Y-119611107D03*
D16*
X110032855Y-120737005D03*
X119449508Y-127777539D03*
%TD*%
D13*
%TO.C,S18*%
X128257773Y-134957442D03*
D14*
X132707366Y-138190261D03*
X123808180Y-131724623D03*
D15*
X134507053Y-134862555D03*
X131755095Y-130143791D03*
D16*
X127430377Y-130524493D03*
X135481395Y-139093250D03*
%TD*%
D13*
%TO.C,S19*%
X263452058Y-103112957D03*
D14*
X268831870Y-101969443D03*
X258072246Y-104256471D03*
D15*
X267563127Y-98405345D03*
X262214983Y-97292979D03*
D16*
X259604098Y-100761610D03*
X271359109Y-100512155D03*
%TD*%
D13*
%TO.C,S20*%
X259917556Y-86484448D03*
D14*
X265297368Y-85340934D03*
X254537744Y-87627962D03*
D15*
X264028625Y-81776836D03*
X258680481Y-80664470D03*
D16*
X256069596Y-84133101D03*
X267824607Y-83883646D03*
%TD*%
D13*
%TO.C,S21*%
X256383058Y-69855939D03*
D14*
X261762870Y-68712425D03*
X251003246Y-70999453D03*
D15*
X260494127Y-65148327D03*
X255145983Y-64035961D03*
D16*
X252535098Y-67504592D03*
X264290109Y-67255137D03*
%TD*%
D13*
%TO.C,S22*%
X243350457Y-95117597D03*
D14*
X248730269Y-93974083D03*
X237970645Y-96261111D03*
D15*
X247461526Y-90409985D03*
X242113382Y-89297619D03*
D16*
X239502497Y-92766250D03*
X251257508Y-92516795D03*
%TD*%
D13*
%TO.C,S23*%
X239815961Y-78489086D03*
D14*
X245195773Y-77345572D03*
X234436149Y-79632600D03*
D15*
X243927030Y-73781474D03*
X238578886Y-72669108D03*
D16*
X235968001Y-76137739D03*
X247723012Y-75888284D03*
%TD*%
D13*
%TO.C,S24*%
X236281463Y-61860578D03*
D14*
X241661275Y-60717064D03*
X230901651Y-63004092D03*
D15*
X240392532Y-57152966D03*
X235044388Y-56040600D03*
D16*
X232433503Y-59509231D03*
X244188514Y-59259776D03*
%TD*%
D13*
%TO.C,S25*%
X224288421Y-92012973D03*
D14*
X229668233Y-90869459D03*
X218908609Y-93156487D03*
D15*
X228399490Y-87305361D03*
X223051346Y-86192995D03*
D16*
X220440461Y-89661626D03*
X232195472Y-89412171D03*
%TD*%
D13*
%TO.C,S26*%
X220753921Y-75384465D03*
D14*
X226133733Y-74240951D03*
X215374109Y-76527979D03*
D15*
X224864990Y-70676853D03*
X219516846Y-69564487D03*
D16*
X216905961Y-73033118D03*
X228660972Y-72783663D03*
%TD*%
D13*
%TO.C,S27*%
X217219423Y-58755955D03*
D14*
X222599235Y-57612441D03*
X211839611Y-59899469D03*
D15*
X221330492Y-54048343D03*
X215982348Y-52935977D03*
D16*
X213371463Y-56404608D03*
X225126474Y-56155153D03*
%TD*%
D13*
%TO.C,S28*%
X207721323Y-100646123D03*
D14*
X213101135Y-99502609D03*
X202341511Y-101789637D03*
D15*
X211832392Y-95938511D03*
X206484248Y-94826145D03*
D16*
X203873363Y-98294776D03*
X215628374Y-98045321D03*
%TD*%
D13*
%TO.C,S29*%
X204186822Y-84017613D03*
D14*
X209566634Y-82874099D03*
X198807010Y-85161127D03*
D15*
X208297891Y-79310001D03*
X202949747Y-78197635D03*
D16*
X200338862Y-81666266D03*
X212093873Y-81416811D03*
%TD*%
D13*
%TO.C,S30*%
X200652325Y-67389103D03*
D14*
X206032137Y-66245589D03*
X195272513Y-68532617D03*
D15*
X204763394Y-62681491D03*
X199415250Y-61569125D03*
D16*
X196804365Y-65037756D03*
X208559376Y-64788301D03*
%TD*%
D13*
%TO.C,S31*%
X190530488Y-106344830D03*
D14*
X195910300Y-105201316D03*
X185150676Y-107488344D03*
D15*
X194641557Y-101637218D03*
X189293413Y-100524852D03*
D16*
X186682528Y-103993483D03*
X198437539Y-103744028D03*
%TD*%
D13*
%TO.C,S32*%
X186995990Y-89716317D03*
D14*
X192375802Y-88572803D03*
X181616178Y-90859831D03*
D15*
X191107059Y-85008705D03*
X185758915Y-83896339D03*
D16*
X183148030Y-87364970D03*
X194903041Y-87115515D03*
%TD*%
D13*
%TO.C,S33*%
X183461494Y-73087810D03*
D14*
X188841306Y-71944296D03*
X178081682Y-74231324D03*
D15*
X187572563Y-68380198D03*
X182224419Y-67267832D03*
D16*
X179613534Y-70736463D03*
X191368545Y-70487008D03*
%TD*%
D13*
%TO.C,S34*%
X216010934Y-118001879D03*
D14*
X221297873Y-116485874D03*
X210723995Y-119517884D03*
D15*
X219783602Y-113018961D03*
X214370891Y-112282372D03*
D16*
X212008326Y-115924680D03*
X223717301Y-114855844D03*
%TD*%
D13*
%TO.C,S35*%
X197887196Y-124958930D03*
D14*
X202830563Y-122547889D03*
X192943829Y-127369971D03*
D15*
X200737274Y-119396597D03*
X195278886Y-119611105D03*
D16*
X193584695Y-123608334D03*
X204930183Y-120522494D03*
%TD*%
D13*
%TO.C,S36*%
X181246877Y-134957445D03*
D14*
X185696470Y-131724626D03*
X176797284Y-138190264D03*
D15*
X183087767Y-128984705D03*
X177749555Y-130143794D03*
D16*
X176775212Y-134374489D03*
X187412486Y-129365407D03*
%TD*%
D17*
%TO.C,D1*%
X43399089Y-107660641D03*
X46626977Y-108346749D03*
D18*
X41286291Y-107211550D03*
D19*
X48739775Y-108795840D03*
%TD*%
D17*
%TO.C,D2*%
X46933588Y-91032135D03*
X50161476Y-91718243D03*
D18*
X44820790Y-90583044D03*
D19*
X52274274Y-92167334D03*
%TD*%
D17*
%TO.C,D3*%
X50468086Y-74403623D03*
X53695974Y-75089731D03*
D18*
X48355288Y-73954532D03*
D19*
X55808772Y-75538822D03*
%TD*%
D17*
%TO.C,D4*%
X63500688Y-99665283D03*
X66728576Y-100351391D03*
D18*
X61387890Y-99216192D03*
D19*
X68841374Y-100800482D03*
%TD*%
D17*
%TO.C,D5*%
X67035186Y-83036769D03*
X70263074Y-83722877D03*
D18*
X64922388Y-82587678D03*
D19*
X72375872Y-84171968D03*
%TD*%
D17*
%TO.C,D6*%
X70569687Y-66408261D03*
X73797575Y-67094369D03*
D18*
X68456889Y-65959170D03*
D19*
X75910373Y-67543460D03*
%TD*%
D17*
%TO.C,D7*%
X82562728Y-96560658D03*
X85790616Y-97246766D03*
D18*
X80449930Y-96111567D03*
D19*
X87903414Y-97695857D03*
%TD*%
D17*
%TO.C,D8*%
X86097223Y-79932149D03*
X89325111Y-80618257D03*
D18*
X83984425Y-79483058D03*
D19*
X91437909Y-81067348D03*
%TD*%
D17*
%TO.C,D9*%
X89631723Y-63303637D03*
X92859611Y-63989745D03*
D18*
X87518925Y-62854546D03*
D19*
X94972409Y-64438836D03*
%TD*%
D17*
%TO.C,D10*%
X99129823Y-105193807D03*
X102357711Y-105879915D03*
D18*
X97017025Y-104744716D03*
D19*
X104470509Y-106329006D03*
%TD*%
D17*
%TO.C,D11*%
X102664325Y-88565296D03*
X105892213Y-89251404D03*
D18*
X100551527Y-88116205D03*
D19*
X108005011Y-89700495D03*
%TD*%
D17*
%TO.C,D12*%
X106198821Y-71936791D03*
X109426709Y-72622899D03*
D18*
X104086023Y-71487700D03*
D19*
X111539507Y-73071990D03*
%TD*%
D17*
%TO.C,D13*%
X116320659Y-110892510D03*
X119548547Y-111578618D03*
D18*
X114207861Y-110443419D03*
D19*
X121661345Y-112027709D03*
%TD*%
D17*
%TO.C,D14*%
X119855155Y-94264001D03*
X123083043Y-94950109D03*
D18*
X117742357Y-93814910D03*
D19*
X125195841Y-95399200D03*
%TD*%
D17*
%TO.C,D15*%
X123389653Y-77635493D03*
X126617541Y-78321601D03*
D18*
X121276855Y-77186402D03*
D19*
X128730339Y-78770692D03*
%TD*%
D20*
%TO.C,D16*%
X90529445Y-122353388D03*
X93701609Y-123262988D03*
D21*
X88453120Y-121758010D03*
D19*
X95777934Y-123858366D03*
%TD*%
D22*
%TO.C,D17*%
X107942587Y-128729591D03*
X110908607Y-130176215D03*
D23*
X106001192Y-127782709D03*
D19*
X112850002Y-131123097D03*
%TD*%
D24*
%TO.C,D18*%
X123983968Y-138032682D03*
X126653724Y-139972374D03*
D25*
X122236492Y-136763066D03*
D19*
X128401200Y-141241990D03*
%TD*%
D26*
%TO.C,D19*%
X262877671Y-108346748D03*
X266105559Y-107660640D03*
D27*
X260764873Y-108795839D03*
D19*
X268218357Y-107211549D03*
%TD*%
D26*
%TO.C,D20*%
X259343170Y-91718238D03*
X262571058Y-91032130D03*
D27*
X257230372Y-92167329D03*
D19*
X264683856Y-90583039D03*
%TD*%
D26*
%TO.C,D21*%
X255808673Y-75089729D03*
X259036561Y-74403621D03*
D27*
X253695875Y-75538820D03*
D19*
X261149359Y-73954530D03*
%TD*%
D26*
%TO.C,D22*%
X242776071Y-100351390D03*
X246003959Y-99665282D03*
D27*
X240663273Y-100800481D03*
D19*
X248116757Y-99216191D03*
%TD*%
D26*
%TO.C,D23*%
X239241573Y-83722879D03*
X242469461Y-83036771D03*
D27*
X237128775Y-84171970D03*
D19*
X244582259Y-82587680D03*
%TD*%
D26*
%TO.C,D24*%
X235707077Y-67094368D03*
X238934965Y-66408260D03*
D27*
X233594279Y-67543459D03*
D19*
X241047763Y-65959169D03*
%TD*%
D26*
%TO.C,D25*%
X223714035Y-97246766D03*
X226941923Y-96560658D03*
D27*
X221601237Y-97695857D03*
D19*
X229054721Y-96111567D03*
%TD*%
D26*
%TO.C,D26*%
X220179538Y-80618256D03*
X223407426Y-79932148D03*
D27*
X218066740Y-81067347D03*
D19*
X225520224Y-79483057D03*
%TD*%
D26*
%TO.C,D27*%
X216645038Y-63989746D03*
X219872926Y-63303638D03*
D27*
X214532240Y-64438837D03*
D19*
X221985724Y-62854547D03*
%TD*%
D26*
%TO.C,D28*%
X207146936Y-105879913D03*
X210374824Y-105193805D03*
D27*
X205034138Y-106329004D03*
D19*
X212487622Y-104744714D03*
%TD*%
D26*
%TO.C,D29*%
X203612435Y-89251406D03*
X206840323Y-88565298D03*
D27*
X201499637Y-89700497D03*
D19*
X208953121Y-88116207D03*
%TD*%
D26*
%TO.C,D30*%
X200077938Y-72622897D03*
X203305826Y-71936789D03*
D27*
X197965140Y-73071988D03*
D19*
X205418624Y-71487698D03*
%TD*%
D26*
%TO.C,D31*%
X189956104Y-111578620D03*
X193183992Y-110892512D03*
D27*
X187843306Y-112027711D03*
D19*
X195296790Y-110443421D03*
%TD*%
D26*
%TO.C,D32*%
X186421606Y-94950113D03*
X189649494Y-94264005D03*
D27*
X184308808Y-95399204D03*
D19*
X191762292Y-93814914D03*
%TD*%
D26*
%TO.C,D33*%
X182887104Y-78321601D03*
X186114992Y-77635493D03*
D27*
X180774306Y-78770692D03*
D19*
X188227790Y-77186402D03*
%TD*%
D28*
%TO.C,D34*%
X215803041Y-123262990D03*
X218975205Y-122353386D03*
D29*
X213726716Y-123858366D03*
D19*
X221051530Y-121758010D03*
%TD*%
D30*
%TO.C,D35*%
X198596042Y-130176214D03*
X201562062Y-128729590D03*
D31*
X196654647Y-131123096D03*
D19*
X203503457Y-127782708D03*
%TD*%
D32*
%TO.C,D36*%
X182850927Y-139972376D03*
X185520683Y-138032684D03*
D33*
X181103451Y-141241992D03*
D19*
X187268159Y-136763068D03*
%TD*%
D34*
%TO.C,MCU1*%
X147132326Y-73206320D03*
D16*
X147132326Y-75746320D03*
X147132326Y-78286320D03*
X147132326Y-80826320D03*
X147132327Y-83366320D03*
X147132326Y-85906320D03*
X147132325Y-88446320D03*
X147132325Y-90986320D03*
X147132326Y-93526320D03*
X147132327Y-96066320D03*
X147132326Y-98606320D03*
X147132326Y-101146320D03*
X147132326Y-103686320D03*
X162372326Y-73206320D03*
X162372326Y-75746320D03*
X162372326Y-78286320D03*
X162372326Y-80826320D03*
X162372325Y-83366320D03*
X162372326Y-85906320D03*
X162372327Y-88446320D03*
X162372327Y-90986320D03*
X162372326Y-93526320D03*
X162372325Y-96066320D03*
X162372326Y-98606320D03*
X162372326Y-101146320D03*
X162372326Y-103686320D03*
X149672326Y-98606320D03*
X152212326Y-98606320D03*
X154752326Y-98606320D03*
%TD*%
D35*
%TO.C,OLED1*%
X165177326Y-109044829D03*
X144327326Y-109044829D03*
X144327326Y-129644829D03*
X165177326Y-129644829D03*
D16*
X158562326Y-107894830D03*
X156022326Y-107894829D03*
X153482326Y-107894829D03*
X150942326Y-107894830D03*
%TD*%
D36*
%TO.C,MH1*%
X58727408Y-108414042D03*
%TD*%
%TO.C,MH2*%
X250777239Y-108414043D03*
%TD*%
%TO.C,MH3*%
X134820151Y-109712996D03*
%TD*%
%TO.C,MH4*%
X174684498Y-109712998D03*
%TD*%
%TO.C,MH5*%
X140128484Y-76081737D03*
%TD*%
%TO.C,MH6*%
X169376166Y-76081737D03*
%TD*%
%TO.C,MH7*%
X143952325Y-139207444D03*
%TD*%
%TO.C,MH8*%
X165552326Y-139207442D03*
%TD*%
%TO.C,MH9*%
X60194918Y-58222345D03*
%TD*%
%TO.C,MH10*%
X249309731Y-58222345D03*
%TD*%
D16*
%TO.C,T6*%
X154752323Y-135457446D03*
X157292323Y-135457446D03*
X152212323Y-135457446D03*
%TD*%
D37*
%TO.C,B1*%
X168432324Y-85137809D03*
X168432324Y-81437809D03*
%TD*%
D16*
%TO.C,B2*%
X166182326Y-86837812D03*
X166182326Y-93337812D03*
X170682326Y-93337812D03*
X170682326Y-86837812D03*
%TD*%
D38*
%TO.C,JST1*%
X166352324Y-96037810D03*
D39*
X168352324Y-96037810D03*
%TD*%
M02*
