%TF.GenerationSoftware,KiCad,Pcbnew,8.0.1*%
%TF.CreationDate,2025-12-13T21:48:51+01:00*%
%TF.ProjectId,fat_cruiser,6661745f-6372-4756-9973-65722e6b6963,v2.0.0*%
%TF.SameCoordinates,Original*%
%TF.FileFunction,Paste,Bot*%
%TF.FilePolarity,Positive*%
%FSLAX46Y46*%
G04 Gerber Fmt 4.6, Leading zero omitted, Abs format (unit mm)*
G04 Created by KiCad (PCBNEW 8.0.1) date 2025-12-13 21:48:51*
%MOMM*%
%LPD*%
G01*
G04 APERTURE LIST*
G04 Aperture macros list*
%AMRotRect*
0 Rectangle, with rotation*
0 The origin of the aperture is its center*
0 $1 length*
0 $2 width*
0 $3 Rotation angle, in degrees counterclockwise*
0 Add horizontal line*
21,1,$1,$2,0,0,$3*%
G04 Aperture macros list end*
%ADD10R,0.900000X1.250000*%
%ADD11R,0.900000X0.900000*%
%ADD12RotRect,2.600000X2.600000X348.000000*%
%ADD13RotRect,2.600000X2.600000X344.000000*%
%ADD14RotRect,2.600000X2.600000X334.000000*%
%ADD15RotRect,2.600000X2.600000X324.000000*%
%ADD16RotRect,2.600000X2.600000X12.000000*%
%ADD17RotRect,2.600000X2.600000X16.000000*%
%ADD18RotRect,2.600000X2.600000X26.000000*%
%ADD19RotRect,2.600000X2.600000X36.000000*%
%ADD20RotRect,0.900000X1.200000X348.000000*%
%ADD21RotRect,0.900000X1.200000X344.000000*%
%ADD22RotRect,0.900000X1.200000X334.000000*%
%ADD23RotRect,0.900000X1.200000X324.000000*%
%ADD24RotRect,0.900000X1.200000X12.000000*%
%ADD25RotRect,0.900000X1.200000X16.000000*%
%ADD26RotRect,0.900000X1.200000X26.000000*%
%ADD27RotRect,0.900000X1.200000X36.000000*%
G04 APERTURE END LIST*
D10*
%TO.C,T5*%
X157002326Y-140882443D03*
X154002328Y-140882443D03*
X152502326Y-140882443D03*
D11*
X151052326Y-144057443D03*
X151052326Y-141857443D03*
X158452326Y-141857443D03*
X158452326Y-144057443D03*
%TD*%
D12*
%TO.C,S1*%
X44086237Y-96612066D03*
X54926436Y-101165371D03*
%TD*%
%TO.C,S2*%
X47620731Y-79983560D03*
X58460930Y-84536865D03*
%TD*%
%TO.C,S3*%
X51155233Y-63355051D03*
X61995432Y-67908356D03*
%TD*%
%TO.C,S4*%
X64187832Y-88616708D03*
X75028031Y-93170013D03*
%TD*%
%TO.C,S5*%
X67722330Y-71988198D03*
X78562529Y-76541503D03*
%TD*%
%TO.C,S6*%
X71256828Y-55359688D03*
X82097027Y-59912993D03*
%TD*%
%TO.C,S7*%
X83249869Y-85512084D03*
X94090068Y-90065389D03*
%TD*%
%TO.C,S8*%
X86784370Y-68883576D03*
X97624569Y-73436881D03*
%TD*%
%TO.C,S9*%
X90318869Y-52255067D03*
X101159068Y-56808372D03*
%TD*%
%TO.C,S10*%
X99816967Y-94145233D03*
X110657166Y-98698538D03*
%TD*%
%TO.C,S11*%
X103351463Y-77516725D03*
X114191662Y-82070030D03*
%TD*%
%TO.C,S12*%
X106885967Y-60888215D03*
X117726166Y-65441520D03*
%TD*%
%TO.C,S13*%
X117007803Y-99843939D03*
X127848002Y-104397244D03*
%TD*%
%TO.C,S14*%
X120542302Y-83215430D03*
X131382501Y-87768735D03*
%TD*%
%TO.C,S15*%
X124076799Y-66586920D03*
X134916998Y-71140225D03*
%TD*%
D13*
%TO.C,S16*%
X91985626Y-111379660D03*
X102481797Y-116678047D03*
%TD*%
D14*
%TO.C,S17*%
X111282213Y-118175442D03*
X120698868Y-125215976D03*
%TD*%
D15*
%TO.C,S18*%
X129105564Y-128218794D03*
X137156583Y-136787551D03*
%TD*%
D16*
%TO.C,S19*%
X259011550Y-97973890D03*
X270766561Y-97724434D03*
%TD*%
%TO.C,S20*%
X255477048Y-81345381D03*
X267232059Y-81095925D03*
%TD*%
%TO.C,S21*%
X251942550Y-64716872D03*
X263697561Y-64467416D03*
%TD*%
%TO.C,S22*%
X238909949Y-89978530D03*
X250664960Y-89729074D03*
%TD*%
%TO.C,S23*%
X235375453Y-73350019D03*
X247130464Y-73100563D03*
%TD*%
%TO.C,S24*%
X231840955Y-56721511D03*
X243595966Y-56472055D03*
%TD*%
%TO.C,S25*%
X219847913Y-86873906D03*
X231602924Y-86624450D03*
%TD*%
%TO.C,S26*%
X216313413Y-70245398D03*
X228068424Y-69995942D03*
%TD*%
%TO.C,S27*%
X212778915Y-53616888D03*
X224533926Y-53367432D03*
%TD*%
%TO.C,S28*%
X203280815Y-95507056D03*
X215035826Y-95257600D03*
%TD*%
%TO.C,S29*%
X199746314Y-78878546D03*
X211501325Y-78629090D03*
%TD*%
%TO.C,S30*%
X196211817Y-62250036D03*
X207966828Y-62000580D03*
%TD*%
%TO.C,S31*%
X186089980Y-101205763D03*
X197844991Y-100956307D03*
%TD*%
%TO.C,S32*%
X182555482Y-84577250D03*
X194310493Y-84327794D03*
%TD*%
%TO.C,S33*%
X179020986Y-67948743D03*
X190775997Y-67699287D03*
%TD*%
D17*
%TO.C,S34*%
X211222760Y-113185084D03*
X222931734Y-112116249D03*
%TD*%
D18*
%TO.C,S35*%
X192335337Y-121046771D03*
X203680825Y-117960931D03*
%TD*%
D19*
%TO.C,S36*%
X175100023Y-132068791D03*
X185737298Y-127059710D03*
%TD*%
D20*
%TO.C,D1*%
X46626977Y-108346749D03*
X43399089Y-107660641D03*
%TD*%
%TO.C,D2*%
X50161476Y-91718243D03*
X46933588Y-91032135D03*
%TD*%
%TO.C,D3*%
X53695974Y-75089731D03*
X50468086Y-74403623D03*
%TD*%
%TO.C,D4*%
X66728576Y-100351391D03*
X63500688Y-99665283D03*
%TD*%
%TO.C,D5*%
X70263074Y-83722877D03*
X67035186Y-83036769D03*
%TD*%
%TO.C,D6*%
X73797575Y-67094369D03*
X70569687Y-66408261D03*
%TD*%
%TO.C,D7*%
X85790616Y-97246766D03*
X82562728Y-96560658D03*
%TD*%
%TO.C,D8*%
X89325111Y-80618257D03*
X86097223Y-79932149D03*
%TD*%
%TO.C,D9*%
X92859611Y-63989745D03*
X89631723Y-63303637D03*
%TD*%
%TO.C,D10*%
X102357711Y-105879915D03*
X99129823Y-105193807D03*
%TD*%
%TO.C,D11*%
X105892213Y-89251404D03*
X102664325Y-88565296D03*
%TD*%
%TO.C,D12*%
X109426709Y-72622899D03*
X106198821Y-71936791D03*
%TD*%
%TO.C,D13*%
X119548547Y-111578618D03*
X116320659Y-110892510D03*
%TD*%
%TO.C,D14*%
X123083043Y-94950109D03*
X119855155Y-94264001D03*
%TD*%
%TO.C,D15*%
X126617541Y-78321601D03*
X123389653Y-77635493D03*
%TD*%
D21*
%TO.C,D16*%
X93701609Y-123262988D03*
X90529445Y-122353388D03*
%TD*%
D22*
%TO.C,D17*%
X110908607Y-130176215D03*
X107942587Y-128729591D03*
%TD*%
D23*
%TO.C,D18*%
X126653724Y-139972374D03*
X123983968Y-138032682D03*
%TD*%
D24*
%TO.C,D19*%
X266105559Y-107660640D03*
X262877671Y-108346748D03*
%TD*%
%TO.C,D20*%
X262571058Y-91032130D03*
X259343170Y-91718238D03*
%TD*%
%TO.C,D21*%
X259036561Y-74403621D03*
X255808673Y-75089729D03*
%TD*%
%TO.C,D22*%
X246003959Y-99665282D03*
X242776071Y-100351390D03*
%TD*%
%TO.C,D23*%
X242469461Y-83036771D03*
X239241573Y-83722879D03*
%TD*%
%TO.C,D24*%
X238934965Y-66408260D03*
X235707077Y-67094368D03*
%TD*%
%TO.C,D25*%
X226941923Y-96560658D03*
X223714035Y-97246766D03*
%TD*%
%TO.C,D26*%
X223407426Y-79932148D03*
X220179538Y-80618256D03*
%TD*%
%TO.C,D27*%
X219872926Y-63303638D03*
X216645038Y-63989746D03*
%TD*%
%TO.C,D28*%
X210374824Y-105193805D03*
X207146936Y-105879913D03*
%TD*%
%TO.C,D29*%
X206840323Y-88565298D03*
X203612435Y-89251406D03*
%TD*%
%TO.C,D30*%
X203305826Y-71936789D03*
X200077938Y-72622897D03*
%TD*%
%TO.C,D31*%
X193183992Y-110892512D03*
X189956104Y-111578620D03*
%TD*%
%TO.C,D32*%
X189649494Y-94264005D03*
X186421606Y-94950113D03*
%TD*%
%TO.C,D33*%
X186114992Y-77635493D03*
X182887104Y-78321601D03*
%TD*%
D25*
%TO.C,D34*%
X218975205Y-122353386D03*
X215803041Y-123262990D03*
%TD*%
D26*
%TO.C,D35*%
X201562062Y-128729590D03*
X198596042Y-130176214D03*
%TD*%
D27*
%TO.C,D36*%
X185520683Y-138032684D03*
X182850927Y-139972376D03*
%TD*%
M02*
