M48
; DRILL file {KiCad 8.0.1} date 2025-12-13T21:48:44+0100
; FORMAT={-:-/ absolute / metric / decimal}
; #@! TF.CreationDate,2025-12-13T21:48:44+01:00
; #@! TF.GenerationSoftware,Kicad,Pcbnew,8.0.1
; #@! TF.FileFunction,Plated,1,2,PTH
FMAT,2
METRIC
; #@! TA.AperFunction,Plated,PTH,ViaDrill
T1C0.500
; #@! TA.AperFunction,Plated,PTH,ComponentDrill
T2C0.750
; #@! TA.AperFunction,Plated,PTH,ComponentDrill
T3C0.991
; #@! TA.AperFunction,Plated,PTH,ComponentDrill
T4C1.092
; #@! TA.AperFunction,Plated,PTH,ComponentDrill
T5C2.200
; #@! TA.AperFunction,Plated,PTH,ComponentDrill
T6C4.000
%
G90
G05
T1
X154.776Y-131.422
T2
X166.352Y-96.038
X168.352Y-96.038
T3
X41.286Y-107.212
X44.821Y-90.583
X48.355Y-73.955
X48.74Y-108.796
X52.274Y-92.167
X55.809Y-75.539
X61.388Y-99.216
X64.922Y-82.588
X68.457Y-65.959
X68.841Y-100.8
X72.376Y-84.172
X75.91Y-67.543
X80.45Y-96.112
X83.984Y-79.483
X87.519Y-62.855
X87.903Y-97.696
X88.453Y-121.758
X91.438Y-81.067
X94.972Y-64.439
X95.778Y-123.858
X97.017Y-104.745
X100.552Y-88.116
X104.086Y-71.488
X104.471Y-106.329
X106.001Y-127.783
X108.005Y-89.7
X111.54Y-73.072
X112.85Y-131.123
X114.208Y-110.443
X117.742Y-93.815
X121.277Y-77.186
X121.661Y-112.028
X122.236Y-136.763
X125.196Y-95.399
X128.401Y-141.242
X128.73Y-78.771
X180.774Y-78.771
X181.103Y-141.242
X184.309Y-95.399
X187.268Y-136.763
X187.843Y-112.028
X188.228Y-77.186
X191.762Y-93.815
X195.297Y-110.443
X196.655Y-131.123
X197.965Y-73.072
X201.5Y-89.7
X203.503Y-127.783
X205.034Y-106.329
X205.419Y-71.488
X208.953Y-88.116
X212.488Y-104.745
X213.727Y-123.858
X214.532Y-64.439
X218.067Y-81.067
X221.052Y-121.758
X221.601Y-97.696
X221.986Y-62.855
X225.52Y-79.483
X229.055Y-96.112
X233.594Y-67.543
X237.129Y-84.172
X240.663Y-100.8
X241.048Y-65.959
X244.582Y-82.588
X248.117Y-99.216
X253.696Y-75.539
X257.23Y-92.167
X260.765Y-108.796
X261.149Y-73.955
X264.684Y-90.583
X268.218Y-107.212
T4
X43.494Y-99.4
X47.028Y-82.771
X50.563Y-66.143
X54.334Y-103.953
X57.868Y-87.325
X61.403Y-70.696
X63.595Y-91.404
X67.13Y-74.776
X70.664Y-58.147
X74.435Y-95.958
X77.97Y-79.329
X81.504Y-62.701
X82.657Y-88.3
X86.192Y-71.671
X89.726Y-55.043
X91.2Y-114.119
X93.498Y-92.853
X97.032Y-76.225
X99.224Y-96.933
X100.567Y-59.596
X101.696Y-119.418
X102.759Y-80.304
X106.293Y-63.676
X110.033Y-120.737
X110.065Y-101.486
X113.599Y-84.858
X116.415Y-102.632
X117.134Y-68.229
X119.45Y-127.778
X119.95Y-86.003
X123.484Y-69.375
X127.255Y-107.185
X127.43Y-130.524
X130.79Y-90.556
X134.324Y-73.928
X135.481Y-139.093
X147.132Y-88.446
X147.132Y-90.986
X147.132Y-73.206
X147.132Y-75.746
X147.132Y-78.286
X147.132Y-80.826
X147.132Y-85.906
X147.132Y-93.526
X147.132Y-98.606
X147.132Y-101.146
X147.132Y-103.686
X147.132Y-83.366
X147.132Y-96.066
X149.672Y-98.606
X150.942Y-107.895
X152.212Y-135.457
X152.212Y-98.606
X153.482Y-107.895
X154.752Y-135.457
X154.752Y-98.606
X156.022Y-107.895
X157.292Y-135.457
X158.562Y-107.895
X162.372Y-83.366
X162.372Y-96.066
X162.372Y-73.206
X162.372Y-75.746
X162.372Y-78.286
X162.372Y-80.826
X162.372Y-85.906
X162.372Y-93.526
X162.372Y-98.606
X162.372Y-101.146
X162.372Y-103.686
X162.372Y-88.446
X162.372Y-90.986
X166.182Y-86.838
X166.182Y-93.338
X168.432Y-81.438
X168.432Y-85.138
X170.682Y-86.838
X170.682Y-93.338
X176.775Y-134.374
X179.614Y-70.736
X183.148Y-87.365
X186.683Y-103.993
X187.412Y-129.365
X191.369Y-70.487
X193.585Y-123.608
X194.903Y-87.116
X196.804Y-65.038
X198.438Y-103.744
X200.339Y-81.666
X203.873Y-98.295
X204.93Y-120.522
X208.559Y-64.788
X212.008Y-115.925
X212.094Y-81.417
X213.371Y-56.405
X215.628Y-98.045
X216.906Y-73.033
X220.44Y-89.662
X223.717Y-114.856
X225.126Y-56.155
X228.661Y-72.784
X232.195Y-89.412
X232.434Y-59.509
X235.968Y-76.138
X239.502Y-92.766
X244.189Y-59.26
X247.723Y-75.888
X251.258Y-92.517
X252.535Y-67.505
X256.07Y-84.133
X259.604Y-100.762
X264.29Y-67.255
X267.825Y-83.884
X271.359Y-100.512
T5
X58.727Y-108.414
X60.195Y-58.222
X134.82Y-109.713
X140.128Y-76.082
X143.952Y-139.207
X165.552Y-139.207
X169.376Y-76.082
X174.684Y-109.713
X249.31Y-58.222
X250.777Y-108.414
T6
X144.327Y-109.045
X144.327Y-129.645
X165.177Y-109.045
X165.177Y-129.645
M30
